<mxfile host="app.diagrams.net" agent="Mozilla/5.0 (Windows NT 10.0; Win64; x64) AppleWebKit/537.36 (KHTML, like Gecko) Chrome/129.0.0.0 Safari/537.36 Edg/129.0.0.0" version="24.7.17" pages="3">
  <diagram name="Page-1" id="uVG1_WVRh6hDYVvi8aj8">
    <mxGraphModel dx="3952" dy="2344" grid="1" gridSize="10" guides="1" tooltips="1" connect="1" arrows="1" fold="1" page="1" pageScale="1" pageWidth="1100" pageHeight="850" math="0" shadow="0">
      <root>
        <mxCell id="0" />
        <mxCell id="1" parent="0" />
        <mxCell id="ryNngADE0ALBeisq_Oz2-1" value="" style="group;fontSize=23;" parent="1" vertex="1" connectable="0">
          <mxGeometry x="-360" y="-360" width="1920.5" height="1570" as="geometry" />
        </mxCell>
        <mxCell id="biQMx6R-Xg1VoFZKRa5t-2" value="" style="rounded=0;whiteSpace=wrap;html=1;fillColor=#dae8fc;strokeColor=#6c8ebf;fontSize=23;" parent="ryNngADE0ALBeisq_Oz2-1" vertex="1">
          <mxGeometry x="306.3261700095511" y="992.24" width="1565.25947150589" height="477.28000000000003" as="geometry" />
        </mxCell>
        <mxCell id="biQMx6R-Xg1VoFZKRa5t-3" value="" style="rounded=0;whiteSpace=wrap;html=1;fillColor=#d5e8d4;strokeColor=#82b366;fontSize=23;" parent="ryNngADE0ALBeisq_Oz2-1" vertex="1">
          <mxGeometry x="306.33" y="510" width="1369.6" height="438.28" as="geometry" />
        </mxCell>
        <mxCell id="biQMx6R-Xg1VoFZKRa5t-4" value="&lt;b style=&quot;font-size: 23px;&quot;&gt;1. Authentication&lt;/b&gt;&lt;div style=&quot;font-size: 23px;&quot;&gt;2.&lt;b style=&quot;font-size: 23px;&quot;&gt; endpoint name&lt;/b&gt; : /token&lt;/div&gt;&lt;div style=&quot;font-size: 23px;&quot;&gt;3. &lt;b&gt;endpoint&lt;/b&gt;&lt;b style=&quot;font-size: 23px;&quot;&gt;&amp;nbsp;type:&lt;/b&gt; POST&lt;/div&gt;&lt;div style=&quot;font-size: 23px;&quot;&gt;4.&lt;b style=&quot;font-size: 23px;&quot;&gt; Query Parameters:&amp;nbsp;&lt;/b&gt;&lt;span style=&quot;background-color: initial; font-size: 23px;&quot;&gt;credentials (username &amp;amp; password)&lt;/span&gt;&lt;/div&gt;" style="text;html=1;align=left;verticalAlign=middle;whiteSpace=wrap;rounded=0;fontSize=23;" parent="ryNngADE0ALBeisq_Oz2-1" vertex="1">
          <mxGeometry x="514.21" y="521.24" width="495.79" height="125.6" as="geometry" />
        </mxCell>
        <mxCell id="biQMx6R-Xg1VoFZKRa5t-5" value="&lt;span style=&quot;color: rgb(0, 0, 0); font-family: Helvetica; font-size: 23px; font-style: normal; font-variant-ligatures: normal; font-variant-caps: normal; letter-spacing: normal; orphans: 2; text-indent: 0px; text-transform: none; widows: 2; word-spacing: 0px; -webkit-text-stroke-width: 0px; white-space: normal; text-decoration-thickness: initial; text-decoration-style: initial; text-decoration-color: initial; float: none; background-color: rgb(213, 232, 212); display: inline !important;&quot;&gt;&lt;b style=&quot;font-size: 23px;&quot;&gt;Action:&lt;/b&gt;&lt;span style=&quot;font-size: 23px;&quot;&gt; Verify Credentials&lt;/span&gt;&lt;/span&gt;&lt;div style=&quot;forced-color-adjust: none; color: rgb(0, 0, 0); font-family: Helvetica; font-size: 23px; font-style: normal; font-variant-ligatures: normal; font-variant-caps: normal; letter-spacing: normal; orphans: 2; text-indent: 0px; text-transform: none; widows: 2; word-spacing: 0px; -webkit-text-stroke-width: 0px; white-space: normal; text-decoration-thickness: initial; text-decoration-style: initial; text-decoration-color: initial;&quot;&gt;&lt;span style=&quot;background-color: rgb(213, 232, 212); font-size: 23px;&quot;&gt;&lt;b style=&quot;font-size: 23px;&quot;&gt;Json Response: &lt;/b&gt;JWT&lt;b style=&quot;font-size: 23px;&quot;&gt;&amp;nbsp;&lt;/b&gt;&lt;/span&gt;&lt;span style=&quot;background-color: rgb(213, 232, 212); font-size: 23px;&quot;&gt;access token, refresh token,&amp;nbsp;&lt;/span&gt;&lt;span style=&quot;background-color: rgb(213, 232, 212); font-size: 23px;&quot;&gt;expiry durations&lt;/span&gt;&lt;/div&gt;" style="text;whiteSpace=wrap;html=1;align=left;fontSize=23;" parent="ryNngADE0ALBeisq_Oz2-1" vertex="1">
          <mxGeometry x="1137.870264247055" y="521.24" width="452.4578159821713" height="119.32000000000001" as="geometry" />
        </mxCell>
        <mxCell id="biQMx6R-Xg1VoFZKRa5t-6" value="&lt;b style=&quot;font-size: 23px;&quot;&gt;1. Access Token Expired&lt;/b&gt;&lt;div style=&quot;font-size: 23px;&quot;&gt;2.&lt;b style=&quot;font-size: 23px;&quot;&gt; endpoint name&lt;/b&gt; : /token refresh&lt;/div&gt;&lt;div style=&quot;font-size: 23px;&quot;&gt;3. &lt;b style=&quot;font-size: 23px;&quot;&gt;endpoint type:&lt;/b&gt; POST&lt;/div&gt;&lt;div style=&quot;font-size: 23px;&quot;&gt;4.&lt;b style=&quot;font-size: 23px;&quot;&gt; Query parameters:&amp;nbsp;&lt;/b&gt;&lt;span style=&quot;font-size: 23px;&quot;&gt;refresh token&amp;nbsp;&lt;/span&gt;&lt;/div&gt;" style="text;html=1;align=left;verticalAlign=middle;whiteSpace=wrap;rounded=0;fontSize=23;" parent="ryNngADE0ALBeisq_Oz2-1" vertex="1">
          <mxGeometry x="514.2121935689271" y="728.48" width="538.0579433301497" height="125.6" as="geometry" />
        </mxCell>
        <mxCell id="biQMx6R-Xg1VoFZKRa5t-7" value="&lt;b style=&quot;font-size: 23px;&quot;&gt;&lt;font style=&quot;font-size: 23px;&quot;&gt;1&lt;/font&gt;&lt;/b&gt;" style="ellipse;whiteSpace=wrap;html=1;aspect=fixed;fontSize=23;" parent="ryNngADE0ALBeisq_Oz2-1" vertex="1">
          <mxGeometry x="318.55475963069085" y="615.44" width="97.82871696911812" height="97.82871696911812" as="geometry" />
        </mxCell>
        <mxCell id="biQMx6R-Xg1VoFZKRa5t-8" value="&lt;b style=&quot;font-size: 23px;&quot;&gt;Action: &lt;/b&gt;&lt;span style=&quot;font-size: 23px;&quot;&gt;Validate the refresh token.&lt;/span&gt;&lt;div style=&quot;font-size: 23px;&quot;&gt;&lt;b style=&quot;font-size: 23px;&quot;&gt;Json Response :&lt;/b&gt;&lt;span style=&quot;font-size: 23px;&quot;&gt; JWT&amp;nbsp;&lt;/span&gt;&lt;span style=&quot;font-size: 23px;&quot;&gt;access token , expiry duration&lt;/span&gt;&lt;/div&gt;" style="text;html=1;align=left;verticalAlign=middle;whiteSpace=wrap;rounded=0;fontSize=23;" parent="ryNngADE0ALBeisq_Oz2-1" vertex="1">
          <mxGeometry x="1137.870264247055" y="703.36" width="428.0006367398918" height="150.72" as="geometry" />
        </mxCell>
        <mxCell id="biQMx6R-Xg1VoFZKRa5t-9" value="&lt;font style=&quot;font-size: 40px;&quot;&gt;&lt;b style=&quot;&quot;&gt;Authentication&lt;/b&gt;&lt;/font&gt;&lt;div style=&quot;font-size: 40px;&quot;&gt;&lt;font style=&quot;font-size: 40px;&quot;&gt;&lt;b style=&quot;&quot;&gt;(Assumption:&lt;/b&gt;&lt;/font&gt;&lt;/div&gt;&lt;div style=&quot;font-size: 40px;&quot;&gt;&lt;font style=&quot;font-size: 40px;&quot;&gt;&lt;b style=&quot;&quot;&gt;1. user registered already)&amp;nbsp;&lt;/b&gt;&lt;/font&gt;&lt;/div&gt;" style="text;html=1;align=center;verticalAlign=middle;whiteSpace=wrap;rounded=0;fontSize=23;" parent="ryNngADE0ALBeisq_Oz2-1" vertex="1">
          <mxGeometry x="-48.3" y="615.44" width="354.6290990130532" height="238.64000000000001" as="geometry" />
        </mxCell>
        <mxCell id="biQMx6R-Xg1VoFZKRa5t-10" value="&lt;b style=&quot;font-size: 23px;&quot;&gt;1. Get Data from database by any Search Criteria&lt;/b&gt;&lt;div style=&quot;font-size: 23px;&quot;&gt;2.&lt;b style=&quot;font-size: 23px;&quot;&gt; endpoint name&lt;/b&gt; : /retrieve-data&lt;/div&gt;&lt;div style=&quot;font-size: 23px;&quot;&gt;&lt;b style=&quot;background-color: initial; font-size: 23px;&quot;&gt;3 end point type:&lt;/b&gt;&lt;span style=&quot;background-color: initial; font-size: 23px;&quot;&gt;&amp;nbsp;GET&lt;/span&gt;&lt;/div&gt;&lt;div style=&quot;font-size: 23px;&quot;&gt;&lt;span style=&quot;background-color: initial; font-size: 23px;&quot;&gt;4.&lt;/span&gt;&lt;b style=&quot;background-color: initial; font-size: 23px;&quot;&gt;Query parameters: &lt;/b&gt;&lt;span style=&quot;background-color: initial; font-size: 23px;&quot;&gt;access token, search criteria, search_value, row_limit&lt;/span&gt;&lt;/div&gt;" style="text;html=1;align=left;verticalAlign=middle;whiteSpace=wrap;rounded=0;fontSize=23;" parent="ryNngADE0ALBeisq_Oz2-1" vertex="1">
          <mxGeometry x="483.6407195160777" y="1004.8" width="599.2008914358485" height="125.6" as="geometry" />
        </mxCell>
        <mxCell id="biQMx6R-Xg1VoFZKRa5t-14" value="&lt;b style=&quot;text-align: left; font-size: 23px;&quot;&gt;Json Response:&lt;/b&gt;&lt;b style=&quot;font-size: 23px;&quot;&gt;&amp;nbsp;&lt;/b&gt;&lt;div style=&quot;font-size: 23px;&quot;&gt;&lt;b style=&quot;font-size: 23px;&quot;&gt;RetreiverResponse with&lt;/b&gt;&lt;/div&gt;&lt;div style=&quot;font-size: 23px;&quot;&gt;&lt;b style=&quot;font-size: 23px;&quot;&gt;&lt;span style=&quot;background-color: initial; font-size: 23px;&quot;&gt;policy data from all tables&amp;nbsp;&amp;nbsp;&lt;/span&gt;&lt;/b&gt;&lt;/div&gt;" style="text;html=1;align=center;verticalAlign=middle;whiteSpace=wrap;rounded=0;fontSize=23;" parent="ryNngADE0ALBeisq_Oz2-1" vertex="1">
          <mxGeometry x="1137.870264247055" y="1142.96" width="452.4578159821713" height="287.624" as="geometry" />
        </mxCell>
        <mxCell id="biQMx6R-Xg1VoFZKRa5t-15" value="" style="endArrow=classic;html=1;rounded=0;fontSize=23;strokeWidth=5;flowAnimation=1;" parent="ryNngADE0ALBeisq_Oz2-1" edge="1">
          <mxGeometry width="50" height="50" relative="1" as="geometry">
            <mxPoint x="428.61206622094875" y="1168.08" as="sourcePoint" />
            <mxPoint x="1113.4130850047757" y="1168.08" as="targetPoint" />
          </mxGeometry>
        </mxCell>
        <mxCell id="biQMx6R-Xg1VoFZKRa5t-17" value="" style="group;fontSize=23;" parent="ryNngADE0ALBeisq_Oz2-1" vertex="1" connectable="0">
          <mxGeometry x="355.24052849411015" y="291.392" width="207.886023559376" height="1205.76" as="geometry" />
        </mxCell>
        <mxCell id="biQMx6R-Xg1VoFZKRa5t-18" value="" style="shape=link;html=1;rounded=0;fontSize=23;strokeWidth=3;" parent="biQMx6R-Xg1VoFZKRa5t-17" edge="1">
          <mxGeometry width="100" relative="1" as="geometry">
            <mxPoint x="73.3715377268386" y="1205.76" as="sourcePoint" />
            <mxPoint x="72.7601082457816" y="188.4" as="targetPoint" />
          </mxGeometry>
        </mxCell>
        <mxCell id="biQMx6R-Xg1VoFZKRa5t-19" value="Front End User/ Swagger UI" style="rounded=1;whiteSpace=wrap;html=1;fillColor=#d5e8d4;strokeColor=#82b366;fontSize=23;" parent="biQMx6R-Xg1VoFZKRa5t-17" vertex="1">
          <mxGeometry y="113.04" width="207.886023559376" height="75.36" as="geometry" />
        </mxCell>
        <mxCell id="biQMx6R-Xg1VoFZKRa5t-20" value="User Interface&amp;nbsp;" style="image;aspect=fixed;html=1;points=[];align=center;fontSize=23;image=img/lib/azure2/other/Azure_Monitor_Dashboard.svg;" parent="biQMx6R-Xg1VoFZKRa5t-17" vertex="1">
          <mxGeometry x="62.3658070678128" y="-25.12" width="83.1544094237504" height="77.28468640560332" as="geometry" />
        </mxCell>
        <mxCell id="biQMx6R-Xg1VoFZKRa5t-21" value="&lt;b style=&quot;font-size: 23px;&quot;&gt;&lt;font style=&quot;font-size: 23px;&quot;&gt;3&lt;/font&gt;&lt;/b&gt;" style="ellipse;whiteSpace=wrap;html=1;aspect=fixed;fontSize=23;" parent="biQMx6R-Xg1VoFZKRa5t-17" vertex="1">
          <mxGeometry x="-35.462909901305316" y="713.408" width="97.82871696911812" height="97.82871696911812" as="geometry" />
        </mxCell>
        <mxCell id="biQMx6R-Xg1VoFZKRa5t-22" value="&lt;b style=&quot;font-size: 23px;&quot;&gt;&lt;font style=&quot;font-size: 23px;&quot;&gt;2&lt;/font&gt;&lt;/b&gt;" style="ellipse;whiteSpace=wrap;html=1;aspect=fixed;fontSize=23;" parent="biQMx6R-Xg1VoFZKRa5t-17" vertex="1">
          <mxGeometry x="-35.462909901305316" y="527.52" width="97.82871696911812" height="97.82871696911812" as="geometry" />
        </mxCell>
        <mxCell id="biQMx6R-Xg1VoFZKRa5t-23" value="" style="endArrow=classic;html=1;rounded=0;strokeWidth=5;flowAnimation=1;fontSize=23;startArrow=classic;startFill=1;" parent="ryNngADE0ALBeisq_Oz2-1" edge="1">
          <mxGeometry width="50" height="50" relative="1" as="geometry">
            <mxPoint x="428.61206622094875" y="670.704" as="sourcePoint" />
            <mxPoint x="1113.4130850047757" y="670.704" as="targetPoint" />
          </mxGeometry>
        </mxCell>
        <mxCell id="biQMx6R-Xg1VoFZKRa5t-31" value="" style="endArrow=classic;html=1;rounded=0;strokeWidth=5;flowAnimation=1;fontSize=23;startArrow=classic;startFill=1;" parent="ryNngADE0ALBeisq_Oz2-1" edge="1">
          <mxGeometry width="50" height="50" relative="1" as="geometry">
            <mxPoint x="428.61206622094875" y="888.6702399999999" as="sourcePoint" />
            <mxPoint x="1113.4130850047757" y="888.6702399999999" as="targetPoint" />
          </mxGeometry>
        </mxCell>
        <mxCell id="biQMx6R-Xg1VoFZKRa5t-32" value="" style="group;fontSize=23;" parent="ryNngADE0ALBeisq_Oz2-1" vertex="1" connectable="0">
          <mxGeometry x="1040.041547277937" y="306.464" width="146.7430754536772" height="1175.616" as="geometry" />
        </mxCell>
        <mxCell id="biQMx6R-Xg1VoFZKRa5t-33" value="" style="shape=link;html=1;rounded=0;fontSize=23;strokeWidth=3;" parent="biQMx6R-Xg1VoFZKRa5t-32" edge="1">
          <mxGeometry width="100" relative="1" as="geometry">
            <mxPoint x="73.3715377268386" y="1175.616" as="sourcePoint" />
            <mxPoint x="73.3715377268386" y="183.376" as="targetPoint" />
          </mxGeometry>
        </mxCell>
        <mxCell id="biQMx6R-Xg1VoFZKRa5t-34" value="Browser" style="rounded=1;whiteSpace=wrap;html=1;fillColor=#fff2cc;strokeColor=#d6b656;fontSize=23;" parent="biQMx6R-Xg1VoFZKRa5t-32" vertex="1">
          <mxGeometry y="120.576" width="146.7430754536772" height="75.36" as="geometry" />
        </mxCell>
        <mxCell id="biQMx6R-Xg1VoFZKRa5t-35" value="" style="dashed=0;outlineConnect=0;html=1;align=center;labelPosition=center;verticalLabelPosition=bottom;verticalAlign=top;shape=mxgraph.weblogos.chrome;fontSize=23;" parent="biQMx6R-Xg1VoFZKRa5t-32" vertex="1">
          <mxGeometry x="28.125756128621465" width="91.46985036612546" height="94.70240000000001" as="geometry" />
        </mxCell>
        <mxCell id="biQMx6R-Xg1VoFZKRa5t-37" value="" style="endArrow=classic;html=1;rounded=0;fontSize=23;strokeWidth=5;startArrow=classic;startFill=1;flowAnimation=1;" parent="ryNngADE0ALBeisq_Oz2-1" edge="1">
          <mxGeometry width="50" height="50" relative="1" as="geometry">
            <mxPoint x="1613.9466698503663" y="1340" as="sourcePoint" />
            <mxPoint x="440.00206622094873" y="1340" as="targetPoint" />
          </mxGeometry>
        </mxCell>
        <mxCell id="ZR1Ki-HQ7yUc9_C6kXMO-2" value="&lt;font color=&quot;#009900&quot; style=&quot;font-size: 30px;&quot;&gt;&lt;b&gt;200 OK&lt;/b&gt;&lt;/font&gt;" style="edgeLabel;html=1;align=center;verticalAlign=middle;resizable=0;points=[];" parent="biQMx6R-Xg1VoFZKRa5t-37" vertex="1" connectable="0">
          <mxGeometry x="0.1601" y="-7" relative="1" as="geometry">
            <mxPoint as="offset" />
          </mxGeometry>
        </mxCell>
        <mxCell id="biQMx6R-Xg1VoFZKRa5t-38" value="" style="endArrow=classic;html=1;rounded=0;strokeWidth=5;startArrow=classic;startFill=0;flowAnimation=1;fontSize=23;" parent="ryNngADE0ALBeisq_Oz2-1" edge="1">
          <mxGeometry width="50" height="50" relative="1" as="geometry">
            <mxPoint x="1119.5273798153455" y="1168.08" as="sourcePoint" />
            <mxPoint x="1608.670964660936" y="1168.08" as="targetPoint" />
          </mxGeometry>
        </mxCell>
        <mxCell id="biQMx6R-Xg1VoFZKRa5t-40" value="&lt;b style=&quot;font-size: 23px;&quot;&gt;Action: Verify Token Validity, Generate a dynamic SQL JOIN query based on search_criteria, impute search values to the sql query, execute asyncronously&lt;/b&gt;" style="text;html=1;align=left;verticalAlign=middle;whiteSpace=wrap;rounded=0;fontSize=23;" parent="ryNngADE0ALBeisq_Oz2-1" vertex="1">
          <mxGeometry x="1150.5002642470552" y="1004.8000000000001" width="452.4578159821713" height="150.72" as="geometry" />
        </mxCell>
        <mxCell id="biQMx6R-Xg1VoFZKRa5t-74" value="&lt;b style=&quot;font-size: 40px;&quot;&gt;&lt;font style=&quot;font-size: 40px;&quot;&gt;2. Retrieve Data&lt;/font&gt;&lt;/b&gt;&lt;div style=&quot;font-size: 40px;&quot;&gt;&lt;b style=&quot;&quot;&gt;&lt;font style=&quot;font-size: 40px;&quot;&gt;Task&lt;/font&gt;&lt;/b&gt;&lt;/div&gt;" style="text;html=1;align=center;verticalAlign=middle;whiteSpace=wrap;rounded=0;fontSize=23;" parent="ryNngADE0ALBeisq_Oz2-1" vertex="1">
          <mxGeometry x="-36.07" y="1120" width="354.6290990130532" height="188.4" as="geometry" />
        </mxCell>
        <mxCell id="biQMx6R-Xg1VoFZKRa5t-78" value="" style="group;fontSize=23;" parent="ryNngADE0ALBeisq_Oz2-1" vertex="1" connectable="0">
          <mxGeometry x="1516.956542502388" y="125.6" width="195.65743393823624" height="1343.92" as="geometry" />
        </mxCell>
        <mxCell id="biQMx6R-Xg1VoFZKRa5t-25" value="" style="shape=link;html=1;rounded=0;fontSize=23;strokeWidth=3;" parent="biQMx6R-Xg1VoFZKRa5t-78" edge="1">
          <mxGeometry width="100" relative="1" as="geometry">
            <mxPoint x="97.82871696911812" y="1343.92" as="sourcePoint" />
            <mxPoint x="97.21728748806113" y="379.42747268386603" as="targetPoint" />
          </mxGeometry>
        </mxCell>
        <mxCell id="biQMx6R-Xg1VoFZKRa5t-26" value="API Server" style="rounded=1;whiteSpace=wrap;html=1;fillColor=#f8cecc;strokeColor=#b85450;fontSize=23;" parent="biQMx6R-Xg1VoFZKRa5t-78" vertex="1">
          <mxGeometry x="24.45717924227953" y="265.37667561031964" width="146.7430754536772" height="114.05079707354643" as="geometry" />
        </mxCell>
        <mxCell id="biQMx6R-Xg1VoFZKRa5t-77" value="" style="group;fontSize=23;" parent="biQMx6R-Xg1VoFZKRa5t-78" vertex="1" connectable="0">
          <mxGeometry width="195.65743393823624" height="253.28495999999998" as="geometry" />
        </mxCell>
        <mxCell id="biQMx6R-Xg1VoFZKRa5t-27" value="" style="sketch=0;pointerEvents=1;shadow=0;dashed=0;html=1;strokeColor=none;fillColor=#505050;labelPosition=center;verticalLabelPosition=bottom;verticalAlign=top;outlineConnect=0;align=center;shape=mxgraph.office.servers.server_side_code;fontSize=23;" parent="biQMx6R-Xg1VoFZKRa5t-77" vertex="1">
          <mxGeometry width="183.42884431709646" height="233.54064" as="geometry" />
        </mxCell>
        <mxCell id="biQMx6R-Xg1VoFZKRa5t-28" style="edgeStyle=orthogonalEdgeStyle;rounded=0;orthogonalLoop=1;jettySize=auto;html=1;exitX=0.5;exitY=1;exitDx=0;exitDy=0;strokeWidth=3;flowAnimation=1;fontSize=23;" parent="biQMx6R-Xg1VoFZKRa5t-78" source="biQMx6R-Xg1VoFZKRa5t-26" target="biQMx6R-Xg1VoFZKRa5t-26" edge="1">
          <mxGeometry relative="1" as="geometry" />
        </mxCell>
        <mxCell id="ryNngADE0ALBeisq_Oz2-2" value="" style="endArrow=classic;html=1;rounded=0;flowAnimation=1;strokeWidth=6;fontSize=23;startArrow=classic;startFill=1;" parent="biQMx6R-Xg1VoFZKRa5t-78" edge="1">
          <mxGeometry width="50" height="50" relative="1" as="geometry">
            <mxPoint x="103.04345749761205" y="1134.4" as="sourcePoint" />
            <mxPoint x="313.04345749761205" y="1134.4" as="targetPoint" />
          </mxGeometry>
        </mxCell>
        <mxCell id="ryNngADE0ALBeisq_Oz2-6" value="&lt;font style=&quot;font-size: 25px;&quot;&gt;&lt;b style=&quot;&quot;&gt;Connect to DB&lt;/b&gt;&lt;/font&gt;&lt;div style=&quot;font-size: 25px;&quot;&gt;&lt;font style=&quot;font-size: 25px;&quot;&gt;&lt;b&gt;Execute Query&lt;/b&gt;&lt;/font&gt;&lt;/div&gt;&lt;div style=&quot;font-size: 25px;&quot;&gt;&lt;b style=&quot;&quot;&gt;&lt;font style=&quot;font-size: 25px;&quot;&gt;Fetch Rows&lt;/font&gt;&lt;/b&gt;&lt;/div&gt;&lt;div style=&quot;font-size: 25px;&quot;&gt;&lt;b style=&quot;&quot;&gt;&lt;font style=&quot;font-size: 25px;&quot;&gt;Close DB&lt;/font&gt;&lt;/b&gt;&lt;/div&gt;&lt;div style=&quot;font-size: 25px;&quot;&gt;&lt;b style=&quot;&quot;&gt;&lt;font style=&quot;font-size: 25px;&quot;&gt;Connection&lt;/font&gt;&lt;/b&gt;&lt;/div&gt;" style="edgeLabel;html=1;align=center;verticalAlign=middle;resizable=0;points=[];" parent="ryNngADE0ALBeisq_Oz2-2" vertex="1" connectable="0">
          <mxGeometry x="-0.1238" y="4" relative="1" as="geometry">
            <mxPoint x="18" y="-86" as="offset" />
          </mxGeometry>
        </mxCell>
        <mxCell id="biQMx6R-Xg1VoFZKRa5t-79" value="" style="group;fontSize=23;" parent="ryNngADE0ALBeisq_Oz2-1" vertex="1" connectable="0">
          <mxGeometry x="1749.2997453040434" y="150.68232" width="171.20025469595672" height="1306.27768" as="geometry" />
        </mxCell>
        <mxCell id="biQMx6R-Xg1VoFZKRa5t-75" value="" style="image;aspect=fixed;html=1;points=[];align=center;fontSize=23;image=img/lib/azure2/databases/Azure_Database_PostgreSQL_Server.svg;" parent="biQMx6R-Xg1VoFZKRa5t-79" vertex="1">
          <mxGeometry x="18.648599172238143" width="133.90305635148042" height="178.53740846864056" as="geometry" />
        </mxCell>
        <mxCell id="biQMx6R-Xg1VoFZKRa5t-44" value="PostGres&lt;div style=&quot;font-size: 23px;&quot;&gt;Database&lt;/div&gt;" style="rounded=1;whiteSpace=wrap;html=1;fillColor=#ffe6cc;strokeColor=#d79b00;fontSize=23;" parent="biQMx6R-Xg1VoFZKRa5t-79" vertex="1">
          <mxGeometry y="236.66331745638738" width="171.20025469595672" height="115.54212436011095" as="geometry" />
        </mxCell>
        <mxCell id="biQMx6R-Xg1VoFZKRa5t-45" value="" style="shape=link;html=1;rounded=0;fontSize=23;strokeWidth=3;" parent="biQMx6R-Xg1VoFZKRa5t-79" edge="1">
          <mxGeometry width="100" relative="1" as="geometry">
            <mxPoint x="85.60012734797836" y="1306.27768" as="sourcePoint" />
            <mxPoint x="84.75839276239024" y="352.20544181649836" as="targetPoint" />
          </mxGeometry>
        </mxCell>
        <mxCell id="biQMx6R-Xg1VoFZKRa5t-80" value="&lt;b style=&quot;&quot;&gt;&lt;font style=&quot;font-size: 50px;&quot;&gt;API Sequence Diagram&lt;/font&gt;&lt;/b&gt;" style="text;html=1;align=center;verticalAlign=middle;whiteSpace=wrap;rounded=0;fontSize=23;" parent="ryNngADE0ALBeisq_Oz2-1" vertex="1">
          <mxGeometry x="574.5009105380452" y="170" width="856.0012734797835" height="37.68" as="geometry" />
        </mxCell>
        <mxCell id="biQMx6R-Xg1VoFZKRa5t-76" value="" style="shape=image;verticalLabelPosition=bottom;labelBackgroundColor=default;verticalAlign=top;aspect=fixed;imageAspect=0;image=https://fastapi.tiangolo.com/img/logo-margin/logo-teal.png;imageBackground=#FFF2CC;imageBorder=default;fillStyle=solid;fontSize=23;" parent="ryNngADE0ALBeisq_Oz2-1" vertex="1">
          <mxGeometry x="1516.956542502388" y="55.093999999999994" width="195.65743393823624" height="70.51004775549188" as="geometry" />
        </mxCell>
        <mxCell id="biQMx6R-Xg1VoFZKRa5t-36" value="" style="endArrow=classic;html=1;rounded=0;strokeWidth=5;startArrow=classic;startFill=0;flowAnimation=1;fontSize=23;" parent="ryNngADE0ALBeisq_Oz2-1" edge="1">
          <mxGeometry width="50" height="50" relative="1" as="geometry">
            <mxPoint x="1120.0030850047756" y="666.28472" as="sourcePoint" />
            <mxPoint x="1609.1466698503662" y="666.28472" as="targetPoint" />
          </mxGeometry>
        </mxCell>
        <mxCell id="KwUu93JF-PzpHf94GI73-3" value="" style="endArrow=classic;html=1;rounded=0;strokeWidth=5;startArrow=classic;startFill=0;flowAnimation=1;fontSize=23;" parent="ryNngADE0ALBeisq_Oz2-1" edge="1">
          <mxGeometry width="50" height="50" relative="1" as="geometry">
            <mxPoint x="1119.5230850047756" y="890.68472" as="sourcePoint" />
            <mxPoint x="1608.6666698503661" y="890.68472" as="targetPoint" />
          </mxGeometry>
        </mxCell>
      </root>
    </mxGraphModel>
  </diagram>
  <diagram id="hB58PrYakYw6BEvQQb8m" name="Error Codes">
    <mxGraphModel dx="2526" dy="-103" grid="1" gridSize="10" guides="1" tooltips="1" connect="1" arrows="1" fold="1" page="1" pageScale="1" pageWidth="1100" pageHeight="850" math="0" shadow="0">
      <root>
        <mxCell id="0" />
        <mxCell id="1" parent="0" />
        <mxCell id="j8jRsDvp5Zwr_lb-9yIc-1" value="&#xa;    &quot;error_codes&quot;: [&#xa;      {&#xa;        &quot;code&quot;: 400,&#xa;        &quot;message&quot;: &quot;Bad Request&quot;,&#xa;        &quot;error&quot;: &quot;invalid_request&quot;,&#xa;        &quot;description&quot;: &quot;The request is missing a required parameter, includes an unsupported parameter value, or is malformed.&quot;&#xa;      },&#xa;      {&#xa;        &quot;code&quot;: 400,&#xa;        &quot;message&quot;: &quot;Bad Request&quot;,&#xa;        &quot;error&quot;: &quot;invalid_grant&quot;,&#xa;        &quot;description&quot;: &quot;The provided authorization grant (e.g., authorization code, resource owner credentials) is invalid, expired, or revoked.&quot;&#xa;      },&#xa;      {&#xa;        &quot;code&quot;: 400,&#xa;        &quot;message&quot;: &quot;Bad Request&quot;,&#xa;        &quot;error&quot;: &quot;invalid_token&quot;,&#xa;        &quot;description&quot;: &quot;The access token provided is expired, revoked, malformed, or invalid for other reasons.&quot;&#xa;      },&#xa;      {&#xa;        &quot;code&quot;: 400,&#xa;        &quot;message&quot;: &quot;Bad Request&quot;,&#xa;        &quot;error&quot;: &quot;unsupported_grant_type&quot;,&#xa;        &quot;description&quot;: &quot;The authorization grant type is not supported by the authorization server.&quot;&#xa;      },&#xa;      {&#xa;        &quot;code&quot;: 400,&#xa;        &quot;message&quot;: &quot;Bad Request&quot;,&#xa;        &quot;error&quot;: &quot;invalid_scope&quot;,&#xa;        &quot;description&quot;: &quot;The requested scope is invalid, unknown, or malformed.&quot;&#xa;      },&#xa;      {&#xa;        &quot;code&quot;: 401,&#xa;        &quot;message&quot;: &quot;Unauthorized&quot;,&#xa;        &quot;error&quot;: &quot;invalid_client&quot;,&#xa;        &quot;description&quot;: &quot;Client authentication failed (e.g., incorrect client credentials or unsupported authentication method).&quot;&#xa;      },&#xa;      {&#xa;        &quot;code&quot;: 401,&#xa;        &quot;message&quot;: &quot;Unauthorized&quot;,&#xa;        &quot;error&quot;: &quot;invalid_grant&quot;,&#xa;        &quot;description&quot;: &quot;The provided authorization grant is invalid, expired, or revoked.&quot;&#xa;      },&#xa;      {&#xa;        &quot;code&quot;: 403,&#xa;        &quot;message&quot;: &quot;Forbidden&quot;,&#xa;        &quot;error&quot;: &quot;insufficient_scope&quot;,&#xa;        &quot;description&quot;: &quot;The request requires higher privileges than provided by the access token.&quot;&#xa;      },&#xa;      {&#xa;        &quot;code&quot;: 404,&#xa;        &quot;message&quot;: &quot;Not Found&quot;,&#xa;        &quot;error&quot;: &quot;not_found&quot;,&#xa;        &quot;description&quot;: &quot;The requested resource could not be found.&quot;&#xa;      },&#xa;      {&#xa;        &quot;code&quot;: 405,&#xa;        &quot;message&quot;: &quot;Method Not Allowed&quot;,&#xa;        &quot;error&quot;: &quot;method_not_allowed&quot;,&#xa;        &quot;description&quot;: &quot;The HTTP method is not allowed for this resource.&quot;&#xa;      },&#xa;      {&#xa;        &quot;code&quot;: 429,&#xa;        &quot;message&quot;: &quot;Too Many Requests&quot;,&#xa;        &quot;error&quot;: &quot;rate_limit_exceeded&quot;,&#xa;        &quot;description&quot;: &quot;The client has exceeded the allowed number of requests. Try again later.&quot;&#xa;      },&#xa;      {&#xa;        &quot;code&quot;: 500,&#xa;        &quot;message&quot;: &quot;Internal Server Error&quot;,&#xa;        &quot;error&quot;: &quot;server_error&quot;,&#xa;        &quot;description&quot;: &quot;The server encountered an unexpected condition that prevented it from fulfilling the request.&quot;&#xa;      }&#xa;    ]&#xa;  }&#xa;}" style="text;whiteSpace=wrap;fillColor=#f8cecc;strokeColor=#b85450;fontSize=17;strokeWidth=0;" vertex="1" parent="1">
          <mxGeometry x="-68.24" y="1700" width="808.24" height="1710" as="geometry" />
        </mxCell>
        <mxCell id="j8jRsDvp5Zwr_lb-9yIc-2" value="&lt;span style=&quot;background-color: rgb(213, 232, 212); font-size: 17px;&quot;&gt;&lt;span style=&quot;color: rgb(0, 0, 0); font-family: Helvetica; font-size: 17px; font-style: normal; font-variant-ligatures: normal; font-variant-caps: normal; font-weight: 400; letter-spacing: normal; orphans: 2; text-align: left; text-indent: 0px; text-transform: none; widows: 2; word-spacing: 0px; -webkit-text-stroke-width: 0px; white-space: normal; text-decoration-thickness: initial; text-decoration-style: initial; text-decoration-color: initial; float: none; display: inline !important;&quot;&gt;{&lt;/span&gt;&lt;br style=&quot;forced-color-adjust: none; padding: 0px; margin: 0px; color: rgb(0, 0, 0); font-family: Helvetica; font-size: 17px; font-style: normal; font-variant-ligatures: normal; font-variant-caps: normal; font-weight: 400; letter-spacing: normal; orphans: 2; text-align: left; text-indent: 0px; text-transform: none; widows: 2; word-spacing: 0px; -webkit-text-stroke-width: 0px; white-space: normal; text-decoration-thickness: initial; text-decoration-style: initial; text-decoration-color: initial;&quot;&gt;&lt;span style=&quot;color: rgb(0, 0, 0); font-family: Helvetica; font-size: 17px; font-style: normal; font-variant-ligatures: normal; font-variant-caps: normal; font-weight: 400; letter-spacing: normal; orphans: 2; text-align: left; text-indent: 0px; text-transform: none; widows: 2; word-spacing: 0px; -webkit-text-stroke-width: 0px; white-space: normal; text-decoration-thickness: initial; text-decoration-style: initial; text-decoration-color: initial; float: none; display: inline !important;&quot;&gt;&amp;nbsp; &quot;status_codes&quot;: {&lt;/span&gt;&lt;br style=&quot;forced-color-adjust: none; padding: 0px; margin: 0px; color: rgb(0, 0, 0); font-family: Helvetica; font-size: 17px; font-style: normal; font-variant-ligatures: normal; font-variant-caps: normal; font-weight: 400; letter-spacing: normal; orphans: 2; text-align: left; text-indent: 0px; text-transform: none; widows: 2; word-spacing: 0px; -webkit-text-stroke-width: 0px; white-space: normal; text-decoration-thickness: initial; text-decoration-style: initial; text-decoration-color: initial;&quot;&gt;&lt;span style=&quot;color: rgb(0, 0, 0); font-family: Helvetica; font-size: 17px; font-style: normal; font-variant-ligatures: normal; font-variant-caps: normal; font-weight: 400; letter-spacing: normal; orphans: 2; text-align: left; text-indent: 0px; text-transform: none; widows: 2; word-spacing: 0px; -webkit-text-stroke-width: 0px; white-space: normal; text-decoration-thickness: initial; text-decoration-style: initial; text-decoration-color: initial; float: none; display: inline !important;&quot;&gt;&amp;nbsp; &amp;nbsp; &quot;success_codes&quot;: [&lt;/span&gt;&lt;br style=&quot;forced-color-adjust: none; padding: 0px; margin: 0px; color: rgb(0, 0, 0); font-family: Helvetica; font-size: 17px; font-style: normal; font-variant-ligatures: normal; font-variant-caps: normal; font-weight: 400; letter-spacing: normal; orphans: 2; text-align: left; text-indent: 0px; text-transform: none; widows: 2; word-spacing: 0px; -webkit-text-stroke-width: 0px; white-space: normal; text-decoration-thickness: initial; text-decoration-style: initial; text-decoration-color: initial;&quot;&gt;&lt;span style=&quot;color: rgb(0, 0, 0); font-family: Helvetica; font-size: 17px; font-style: normal; font-variant-ligatures: normal; font-variant-caps: normal; font-weight: 400; letter-spacing: normal; orphans: 2; text-align: left; text-indent: 0px; text-transform: none; widows: 2; word-spacing: 0px; -webkit-text-stroke-width: 0px; white-space: normal; text-decoration-thickness: initial; text-decoration-style: initial; text-decoration-color: initial; float: none; display: inline !important;&quot;&gt;&amp;nbsp; &amp;nbsp; &amp;nbsp; {&lt;/span&gt;&lt;br style=&quot;forced-color-adjust: none; padding: 0px; margin: 0px; color: rgb(0, 0, 0); font-family: Helvetica; font-size: 17px; font-style: normal; font-variant-ligatures: normal; font-variant-caps: normal; font-weight: 400; letter-spacing: normal; orphans: 2; text-align: left; text-indent: 0px; text-transform: none; widows: 2; word-spacing: 0px; -webkit-text-stroke-width: 0px; white-space: normal; text-decoration-thickness: initial; text-decoration-style: initial; text-decoration-color: initial;&quot;&gt;&lt;span style=&quot;color: rgb(0, 0, 0); font-family: Helvetica; font-size: 17px; font-style: normal; font-variant-ligatures: normal; font-variant-caps: normal; font-weight: 400; letter-spacing: normal; orphans: 2; text-align: left; text-indent: 0px; text-transform: none; widows: 2; word-spacing: 0px; -webkit-text-stroke-width: 0px; white-space: normal; text-decoration-thickness: initial; text-decoration-style: initial; text-decoration-color: initial; float: none; display: inline !important;&quot;&gt;&amp;nbsp; &amp;nbsp; &amp;nbsp; &amp;nbsp; &quot;code&quot;: 200,&lt;/span&gt;&lt;br style=&quot;forced-color-adjust: none; padding: 0px; margin: 0px; color: rgb(0, 0, 0); font-family: Helvetica; font-size: 17px; font-style: normal; font-variant-ligatures: normal; font-variant-caps: normal; font-weight: 400; letter-spacing: normal; orphans: 2; text-align: left; text-indent: 0px; text-transform: none; widows: 2; word-spacing: 0px; -webkit-text-stroke-width: 0px; white-space: normal; text-decoration-thickness: initial; text-decoration-style: initial; text-decoration-color: initial;&quot;&gt;&lt;span style=&quot;color: rgb(0, 0, 0); font-family: Helvetica; font-size: 17px; font-style: normal; font-variant-ligatures: normal; font-variant-caps: normal; font-weight: 400; letter-spacing: normal; orphans: 2; text-align: left; text-indent: 0px; text-transform: none; widows: 2; word-spacing: 0px; -webkit-text-stroke-width: 0px; white-space: normal; text-decoration-thickness: initial; text-decoration-style: initial; text-decoration-color: initial; float: none; display: inline !important;&quot;&gt;&amp;nbsp; &amp;nbsp; &amp;nbsp; &amp;nbsp; &quot;message&quot;: &quot;OK&quot;,&lt;/span&gt;&lt;br style=&quot;forced-color-adjust: none; padding: 0px; margin: 0px; color: rgb(0, 0, 0); font-family: Helvetica; font-size: 17px; font-style: normal; font-variant-ligatures: normal; font-variant-caps: normal; font-weight: 400; letter-spacing: normal; orphans: 2; text-align: left; text-indent: 0px; text-transform: none; widows: 2; word-spacing: 0px; -webkit-text-stroke-width: 0px; white-space: normal; text-decoration-thickness: initial; text-decoration-style: initial; text-decoration-color: initial;&quot;&gt;&lt;span style=&quot;color: rgb(0, 0, 0); font-family: Helvetica; font-size: 17px; font-style: normal; font-variant-ligatures: normal; font-variant-caps: normal; font-weight: 400; letter-spacing: normal; orphans: 2; text-align: left; text-indent: 0px; text-transform: none; widows: 2; word-spacing: 0px; -webkit-text-stroke-width: 0px; white-space: normal; text-decoration-thickness: initial; text-decoration-style: initial; text-decoration-color: initial; float: none; display: inline !important;&quot;&gt;&amp;nbsp; &amp;nbsp; &amp;nbsp; &amp;nbsp; &quot;description&quot;: &quot;The request was successful.&quot;&lt;/span&gt;&lt;br style=&quot;forced-color-adjust: none; padding: 0px; margin: 0px; color: rgb(0, 0, 0); font-family: Helvetica; font-size: 17px; font-style: normal; font-variant-ligatures: normal; font-variant-caps: normal; font-weight: 400; letter-spacing: normal; orphans: 2; text-align: left; text-indent: 0px; text-transform: none; widows: 2; word-spacing: 0px; -webkit-text-stroke-width: 0px; white-space: normal; text-decoration-thickness: initial; text-decoration-style: initial; text-decoration-color: initial;&quot;&gt;&lt;span style=&quot;color: rgb(0, 0, 0); font-family: Helvetica; font-size: 17px; font-style: normal; font-variant-ligatures: normal; font-variant-caps: normal; font-weight: 400; letter-spacing: normal; orphans: 2; text-align: left; text-indent: 0px; text-transform: none; widows: 2; word-spacing: 0px; -webkit-text-stroke-width: 0px; white-space: normal; text-decoration-thickness: initial; text-decoration-style: initial; text-decoration-color: initial; float: none; display: inline !important;&quot;&gt;&amp;nbsp; &amp;nbsp; &amp;nbsp; },&lt;/span&gt;&lt;br style=&quot;forced-color-adjust: none; padding: 0px; margin: 0px; color: rgb(0, 0, 0); font-family: Helvetica; font-size: 17px; font-style: normal; font-variant-ligatures: normal; font-variant-caps: normal; font-weight: 400; letter-spacing: normal; orphans: 2; text-align: left; text-indent: 0px; text-transform: none; widows: 2; word-spacing: 0px; -webkit-text-stroke-width: 0px; white-space: normal; text-decoration-thickness: initial; text-decoration-style: initial; text-decoration-color: initial;&quot;&gt;&lt;span style=&quot;color: rgb(0, 0, 0); font-family: Helvetica; font-size: 17px; font-style: normal; font-variant-ligatures: normal; font-variant-caps: normal; font-weight: 400; letter-spacing: normal; orphans: 2; text-align: left; text-indent: 0px; text-transform: none; widows: 2; word-spacing: 0px; -webkit-text-stroke-width: 0px; white-space: normal; text-decoration-thickness: initial; text-decoration-style: initial; text-decoration-color: initial; float: none; display: inline !important;&quot;&gt;&amp;nbsp; &amp;nbsp; &amp;nbsp; {&lt;/span&gt;&lt;br style=&quot;forced-color-adjust: none; padding: 0px; margin: 0px; color: rgb(0, 0, 0); font-family: Helvetica; font-size: 17px; font-style: normal; font-variant-ligatures: normal; font-variant-caps: normal; font-weight: 400; letter-spacing: normal; orphans: 2; text-align: left; text-indent: 0px; text-transform: none; widows: 2; word-spacing: 0px; -webkit-text-stroke-width: 0px; white-space: normal; text-decoration-thickness: initial; text-decoration-style: initial; text-decoration-color: initial;&quot;&gt;&lt;span style=&quot;color: rgb(0, 0, 0); font-family: Helvetica; font-size: 17px; font-style: normal; font-variant-ligatures: normal; font-variant-caps: normal; font-weight: 400; letter-spacing: normal; orphans: 2; text-align: left; text-indent: 0px; text-transform: none; widows: 2; word-spacing: 0px; -webkit-text-stroke-width: 0px; white-space: normal; text-decoration-thickness: initial; text-decoration-style: initial; text-decoration-color: initial; float: none; display: inline !important;&quot;&gt;&amp;nbsp; &amp;nbsp; &amp;nbsp; &amp;nbsp; &quot;code&quot;: 201,&lt;/span&gt;&lt;br style=&quot;forced-color-adjust: none; padding: 0px; margin: 0px; color: rgb(0, 0, 0); font-family: Helvetica; font-size: 17px; font-style: normal; font-variant-ligatures: normal; font-variant-caps: normal; font-weight: 400; letter-spacing: normal; orphans: 2; text-align: left; text-indent: 0px; text-transform: none; widows: 2; word-spacing: 0px; -webkit-text-stroke-width: 0px; white-space: normal; text-decoration-thickness: initial; text-decoration-style: initial; text-decoration-color: initial;&quot;&gt;&lt;span style=&quot;color: rgb(0, 0, 0); font-family: Helvetica; font-size: 17px; font-style: normal; font-variant-ligatures: normal; font-variant-caps: normal; font-weight: 400; letter-spacing: normal; orphans: 2; text-align: left; text-indent: 0px; text-transform: none; widows: 2; word-spacing: 0px; -webkit-text-stroke-width: 0px; white-space: normal; text-decoration-thickness: initial; text-decoration-style: initial; text-decoration-color: initial; float: none; display: inline !important;&quot;&gt;&amp;nbsp; &amp;nbsp; &amp;nbsp; &amp;nbsp; &quot;message&quot;: &quot;Created&quot;,&lt;/span&gt;&lt;br style=&quot;forced-color-adjust: none; padding: 0px; margin: 0px; color: rgb(0, 0, 0); font-family: Helvetica; font-size: 17px; font-style: normal; font-variant-ligatures: normal; font-variant-caps: normal; font-weight: 400; letter-spacing: normal; orphans: 2; text-align: left; text-indent: 0px; text-transform: none; widows: 2; word-spacing: 0px; -webkit-text-stroke-width: 0px; white-space: normal; text-decoration-thickness: initial; text-decoration-style: initial; text-decoration-color: initial;&quot;&gt;&lt;span style=&quot;color: rgb(0, 0, 0); font-family: Helvetica; font-size: 17px; font-style: normal; font-variant-ligatures: normal; font-variant-caps: normal; font-weight: 400; letter-spacing: normal; orphans: 2; text-align: left; text-indent: 0px; text-transform: none; widows: 2; word-spacing: 0px; -webkit-text-stroke-width: 0px; white-space: normal; text-decoration-thickness: initial; text-decoration-style: initial; text-decoration-color: initial; float: none; display: inline !important;&quot;&gt;&amp;nbsp; &amp;nbsp; &amp;nbsp; &amp;nbsp; &quot;description&quot;: &quot;The request was successful, and a new resource was created.&quot;&lt;/span&gt;&lt;br style=&quot;forced-color-adjust: none; padding: 0px; margin: 0px; color: rgb(0, 0, 0); font-family: Helvetica; font-size: 17px; font-style: normal; font-variant-ligatures: normal; font-variant-caps: normal; font-weight: 400; letter-spacing: normal; orphans: 2; text-align: left; text-indent: 0px; text-transform: none; widows: 2; word-spacing: 0px; -webkit-text-stroke-width: 0px; white-space: normal; text-decoration-thickness: initial; text-decoration-style: initial; text-decoration-color: initial;&quot;&gt;&lt;span style=&quot;color: rgb(0, 0, 0); font-family: Helvetica; font-size: 17px; font-style: normal; font-variant-ligatures: normal; font-variant-caps: normal; font-weight: 400; letter-spacing: normal; orphans: 2; text-align: left; text-indent: 0px; text-transform: none; widows: 2; word-spacing: 0px; -webkit-text-stroke-width: 0px; white-space: normal; text-decoration-thickness: initial; text-decoration-style: initial; text-decoration-color: initial; float: none; display: inline !important;&quot;&gt;&amp;nbsp; &amp;nbsp; &amp;nbsp; },&lt;/span&gt;&lt;br style=&quot;forced-color-adjust: none; padding: 0px; margin: 0px; color: rgb(0, 0, 0); font-family: Helvetica; font-size: 17px; font-style: normal; font-variant-ligatures: normal; font-variant-caps: normal; font-weight: 400; letter-spacing: normal; orphans: 2; text-align: left; text-indent: 0px; text-transform: none; widows: 2; word-spacing: 0px; -webkit-text-stroke-width: 0px; white-space: normal; text-decoration-thickness: initial; text-decoration-style: initial; text-decoration-color: initial;&quot;&gt;&lt;span style=&quot;color: rgb(0, 0, 0); font-family: Helvetica; font-size: 17px; font-style: normal; font-variant-ligatures: normal; font-variant-caps: normal; font-weight: 400; letter-spacing: normal; orphans: 2; text-align: left; text-indent: 0px; text-transform: none; widows: 2; word-spacing: 0px; -webkit-text-stroke-width: 0px; white-space: normal; text-decoration-thickness: initial; text-decoration-style: initial; text-decoration-color: initial; float: none; display: inline !important;&quot;&gt;&amp;nbsp; &amp;nbsp; &amp;nbsp; {&lt;/span&gt;&lt;br style=&quot;forced-color-adjust: none; padding: 0px; margin: 0px; color: rgb(0, 0, 0); font-family: Helvetica; font-size: 17px; font-style: normal; font-variant-ligatures: normal; font-variant-caps: normal; font-weight: 400; letter-spacing: normal; orphans: 2; text-align: left; text-indent: 0px; text-transform: none; widows: 2; word-spacing: 0px; -webkit-text-stroke-width: 0px; white-space: normal; text-decoration-thickness: initial; text-decoration-style: initial; text-decoration-color: initial;&quot;&gt;&lt;span style=&quot;color: rgb(0, 0, 0); font-family: Helvetica; font-size: 17px; font-style: normal; font-variant-ligatures: normal; font-variant-caps: normal; font-weight: 400; letter-spacing: normal; orphans: 2; text-align: left; text-indent: 0px; text-transform: none; widows: 2; word-spacing: 0px; -webkit-text-stroke-width: 0px; white-space: normal; text-decoration-thickness: initial; text-decoration-style: initial; text-decoration-color: initial; float: none; display: inline !important;&quot;&gt;&amp;nbsp; &amp;nbsp; &amp;nbsp; &amp;nbsp; &quot;code&quot;: 204,&lt;/span&gt;&lt;br style=&quot;forced-color-adjust: none; padding: 0px; margin: 0px; color: rgb(0, 0, 0); font-family: Helvetica; font-size: 17px; font-style: normal; font-variant-ligatures: normal; font-variant-caps: normal; font-weight: 400; letter-spacing: normal; orphans: 2; text-align: left; text-indent: 0px; text-transform: none; widows: 2; word-spacing: 0px; -webkit-text-stroke-width: 0px; white-space: normal; text-decoration-thickness: initial; text-decoration-style: initial; text-decoration-color: initial;&quot;&gt;&lt;span style=&quot;color: rgb(0, 0, 0); font-family: Helvetica; font-size: 17px; font-style: normal; font-variant-ligatures: normal; font-variant-caps: normal; font-weight: 400; letter-spacing: normal; orphans: 2; text-align: left; text-indent: 0px; text-transform: none; widows: 2; word-spacing: 0px; -webkit-text-stroke-width: 0px; white-space: normal; text-decoration-thickness: initial; text-decoration-style: initial; text-decoration-color: initial; float: none; display: inline !important;&quot;&gt;&amp;nbsp; &amp;nbsp; &amp;nbsp; &amp;nbsp; &quot;message&quot;: &quot;No Content&quot;,&lt;/span&gt;&lt;br style=&quot;forced-color-adjust: none; padding: 0px; margin: 0px; color: rgb(0, 0, 0); font-family: Helvetica; font-size: 17px; font-style: normal; font-variant-ligatures: normal; font-variant-caps: normal; font-weight: 400; letter-spacing: normal; orphans: 2; text-align: left; text-indent: 0px; text-transform: none; widows: 2; word-spacing: 0px; -webkit-text-stroke-width: 0px; white-space: normal; text-decoration-thickness: initial; text-decoration-style: initial; text-decoration-color: initial;&quot;&gt;&lt;span style=&quot;color: rgb(0, 0, 0); font-family: Helvetica; font-size: 17px; font-style: normal; font-variant-ligatures: normal; font-variant-caps: normal; font-weight: 400; letter-spacing: normal; orphans: 2; text-align: left; text-indent: 0px; text-transform: none; widows: 2; word-spacing: 0px; -webkit-text-stroke-width: 0px; white-space: normal; text-decoration-thickness: initial; text-decoration-style: initial; text-decoration-color: initial; float: none; display: inline !important;&quot;&gt;&amp;nbsp; &amp;nbsp; &amp;nbsp; &amp;nbsp; &quot;description&quot;: &quot;The request was successful, but there is no content to send in the response.&quot;&lt;/span&gt;&lt;br style=&quot;forced-color-adjust: none; padding: 0px; margin: 0px; color: rgb(0, 0, 0); font-family: Helvetica; font-size: 17px; font-style: normal; font-variant-ligatures: normal; font-variant-caps: normal; font-weight: 400; letter-spacing: normal; orphans: 2; text-align: left; text-indent: 0px; text-transform: none; widows: 2; word-spacing: 0px; -webkit-text-stroke-width: 0px; white-space: normal; text-decoration-thickness: initial; text-decoration-style: initial; text-decoration-color: initial;&quot;&gt;&lt;span style=&quot;color: rgb(0, 0, 0); font-family: Helvetica; font-size: 17px; font-style: normal; font-variant-ligatures: normal; font-variant-caps: normal; font-weight: 400; letter-spacing: normal; orphans: 2; text-align: left; text-indent: 0px; text-transform: none; widows: 2; word-spacing: 0px; -webkit-text-stroke-width: 0px; white-space: normal; text-decoration-thickness: initial; text-decoration-style: initial; text-decoration-color: initial; float: none; display: inline !important;&quot;&gt;&amp;nbsp; &amp;nbsp; &amp;nbsp; }&lt;/span&gt;&lt;br style=&quot;forced-color-adjust: none; padding: 0px; margin: 0px; color: rgb(0, 0, 0); font-family: Helvetica; font-size: 17px; font-style: normal; font-variant-ligatures: normal; font-variant-caps: normal; font-weight: 400; letter-spacing: normal; orphans: 2; text-align: left; text-indent: 0px; text-transform: none; widows: 2; word-spacing: 0px; -webkit-text-stroke-width: 0px; white-space: normal; text-decoration-thickness: initial; text-decoration-style: initial; text-decoration-color: initial;&quot;&gt;&lt;span style=&quot;color: rgb(0, 0, 0); font-family: Helvetica; font-size: 17px; font-style: normal; font-variant-ligatures: normal; font-variant-caps: normal; font-weight: 400; letter-spacing: normal; orphans: 2; text-align: left; text-indent: 0px; text-transform: none; widows: 2; word-spacing: 0px; -webkit-text-stroke-width: 0px; white-space: normal; text-decoration-thickness: initial; text-decoration-style: initial; text-decoration-color: initial; float: none; display: inline !important;&quot;&gt;&amp;nbsp; &amp;nbsp; ],}&lt;/span&gt;&lt;/span&gt;" style="text;whiteSpace=wrap;html=1;fillColor=#d5e8d4;strokeColor=#82b366;strokeWidth=0;fontSize=17;" vertex="1" parent="1">
          <mxGeometry x="761.76" y="1700" width="618.24" height="520" as="geometry" />
        </mxCell>
        <mxCell id="j8jRsDvp5Zwr_lb-9yIc-3" value="&lt;h1 style=&quot;margin-top: 0px; font-size: 20px;&quot;&gt;Global Error Codes and Success Codes&lt;/h1&gt;" style="text;html=1;whiteSpace=wrap;overflow=hidden;rounded=0;strokeWidth=0;fontSize=20;fontStyle=1" vertex="1" parent="1">
          <mxGeometry x="471.76" y="1630" width="470" height="50" as="geometry" />
        </mxCell>
      </root>
    </mxGraphModel>
  </diagram>
  <diagram id="h9LlURFJabNPe9dUzOSX" name="Page-3">
    <mxGraphModel dx="3294" dy="1149" grid="1" gridSize="10" guides="1" tooltips="1" connect="1" arrows="1" fold="1" page="1" pageScale="1" pageWidth="1100" pageHeight="850" math="0" shadow="0">
      <root>
        <mxCell id="0" />
        <mxCell id="1" parent="0" />
        <mxCell id="ocHO1-lxkFiU99r_c2Z1-22" value="" style="group;fontSize=17;" vertex="1" connectable="0" parent="1">
          <mxGeometry x="-60" y="30" width="1720" height="410" as="geometry" />
        </mxCell>
        <mxCell id="ocHO1-lxkFiU99r_c2Z1-8" value="" style="rounded=0;whiteSpace=wrap;html=1;fillColor=#f8cecc;strokeColor=#b85450;fontSize=17;" vertex="1" parent="ocHO1-lxkFiU99r_c2Z1-22">
          <mxGeometry x="160" y="14.14" width="343.13" height="388.79" as="geometry" />
        </mxCell>
        <mxCell id="SsUAwCfb7mElzVYY0lTj-9" value="" style="rounded=0;whiteSpace=wrap;html=1;fillColor=#dae8fc;strokeColor=#6c8ebf;fontSize=17;" vertex="1" parent="ocHO1-lxkFiU99r_c2Z1-22">
          <mxGeometry x="901.09" y="21.21" width="327.62" height="388.79" as="geometry" />
        </mxCell>
        <mxCell id="SsUAwCfb7mElzVYY0lTj-1" value="" style="shape=image;verticalLabelPosition=bottom;labelBackgroundColor=default;verticalAlign=top;aspect=fixed;imageAspect=0;image=https://miro.medium.com/max/600/1*rxaaiY8J_jR0Cy57jnWRzA.jpeg;clipPath=inset(13.21% 26.67% 13.21% 27.67%);fontSize=17;" vertex="1" parent="ocHO1-lxkFiU99r_c2Z1-22">
          <mxGeometry x="603.1466666666666" width="82.20897959183674" height="93.60544217687075" as="geometry" />
        </mxCell>
        <mxCell id="SsUAwCfb7mElzVYY0lTj-12" style="edgeStyle=orthogonalEdgeStyle;rounded=0;orthogonalLoop=1;jettySize=auto;html=1;fontSize=17;flowAnimation=1;strokeWidth=3;" edge="1" parent="ocHO1-lxkFiU99r_c2Z1-22" source="SsUAwCfb7mElzVYY0lTj-2" target="SsUAwCfb7mElzVYY0lTj-3">
          <mxGeometry relative="1" as="geometry" />
        </mxCell>
        <mxCell id="ocHO1-lxkFiU99r_c2Z1-5" value="CI&amp;amp;CD&lt;div style=&quot;font-size: 17px;&quot;&gt;1. Unit Test&lt;/div&gt;&lt;div style=&quot;font-size: 17px;&quot;&gt;2. Build Image&lt;/div&gt;&lt;div style=&quot;font-size: 17px;&quot;&gt;3. Push Image&lt;/div&gt;&lt;div style=&quot;font-size: 17px;&quot;&gt;to registry&lt;/div&gt;" style="edgeLabel;html=1;align=center;verticalAlign=middle;resizable=0;points=[];fontSize=17;" vertex="1" connectable="0" parent="SsUAwCfb7mElzVYY0lTj-12">
          <mxGeometry x="-0.0186" y="-2" relative="1" as="geometry">
            <mxPoint as="offset" />
          </mxGeometry>
        </mxCell>
        <mxCell id="SsUAwCfb7mElzVYY0lTj-2" value="&lt;div style=&quot;font-size: 17px;&quot;&gt;GitHub&lt;/div&gt;" style="dashed=0;outlineConnect=0;html=1;align=center;labelPosition=center;verticalLabelPosition=bottom;verticalAlign=top;shape=mxgraph.weblogos.github;fontSize=17;" vertex="1" parent="ocHO1-lxkFiU99r_c2Z1-22">
          <mxGeometry x="550" y="196.66" width="70.2" height="72.76" as="geometry" />
        </mxCell>
        <mxCell id="ocHO1-lxkFiU99r_c2Z1-6" style="edgeStyle=orthogonalEdgeStyle;rounded=0;orthogonalLoop=1;jettySize=auto;html=1;fontSize=17;flowAnimation=1;strokeWidth=3;" edge="1" parent="ocHO1-lxkFiU99r_c2Z1-22" source="SsUAwCfb7mElzVYY0lTj-3" target="SsUAwCfb7mElzVYY0lTj-4">
          <mxGeometry relative="1" as="geometry" />
        </mxCell>
        <mxCell id="SsUAwCfb7mElzVYY0lTj-3" value="image&lt;div&gt;push&lt;/div&gt;" style="image;sketch=0;aspect=fixed;html=1;points=[];align=center;fontSize=17;image=img/lib/mscae/Docker.svg;" vertex="1" parent="ocHO1-lxkFiU99r_c2Z1-22">
          <mxGeometry x="800" y="206.95" width="69.78" height="57.21" as="geometry" />
        </mxCell>
        <mxCell id="SsUAwCfb7mElzVYY0lTj-14" style="edgeStyle=orthogonalEdgeStyle;rounded=0;orthogonalLoop=1;jettySize=auto;html=1;fontSize=17;flowAnimation=1;strokeWidth=3;" edge="1" parent="ocHO1-lxkFiU99r_c2Z1-22" source="SsUAwCfb7mElzVYY0lTj-4" target="SsUAwCfb7mElzVYY0lTj-6">
          <mxGeometry relative="1" as="geometry">
            <Array as="points">
              <mxPoint x="1010" y="93" />
            </Array>
          </mxGeometry>
        </mxCell>
        <mxCell id="SsUAwCfb7mElzVYY0lTj-4" value="Container Registry" style="image;aspect=fixed;html=1;points=[];align=center;fontSize=17;image=img/lib/azure2/containers/Container_Registries.svg;" vertex="1" parent="ocHO1-lxkFiU99r_c2Z1-22">
          <mxGeometry x="960.0048299319727" y="192.78344827586207" width="79.56462585034014" height="71.37414965986395" as="geometry" />
        </mxCell>
        <mxCell id="SsUAwCfb7mElzVYY0lTj-15" style="edgeStyle=orthogonalEdgeStyle;rounded=0;orthogonalLoop=1;jettySize=auto;html=1;startArrow=classic;startFill=1;fontSize=17;flowAnimation=1;strokeWidth=3;" edge="1" parent="ocHO1-lxkFiU99r_c2Z1-22" source="SsUAwCfb7mElzVYY0lTj-6" target="SsUAwCfb7mElzVYY0lTj-7">
          <mxGeometry relative="1" as="geometry" />
        </mxCell>
        <mxCell id="ocHO1-lxkFiU99r_c2Z1-15" style="edgeStyle=orthogonalEdgeStyle;rounded=0;orthogonalLoop=1;jettySize=auto;html=1;entryX=0;entryY=0.5;entryDx=0;entryDy=0;fontSize=17;flowAnimation=1;strokeWidth=3;" edge="1" parent="ocHO1-lxkFiU99r_c2Z1-22" source="SsUAwCfb7mElzVYY0lTj-6" target="ocHO1-lxkFiU99r_c2Z1-13">
          <mxGeometry relative="1" as="geometry">
            <Array as="points">
              <mxPoint x="1252" y="90" />
              <mxPoint x="1252" y="286" />
              <mxPoint x="1275" y="286" />
            </Array>
          </mxGeometry>
        </mxCell>
        <mxCell id="ocHO1-lxkFiU99r_c2Z1-16" value="Monitoring" style="edgeLabel;html=1;align=center;verticalAlign=middle;resizable=0;points=[];fontSize=17;" vertex="1" connectable="0" parent="ocHO1-lxkFiU99r_c2Z1-15">
          <mxGeometry x="-0.0089" y="1" relative="1" as="geometry">
            <mxPoint x="22" y="3" as="offset" />
          </mxGeometry>
        </mxCell>
        <mxCell id="ocHO1-lxkFiU99r_c2Z1-23" style="edgeStyle=orthogonalEdgeStyle;rounded=0;orthogonalLoop=1;jettySize=auto;html=1;strokeWidth=3;flowAnimation=1;" edge="1" parent="ocHO1-lxkFiU99r_c2Z1-22" source="SsUAwCfb7mElzVYY0lTj-6" target="SsUAwCfb7mElzVYY0lTj-16">
          <mxGeometry relative="1" as="geometry">
            <Array as="points">
              <mxPoint x="1250" y="90" />
              <mxPoint x="1250" y="112" />
            </Array>
          </mxGeometry>
        </mxCell>
        <mxCell id="SsUAwCfb7mElzVYY0lTj-6" value="WebApp" style="image;aspect=fixed;html=1;points=[];align=center;fontSize=17;image=img/lib/azure2/app_services/App_Services.svg;" vertex="1" parent="ocHO1-lxkFiU99r_c2Z1-22">
          <mxGeometry x="1088.3036734693878" y="45.241379310344826" width="79.56462585034014" height="79.56462585034014" as="geometry" />
        </mxCell>
        <mxCell id="SsUAwCfb7mElzVYY0lTj-7" value="PostGre&amp;nbsp;&lt;div style=&quot;font-size: 17px;&quot;&gt;SQL Database&lt;/div&gt;" style="image;aspect=fixed;html=1;points=[];align=center;fontSize=17;image=img/lib/azure2/databases/Azure_Database_PostgreSQL_Server.svg;" vertex="1" parent="ocHO1-lxkFiU99r_c2Z1-22">
          <mxGeometry x="1100.0043537414965" y="240.3448275862069" width="56.16326530612245" height="74.8843537414966" as="geometry" />
        </mxCell>
        <mxCell id="SsUAwCfb7mElzVYY0lTj-10" style="edgeStyle=orthogonalEdgeStyle;rounded=0;orthogonalLoop=1;jettySize=auto;html=1;entryX=0;entryY=0.5;entryDx=0;entryDy=0;fontSize=17;flowAnimation=1;strokeWidth=3;" edge="1" parent="ocHO1-lxkFiU99r_c2Z1-22" source="SsUAwCfb7mElzVYY0lTj-8" target="SsUAwCfb7mElzVYY0lTj-1">
          <mxGeometry relative="1" as="geometry">
            <Array as="points">
              <mxPoint x="386.1224489795918" y="56.55172413793103" />
            </Array>
          </mxGeometry>
        </mxCell>
        <mxCell id="ocHO1-lxkFiU99r_c2Z1-3" value="Infrastructure as Code" style="edgeLabel;html=1;align=center;verticalAlign=middle;resizable=0;points=[];fontSize=17;" vertex="1" connectable="0" parent="SsUAwCfb7mElzVYY0lTj-10">
          <mxGeometry x="-0.0968" relative="1" as="geometry">
            <mxPoint as="offset" />
          </mxGeometry>
        </mxCell>
        <mxCell id="SsUAwCfb7mElzVYY0lTj-11" style="edgeStyle=orthogonalEdgeStyle;rounded=0;orthogonalLoop=1;jettySize=auto;html=1;fontSize=17;flowAnimation=1;strokeWidth=3;" edge="1" parent="ocHO1-lxkFiU99r_c2Z1-22" source="SsUAwCfb7mElzVYY0lTj-8" target="SsUAwCfb7mElzVYY0lTj-2">
          <mxGeometry relative="1" as="geometry">
            <Array as="points">
              <mxPoint x="520" y="78" />
              <mxPoint x="520" y="226" />
            </Array>
          </mxGeometry>
        </mxCell>
        <mxCell id="ocHO1-lxkFiU99r_c2Z1-7" value="versioned&lt;div style=&quot;font-size: 17px;&quot;&gt;code&lt;/div&gt;" style="edgeLabel;html=1;align=center;verticalAlign=middle;resizable=0;points=[];fontSize=17;" vertex="1" connectable="0" parent="SsUAwCfb7mElzVYY0lTj-11">
          <mxGeometry x="0.1781" relative="1" as="geometry">
            <mxPoint x="30" y="5" as="offset" />
          </mxGeometry>
        </mxCell>
        <mxCell id="SsUAwCfb7mElzVYY0lTj-8" value="Windows&lt;div style=&quot;font-size: 17px;&quot;&gt;Subsystem&lt;/div&gt;&lt;div style=&quot;font-size: 17px;&quot;&gt;for Linux&lt;/div&gt;" style="image;sketch=0;aspect=fixed;html=1;points=[];align=center;fontSize=17;image=img/lib/mscae/VM_Linux.svg;" vertex="1" parent="ocHO1-lxkFiU99r_c2Z1-22">
          <mxGeometry x="319.9990476190476" y="35.3448275862069" width="76.31183673469387" height="70.20408163265306" as="geometry" />
        </mxCell>
        <mxCell id="ocHO1-lxkFiU99r_c2Z1-21" style="edgeStyle=orthogonalEdgeStyle;rounded=0;orthogonalLoop=1;jettySize=auto;html=1;entryX=0;entryY=0.5;entryDx=0;entryDy=0;fontSize=17;flowAnimation=1;strokeWidth=3;" edge="1" parent="ocHO1-lxkFiU99r_c2Z1-22" source="SsUAwCfb7mElzVYY0lTj-16" target="ocHO1-lxkFiU99r_c2Z1-17">
          <mxGeometry relative="1" as="geometry">
            <Array as="points">
              <mxPoint x="1567.891156462585" y="93.3103448275862" />
              <mxPoint x="1567.891156462585" y="186.6206896551724" />
            </Array>
          </mxGeometry>
        </mxCell>
        <mxCell id="SsUAwCfb7mElzVYY0lTj-16" value="Users" style="image;aspect=fixed;perimeter=ellipsePerimeter;html=1;align=center;shadow=0;dashed=0;spacingTop=3;image=img/lib/active_directory/users.svg;fontSize=17;" vertex="1" parent="ocHO1-lxkFiU99r_c2Z1-22">
          <mxGeometry x="1359.9977551020409" y="59.99655172413793" width="68.72979591836734" height="104.1360544217687" as="geometry" />
        </mxCell>
        <mxCell id="SsUAwCfb7mElzVYY0lTj-18" style="edgeStyle=orthogonalEdgeStyle;rounded=0;orthogonalLoop=1;jettySize=auto;html=1;entryX=0.014;entryY=0.095;entryDx=0;entryDy=0;entryPerimeter=0;fontSize=17;flowAnimation=1;strokeWidth=3;" edge="1" parent="ocHO1-lxkFiU99r_c2Z1-22" source="SsUAwCfb7mElzVYY0lTj-1" target="SsUAwCfb7mElzVYY0lTj-9">
          <mxGeometry relative="1" as="geometry" />
        </mxCell>
        <mxCell id="ocHO1-lxkFiU99r_c2Z1-4" value="SSO authentication&amp;nbsp;&lt;div&gt;Azure CLI&lt;/div&gt;" style="edgeLabel;html=1;align=center;verticalAlign=middle;resizable=0;points=[];fontSize=17;" vertex="1" connectable="0" parent="SsUAwCfb7mElzVYY0lTj-18">
          <mxGeometry x="-0.205" y="-2" relative="1" as="geometry">
            <mxPoint as="offset" />
          </mxGeometry>
        </mxCell>
        <mxCell id="SsUAwCfb7mElzVYY0lTj-19" value="VS Code" style="shape=image;html=1;verticalAlign=top;verticalLabelPosition=bottom;labelBackgroundColor=#ffffff;imageAspect=0;aspect=fixed;image=https://cdn4.iconfinder.com/data/icons/logos-brands-7/512/visual_studio-128.png;imageBackground=default;fontSize=17;" vertex="1" parent="ocHO1-lxkFiU99r_c2Z1-22">
          <mxGeometry x="420" y="138.02" width="54.76" height="54.76" as="geometry" />
        </mxCell>
        <mxCell id="SsUAwCfb7mElzVYY0lTj-20" value="Docker desktop" style="shape=image;html=1;verticalAlign=top;verticalLabelPosition=bottom;labelBackgroundColor=#ffffff;imageAspect=0;aspect=fixed;image=https://cdn1.iconfinder.com/data/icons/ionicons-fill-vol-2/512/logo-docker-128.png;fontSize=17;" vertex="1" parent="ocHO1-lxkFiU99r_c2Z1-22">
          <mxGeometry x="399.9983673469388" y="257.6468965517241" width="70.20408163265306" height="70.20408163265306" as="geometry" />
        </mxCell>
        <mxCell id="SsUAwCfb7mElzVYY0lTj-21" value="DBM app" style="shape=image;verticalLabelPosition=bottom;labelBackgroundColor=default;verticalAlign=top;aspect=fixed;imageAspect=0;image=https://img.pcsoft.com.cn/soft/202206/090552-62b119707dff9.png;fontSize=17;" vertex="1" parent="ocHO1-lxkFiU99r_c2Z1-22">
          <mxGeometry x="200.42088435374154" y="143.8544827586207" width="93.92136054421768" height="57.91836734693877" as="geometry" />
        </mxCell>
        <mxCell id="ocHO1-lxkFiU99r_c2Z1-28" style="edgeStyle=orthogonalEdgeStyle;rounded=0;orthogonalLoop=1;jettySize=auto;html=1;" edge="1" parent="ocHO1-lxkFiU99r_c2Z1-22" source="ocHO1-lxkFiU99r_c2Z1-1" target="SsUAwCfb7mElzVYY0lTj-20">
          <mxGeometry relative="1" as="geometry" />
        </mxCell>
        <mxCell id="ocHO1-lxkFiU99r_c2Z1-1" value="Endpoints" style="shape=image;verticalLabelPosition=bottom;labelBackgroundColor=default;verticalAlign=top;aspect=fixed;imageAspect=0;image=https://fastapi.tiangolo.com/img/logo-margin/logo-teal.png;imageBackground=#FFF2CC;imageBorder=default;fillStyle=solid;fontSize=17;" vertex="1" parent="ocHO1-lxkFiU99r_c2Z1-22">
          <mxGeometry x="274.7553741496598" y="280.12448275862073" width="97.40816326530611" height="35.10204081632653" as="geometry" />
        </mxCell>
        <mxCell id="ocHO1-lxkFiU99r_c2Z1-2" value="Azure &#xa;Cloud" style="shape=image;verticalLabelPosition=bottom;labelBackgroundColor=default;verticalAlign=top;aspect=fixed;imageAspect=0;image=https://logos-world.net/wp-content/uploads/2021/03/Azure-Logo-2020-present.png;fontSize=17;" vertex="1" parent="ocHO1-lxkFiU99r_c2Z1-22">
          <mxGeometry x="901.0927891156463" y="35.3448275862069" width="62.39972789115646" height="35.10204081632653" as="geometry" />
        </mxCell>
        <mxCell id="ocHO1-lxkFiU99r_c2Z1-9" value="Start" style="ellipse;whiteSpace=wrap;html=1;aspect=fixed;fillColor=#d5e8d4;strokeColor=#82b366;fontSize=17;" vertex="1" parent="ocHO1-lxkFiU99r_c2Z1-22">
          <mxGeometry y="130.42241379310343" width="93.60544217687075" height="93.60544217687075" as="geometry" />
        </mxCell>
        <mxCell id="ocHO1-lxkFiU99r_c2Z1-10" style="edgeStyle=orthogonalEdgeStyle;rounded=0;orthogonalLoop=1;jettySize=auto;html=1;entryX=-0.014;entryY=0.444;entryDx=0;entryDy=0;entryPerimeter=0;fontSize=17;flowAnimation=1;strokeWidth=3;" edge="1" parent="ocHO1-lxkFiU99r_c2Z1-22" source="ocHO1-lxkFiU99r_c2Z1-9" target="ocHO1-lxkFiU99r_c2Z1-8">
          <mxGeometry relative="1" as="geometry" />
        </mxCell>
        <mxCell id="ocHO1-lxkFiU99r_c2Z1-19" style="edgeStyle=orthogonalEdgeStyle;rounded=0;orthogonalLoop=1;jettySize=auto;html=1;entryX=0;entryY=0.5;entryDx=0;entryDy=0;fontSize=17;flowAnimation=1;strokeWidth=3;" edge="1" parent="ocHO1-lxkFiU99r_c2Z1-22" source="ocHO1-lxkFiU99r_c2Z1-13" target="ocHO1-lxkFiU99r_c2Z1-17">
          <mxGeometry relative="1" as="geometry" />
        </mxCell>
        <mxCell id="ocHO1-lxkFiU99r_c2Z1-13" value="uptime monitoring service." style="shape=image;verticalLabelPosition=bottom;labelBackgroundColor=default;verticalAlign=top;aspect=fixed;imageAspect=0;image=https://uptimerobot.com/blog/wp-content/uploads/2014/01/uptime-robot-dashboard.jpg;fontSize=17;" vertex="1" parent="ocHO1-lxkFiU99r_c2Z1-22">
          <mxGeometry x="1275.3741496598639" y="230.0948275862069" width="222.312925170068" height="97.75918367346938" as="geometry" />
        </mxCell>
        <mxCell id="ocHO1-lxkFiU99r_c2Z1-17" value="End" style="ellipse;whiteSpace=wrap;html=1;aspect=fixed;fillColor=#d5e8d4;strokeColor=#82b366;fontSize=17;" vertex="1" parent="ocHO1-lxkFiU99r_c2Z1-22">
          <mxGeometry x="1626.3945578231292" y="130.06896551724137" width="93.60544217687075" height="93.60544217687075" as="geometry" />
        </mxCell>
        <mxCell id="ocHO1-lxkFiU99r_c2Z1-27" style="edgeStyle=orthogonalEdgeStyle;rounded=0;orthogonalLoop=1;jettySize=auto;html=1;entryX=0;entryY=0.5;entryDx=0;entryDy=0;" edge="1" parent="ocHO1-lxkFiU99r_c2Z1-22" source="ocHO1-lxkFiU99r_c2Z1-26" target="ocHO1-lxkFiU99r_c2Z1-1">
          <mxGeometry relative="1" as="geometry" />
        </mxCell>
        <mxCell id="ocHO1-lxkFiU99r_c2Z1-26" value="Python &#xa;Pip package&#xa;policy-core vx.x.x" style="shape=image;verticalLabelPosition=bottom;labelBackgroundColor=default;verticalAlign=top;aspect=fixed;imageAspect=0;image=data:image/png,iVBORw0KGgoAAAANSUhEUgAAASsAAAFACAYAAADkl1otAAAAAXNSR0IArs4c6QAAAARnQU1BAACxjwv8YQUAAAAJcEhZcwAADsMAAA7DAcdvqGQAAP+lSURBVHhe7P33kyRJdiYIPncz58FZ8qwsXtVV1VXd6EajG7QBLDB8B8NP5G5P5E5OZuX+iNv5J27v5NjMDzezQwQzszsDshjgMOhGoxtoWpxmJScRGTycG/H7vqem7uoW7h4ekRGZkVn+Zb4wcyNKn376npqaWib6ya92ZACynWyyl0Imk+ykESdbg06m//6Oe5sTdnZoeCPAe9z0OUH0xeMgo/ckP1zgcDzkHiI7sHQGwU1Pf4Ad91y2v1xcZMaOy8Xw8IbCTV8q78PK4kj1NEba+rUGyckePh5Tt7240jowLE+e+MneYfCQ5e1glN4dFZmMl+wl5QJ0OvsVy54zODhP6TK196fzoO1lSDtLl4Mb5rB2S2Rik74jlPwEE0wwwaPHhKwmmGCCJwITsppgggmeCBwjWTEoV04HOA6kY0GD/OjHDJu2bhpPGTj+MP6Y3QQTHB3ptuCKxelhlRFgel0xg3WOPEZwgDEtHCx0RTLxYHkESKfFpMeRJwj79GCCLxSeCLKaYILDwO2NiYl1+HTg5MiKj5KHyQlimAl5PGDah8l4OLm0HQ+s6/eoGni6FN3yeZgySofh5utR5m+C4UjX0UEYv5VNMMEEEzxGTMhqggkmeCKQHWQeUyaYYIInBa4j/WTCdQmHuYYTy2qCCSZ4InByZDXoUb2VE8S+x/THCqZ9mIyHk0vb8cCdgnHawc5XJSnPYTLB04FjJKujNd5xQH1zpW+yDWUEugqrNx4/BrnQ+8zZQU9EIW6D0jSeANJpMelxZASeFNL6YgA6M1S+GPji5HSCCSZ4ojEhqwkmmOCJwISsJphggicCTz1Z9Y3TnDK440iaxlMGOwY3wWnHF8PmeDy5POSTQbYXV/aPuD8+uE/PrOwbOHfz68ojQDotJj2OTPAU4NHo0uPGxA2cYIIJnggcI1kxKFceD07WtUrn0ZXxcHJpOx64UzCeJLjlepA8OTi8fj3NmJTCBBNM8EQgO2jMhTLBBBNMcJrwyCyrPlM8znZlgqcB1lVJy8mCfarKE+XaTTAIAx8EpXDyGjXBBBNMcAx46sjqIHZ+OPAR8TAZDyeXtuPB4KGAAfnNhMn+wyEVal/5nNYymuB4cNh6nlhWE4yH7vwwkFS2jS2E22MgrAkmGAcnRlaZTrZP+lYcOCRIvK7snyU6HF3m1huPH+6jfit943OQvrw74vYsmsYTQDotJj2ODIBNTwxyovSnjWn3IXmzfYT9HZPhygRPD6zODRKLR6dpE5xqDHoK3KcsXZIlUVmygoyEde6sTHA4TMrOxYSsJuiD25P1w6oKrK1OBAl0O8EEjwqPiawY7aOJus/1OWVwXTNN44kj6aW740/mqEFyLvkbdTqQjEonKkgYliWMipA8SMqD4Li6ifbOrErXAuuDCdde2S9Hx6MpswkeBdJtwRWLR8MYE5wekKTGIIlOJ1aJ4whEVZGotQJZkiiYkTgq4YJkzGofMQ2DS1AHxz/BBGlkop/8qsNdPWSHKWFmqJ/Qh86YPJjJHhxeOoF6z5D0pd2YLjMPSzcOp8dqXHDAfBR69/bSkxlVRlnnumOZFDtuGCCfrCEKkz7chzKMM+Z+W1+x+LCmPOnEsJ4iXAdC6oSzIiAs/MFtbfF9hOEFqIeWZPw9ZCREmJ5TVognTYr43T2vdWfjM1uL0fqQJjlz777yPoBArY5kMnxAcFiMDnsghujDKL07HHppcsvC7ndgJafRX2YH52lfu0ruT+dB63hQm+F1qXJIhzkUSX0eoeRHgcFZeTwYZkIeD9z8pWU8nFzaBoMKoaJEZeZGmad8oVE0KAKJigQVdODuwdWL4PLF4TysqGUJ22fxG/udKQnjaZyflVYwJy1YWa1gHsdIbhl1C3WLMI0kLiLjUOLar9jEwBKkclqZ4KnFYdvCRBu+KNCG74MwuDX7lsRILDo+1QYhBdMgKbh9kE4EayoGeYHIIlCakg/ujWB1hbAKw7AgQRPuYRsS4jp0nwgJ2kdSdNAln+RJ4kTtJjgCHpnWaMMYIBOcDNzyJclEpBH0YBRaQSQVM4AO4onKIB5YTcGMBCCpMJwCIZWUqMz0hIRsEpJTwfEY14Swstpt3AeJQvyO8hCQYjIIz3tIkHQve2G4MsEE42GiLU85rOulVpHuwzJSqmpDMiCWaYlbz0jYvCwR9iWawoXlhKSMFZQRT8codCs5SMFIpySdThEu46yErRVpN88gnCWQ1rRaWnGcU5E4IbwJJngIHPPn4+2ganogdILjhrWchokLrU5YNRyb6nQK0uHTveCcxO1z+pSvHZjpCB11Dc11hJ3BbsecXJhrzHQFWk56H6c4BHAlm/MStOZ03CuGK8mwqRNxNoS0Vez42aPAqLKZ4HTAHb8aNo51ct2dVfJBcoI4WcVk2ofJeHiYtA2+d1TcvXOdDNwyWEWx0OJZlKh9EUQFSygAoSRkYi6ESqCOOIeqT0A0HN/SfXNl11Kz+x3JgwzhQoaLEraXYG3NgRTpUoIg1UozA/tma+8/frjl1F9WEzzJODmymuDRIxnE5viQDoTzJw6rKxbNSCdYlk77DAhkEVaQGTg3j7WpBmOqAshKB9AzbYTdggQII5JOzEmkhsbU6qJ7yHGsNl1EkFdrHsS4oOmIO3QzOYZlx7EmmOBgZDo/HjzPaqjypuZK9NDfw9MtcNHXwzkKmh0a3gjwHlfJnSCG9aQ6L2RQTnF4VA8/vkvspqc/QOtWKZx5VmkMMn1duHkbnGaEjXKh9RNzUicsKZIG3b5OVMYxuH8xrJ8YlhSuM+5bcmsCpoH3D0cv/SQokp2bFo5q2Wv0JfYsyCzTwJGmZHNNyfmhZLyaeDieRRozWsC9+LrzrGz99qUlna4knlHlDQyrX0+tvcOiP+yxMETHD2dZjhevWxZ2/7TOszoI3TgTXThCyU9wWsDKNGLctMhrSuTXYVHVoUSwevh6THteguZZbFd0Pw458/xkqn0fscMC6zCBMawsuIcdWHRBc0mCoCwBjLMAdMEpEbDJcC2ISIkpTUgTTGAwIaunAHZqQCx5FT7hC8Iz0g4XJAxndLJnAJfPzpXS+VCJ5esOaPYsO54bJvtBkrJExc6QEyO6YZEY6e5xvlZU0mkRdAeD1rJOdwiCoqYtzARIE8iN5Ivb1IVN9rvC34xggi8kBmvfU4RuI6ScMti0aeOGdK0LtTCGwLFA4g6sKd4HQuhEObh7JZ3rxAFufdIHSyaM4QLqUz42dJAB7lQ5hoZPl43ugCt9UAsuERCWDsBDBCQah2chSF8wJXFcQC6MS6pzv1Aa+iI1ria5xpx9P7BMTDn0y9MEp/wmmJTC6cHBDU5fLo4hIKmOGCuEhBCFnE1egaUyJ+3mMghgDtYVXC/SEgfDs02zTTDO+5jHhyRPurpoUzIe3FMQD9MedzjIPwcrCxZg6yLysWzICkL3Mf3e4GAML68Jni48ngF2B1nhY/PRSCfwqXmROQm7N6Btt/sHfsFTCjZkWhk6v4lzmGitxDnjYoGgOJmzQ8nmcHWPoMyscxMuB7YfOZI8mrKxZYBjJNFMW7xMJFm/JZncDo6HOvCux6AeWeG8LKZbN12oNQrp6YMJ9+kZYD98XK7u2f3JAPsEx4RBxGEaoSEbKzySw54nIcd4wimR9rPSaT4rUfuCun4685yvyHQbIbckqZMbVB8FdROtQFH7G0gCHc8qg2xpGXKqA9xXurGBWT+LRExCNkTLPCR5mqjuFw7HWOMMypXHg+44UCLHi3QeXRkPfWnrWgNpMWCvZQfP4enBquJBuE5ozJ1oSachRJ0cGjStU1yQgTUFYuhYS8OKgltLgo8DjN+KhfsbW1qEsBD5AjWXpYlaU5Bps0RNzNeASMSEsca6eemWo92f4GnE5IvMjxsuqdB6gKiLlzTkSJdgKejETn1JmC8Zg6y4bAtXPtB5TtrQzfXdRvtEoZd2WlI6YTWClRjNSNiGhdWcgqVlXq7WF6LpUvJhgc6oR9Y55GDLcIKnFpPaPVUwDVYtDE5B4Ht8ggaKhtsOViQM4O4FcJNgeUSclY5re3bSE1yVXbJOhK/nQEhO+q4hCKsFKytsTytpdV+2pqXFskLvStK2MsHTiUem4a77M/l8fAK1EIyVYJ7WmYFzunYkpDjmsitc7M4s38JVEcxxWFodvuvHx/1WTJBddMO2dGa3Jw3W6THUqxIXLU24uiSuIC/tVklazRkQ15yWB5dXtqRtLCwjxGgv4ZjSeOJgnVl5uuHWn1uPLp6EGnu6QXeGy7VkmhIJ501l0AjpBk1LwBnfkDhagr7CFeL4FCtRB8xpfXGgeQx0CeuUwiXWIWmNmV+uFtFckHYD5dJYkqhdgSXlgdydOVmJ7MdE1Z90PHU1eBA7PxzYkIbJaGT4HpxOGeA4C+dIgZiysbSRxiAD60Hg6sHlCzipM+YCeFzGJRmnoWWRMWNZBk6ctEDGwQFkcFqh9Zjk2xKRWTCwAIsT7mGTpM7yAsHzySEtMZzXibB9AutLw3lSVd7W+SB5MnHYdnpiH4xIK8WwkQSdI3NYMA1u+pwghmVcH5sPSgQOD+6JDQ6aZ9WDm579Adq5VDoWjH1+i4FP+jiATjLiC8e6lApcG/16TGRmdjNckz5z//56GaCsCF/XoepD776+PI1Ldvtw0H3J/CcXY8SVYQEl4CTYfSDRw5JiffJlaK6Nlc3UEVdLsn4gWQ+UnrXzs+z9va2bIu/APAzCEe4Z0maG6t2gDmVk2fXOudND7P6gcbz+aSQH5yndruz96TwcZp6VG+YowrLDRUco+QmOBhR1x/TyBmY8RgfQ43lYB+clDs9IGM+BrOyCdVQGKu4A5f2igeWQNGI2FCU1kjlXOuU0jnBZZ8LTyiLJs4Hq2llwr3Wag+5PyvFJxoSsThDsLVSUqMwgsL5wTCsKhMSPM3AlBE5DiLlPq4rLAfMaNMbh78T1wA7JytOP/rLQl7E5CE/Sguus43r82EULrmFzBmVZhkuYQXmzEkwdPDyYhgnpPQ5MyOokQLMbkn6UbsZbMhKGJZ2t3eRyKc0zaFxzxv0L+Rg+meA5gVpPg4XWaVJGjsUlnRwKeFbi1pJ0WhckbPJFabrWZp6asWYnZfuk4jHVHKN9NFH3Zoub348CJCXXl+cLxSHak07obHNplPMSBWdATAtqRUUSSJSpIaGJy+L23H2Na0CZWYsBwih70fJaVx41TJr6ZCh4bpi4SB9jOZGsgmSf4EiVDyvVRzmX4RqiQ2jRcoWVFcINp5Vl7zsUjnLPBOOib2pTSizS2nBsYByu9ONwFb8vLNsq+1vn4fAw9yawpGTEDGpTuMyv/oNVxW/s6VMqPuHjZ6u4vG+bYyywADixkVWg1oEZV2FTMwPDkH0NvBcHhb/NCgaJ4IiWzxOHJL8D5WBwUDeL8tZtUgDqRnNl1GDFfJQ1mDWdBdeIlzLKiWt/4Zqk/gxS5d0lWv7gAoGQCR4bvrifj3d+9pR1P/qenKVg7mM6+GmrAOlkD2/SxfzHcD8koosHCyqe6z5S5zQEpl/vV9IhzNbEl5wbVgcOBqYPYY6dpzHiII7yZO8ooJs3EN1y6gfz4va+rH++R8lDuiIFl3X2IqS/Iwvzs7iYTxMj8aJrqJtV1AusWcDnahgd38TP5Wx0LAzCeLUjaUEYAd1J4hD5H9JmhtZROq9Dy3r/8Sf1aeBIJPk/ZrLq3TMw0AE4brIainS6nZ9jN+yEUPR6KhTSYJfCiaEQsZIVAEXnRxE64TQaxIKZec6PJAA6XSGJrz/s4Rg/fQ7GVvjxkMmYp5MnjaFkRQwgLObfLBVjwLKNWMYIJgBR+bIkxekpKZZLks/n9Ro23mx8G9btLYnDDdywi98t8ToF6BbCytZxFckK1ytZ8UkiyEqf0Nr0HaI8h7SZUfW6H6Pi4zlTBk8SWbkYSVyJ7h6ixCdQWOWFcnDdc25j1FjMgXGuiBCX0EhKZtmW9jNmC6LS7+Xh3mHcMsFRwUZK9yyCwsP1hkYrUcFSyuYqUp69IPnSsvi5BZT9tJHsjLSzL0iQf0uk/JxkikuS8WAxxaidDuo0W4PsQUBa6THECR4bHpllNYw5x/m6TTqsx2VZmXEikxfz9j9fj0FDSdZj4lImOo8KlpX5/Lp52ZZTEGwwblwTy2o/xrGsWB7MtimWGIfRYUD3aOVmciXJlqbFL1QQ1qzkcme6uudaE4GHsEBEfmdPcrCusuEqfq6h09kS8Xa7cTF8A5Ou9PusY5XqEB0fVa/7MSomnjPpfJotq2NcKbQf6TGr00dWVglZ4MPDsmRgK8UQVRbi6z7Jiu4e50pJuKKD6Sw7M2Md4Wo6eT223caGXwj3RMnqmPHYyMqpJwuWB1091gQRtkIpFKdgQUEqiyCsKXhsnK7AF77z3frt6RocdhrCqJMczLBcXJNcZ1M87z5Y7C46ni3cW8P5Gq5IJpOiHhnKoJfv9x9JYYiOHx9Z9fCkktUgdOOckJXbCExYg5THkoF9UZY/dQvRQfMY7kUwq7POdTCXJ5A2fipdn+7hBiUqld7AN4+PSzSD0mUxbhgPi8dJVlqGTn2ZMamkAwDy2SmQ1YyUyugwcrPGDefTPlq02Wa3/PoaqOqPL9kYgvAzdPfg9nmwrArRA9TnXdQlLS0us9zQ63nHhKwMni6ySl3W99shmuMmq32Fam9OxzOgx+6BYffO851+Ngz9kAHXmdJPsPM1mRmQ1RwuhbsHomKaSGoGuF/j6I9nQlajkSYrUpKBIXrzgIKdQQ7WEwfAc7KwcAVlz/2ChBCuQR9nYVVxbFEHyw32NVA+8aPb3gU7l4YUZFc8WFoim+iI7kscbqGt1fC7IZ5+hTrXJS3zt7+O7dEuhuj44chqFHrxTcjKxZgRpjPX9/u0kZW7r+FScCwhG5031fHQY7MhTJl30bhWeIbv9hGcVW0as/2Eeh8c0pqQ1WjsJyvkn1/zQbkyq7HnSeSVJF+YFq88JdnirGT8szhnnvTpIDk33XCcuh0INz6OfdGCjkFWcC3jJmhpTbLhPclEt3HuNq55gMvKqNICyp5ERz3hgxYX/XkY1mYmZDUaJ0hW/UphH+lbPAxZ7QPvccnKCSJdqBZauG5OSSAMI7m+v9CTMSe6BrhGXyzWhe+m0RbMEz9OLuy9lMzwB5MVU6kl4xCWxRearLQ89sOQlTmnhMPyRx75fl8G1pJXqIhfmBE/V5FsqQLDqAxrFu631dcuWelmbNhyNDPckQ789inZPYS8LVG4irq9hQvugrzakgOZZfnkUO9DenlbN84kLRZDdPz4yKoHt54mZDU0wn7lOymyYmIHWVbpwuxPDy0f3pP8JJzrWeC9MTazpdunkzy5PhK/HBOa+VIkKH723AZle3AP/whaYT24abQNsJeup5qsXDJK1ZWij6zsvllWBnaN/qK7FyLzLHM/NyWl0pwUi/Pw/MyHW+kK6kvfXq+ABjXMcdAtR1WGLH6bp7pZvsoDVzKT2ZOQ1lV8R3LhpmTjbRBWFdcg7byXSaAuYOvmjFB9HYCTqLqnmawOTuUTgP1ENT4iKGOUaUBaEnCeDkq6HfPdsqL5BHvrooTBOWmHM6j0soScfQ7lowLyKzKstP6Kd0G1tTLBcPTUsGMto6zHESTp5MoiIKjywiUpzV6SbGFRMt60RD4sXNQF51QZmHLOwCQ6kqCVUSSLzsaDy5nUbzZfQDpyEnBMLHsGjfFZaQVL0myXJNDI+SCF73RO6vik8VSQ1UioEvUTBkc/2NvoEz7+xjW0kPg0L6C7xy/HhMv6Dl8YzcPtK+BKfg4rNsQIpp+o5sOBlquRpHZQrjp4ji6Y1lQQolPwZqRQOSvTCxdBUrPSzuYlyNKypbWF+ko6C+UYhPEwwjolNB3ZNkiwjUNtENOeFPwWar8qrdqmbG9uSLMWSbNRkEZzShr8oEWHT4L5QrrJi+oI9W4sAkunxKRjgv14PG6gg4f5IvP+MN04tQl0FSZj4+F9JCncS5eMb/XplmNQ8YwE7VmYWzNGEJ7e7ZvXaDSM7ryd/vxaN2K4G2Kud81me89BcO9JY9wwHhZju4HDGmhCBhbMk3lyCspKMhFFsIy8vBRgPeULc7CoYM3CssrkjBVlnt4hCifPtttwj6XjOhj2+hgdUiCBx/GorGSCrPjhngSNB9Ju3kUnVoXRFUgcdiQH4mS6M5ldyfg18b2meD6/JB3pl6Rd9Vfre0Ca0tN7ehhShmNgMmblYmiE/QV8esjKPKnRSmSmUbq8z8yb4pM+kA+f8NHFg1UVBNM4OYWCqSA49K64X90DDYPxcmE8/dkHSxoTshrS0LqNlVszDYGfyjALDHo4jfqM87Ky+LJkvYJkfTP9QOdU0d1L6ZMlp6ORVf/5bhnCBQ07ocS+IZxWbUuae6sStjbwu24+Z8+19FkWyADdx6y+5NxGFmqQUPwsJMdP38P+07wl6dOpDvapsTk+IavROEGy6kc6c/uJxeBkyMpWNpUCyofrPC0tNgh+wsrHNqMTC/XTVhHfG+Mnn0pw//iKDCRTgHBt796A+TgN9iCy6sfBSnJa0K/cI5A0zm5uLXmpwvXyy7oLIbEH9xrHc4WSzM9ckoJ3AffiuqQxhyApXqtuug0rAQlqH1mNRVQIy/yAViC22JBQThdu70irtStrazdwroFk7MGaaiL/5h1Bj+WQ5IVPLum4am6zHLfCddAX34skn0OuYKWRwHjeWFbJgx4CetmvKW66+/N5GEzIysWYEaYzl/5tcbxklQYqHQruPoFjjBFfj+GTvZjLtxRwFXpxHOe4FOdT0XoyliF70V4kE7IaA0lZd3OrvyHJcRIQFVw7DEgmNy2VmSUpVxbM2CCsXLeceRfr2XW9bb0rWbG4EfY4ZMW60bAQLx+SENk4EC+CBFXpBDV0XA1ZX78l+Tz0gZY1zmV0EB0agjg0bUkcnqbJgnkMIKTetuR8xJLHfdk6LMVWEh3SqQk2+5qPbnpTYR0RTzVZndh6VqnL0r8tDktWLBwz3cGkr1dYtoJ5vLevLxoDLFxd2hZWU8wXjvlhhpiLseEY8sr0MSxbsdZEdyt1PLLqWWIHY0gZn0L0K3c/TB30NzBb37ajyHC9KEA/WJPJC0wpHCtKZWpZCuVluF+wffFbV68ArP7Z+jX10x8Hy48WEdElqxFg3do3DNRug1uXw5FMUJd4b1Pqew8kDHbFy+GYDxcVRMYVNdxa6o594ii/jtM9x/Rq+jgO2larCkYjLKuWGc/KwfLiFAi6hrg2k8klusJ7TCi9Mk7nc3xMyMrFmBGmM9cHJ2y1kg6Am0AWjiWrXkGhcqEotopN3IgD8XCSn7oVPA6LKo5WhAvikbRML09Hwgzc6mqbXQXaj4FklWpA9tH7eBhSxqcQo8kqsRKIpDz411hDKBPk066bzrooFWakWJ6D9TIr4k/huhKu4dM0U3aDiGe4PiEmxGnvsZ1MGtQCNlrmw8PFQdgAEbUlbO1IsLsJy6oGv7SOJDal4yXrkgEcNrBz6Ez6LUhWRm8MSJzc8mGN5p4/YFUF5hNhecSR38Y+3Mk4j/TOIFF8H5HupUG6jG14ClfPuu1nf17dMOz+k0BWw+sXeCrJKmk0hpwgfJysB8pQxBX9KAMH1PU9MpzTOVO4jg3FolexPYWzmJDVYHTJqlsW7DhMR6BTPgJOos1LqbwIS2pBioVpWBx53OPp4Dldbl7vNqo0YQ3XJ1P3abLq6YaxvowrBxcN1pKP30G7Lns7G1Lb25AcrB1OiNCnewhPrR+GS/pExIY0DGzHR/STVa824zgpB5YH4tS5WCAlD8Tl5WhxwfLiEjU4ZuIySJfxfrKiUK9tTL20WLhh2P0JWR2AcSInxiarpCF0yQph2J7buAem52S8HIPi2ud8uViJCO6etC/iN58wUXmA5H61rrSyTFgceO8C4Vo3gxgrrV8Uskrqg+BeJ2l0+hfnzEvfJKISGuk0iGpZLSkvW9EnfRn4SHof68taYGO70L24FU5aTL0m+wq6amHyJK8hzdqW1Lc2pFHbhXsGTfFBpB2QRxJmkhSQH34j3A6JJxW+BV3b7IBVGLofZ9X7jHCAnXmlW5j1GyCtOiytFsKAaKfJwfshuoNwVA8ZHqdvUIbgSSKrdJhDkZT5E0ZWSYWxRFBhJCVCe3YoOgfH9SvGHJfqTOmTPi5+15EilKWEKxkvLTBmw8SrjaVbWe6W8XHPbE8Ew8p4TAxSwnHQr6hHhNaHAfd07j8tJARt3WvPr+hrMuXivOQLC6jrEq5NGluWT2XZgGnJJHVxAmTl0RiOYMGEbWlV16W9t4mfVbW0SGB8U6fnxtICG1Tf9tj++hpEVvuA8KmyXLvDhIXfiNgrrME93EYakUgdmEf8KLfeILwFzyWgztAzGAK3brs6PiGrg9B//8BIgFFk1XdPopBUrCx6IFNIJCxjHXFsQdc6149d8mVjPlnisi0U9PB8LO3CiZchuwVnHjNbBe3h4CpNMKzsjhmPn6xsGWWljaREqI/Iy0kmX5KcX5BCCRZVYQbuVUE7CxKVdblNfbDuejrQZ5Um9T0Y/ee6LiCC6e7D0ut0AonChoTNPQlbe9LcXge5tJSkciALSw6Esc6ZIhu26dQMnPocUbf9HGOv60+rISykE/Fm/R2dUOr5cD9hcXn8BL4HwqbrmIFbivBs+vSvxg15Ci2rUcRll+M5cbIaGLiDccjKLZDuXBtUqPaI/MwVV0IQuHrBWX1VRskLFaT3sWK1J++Px8bL0PZVxJBEH1ylCb4AZEUrSMd3EBZXRAgzcLFhRXmVeVgM05IvVmAx5MVno0R5RJHpVGxDs53HQCVl+Y0kq35w+EdhCSdxmdrBruxV70vU3JE4qEkugssFAqOLl814IAZYMQl5Wliyom6NR1a93/sMIkUvHwyv6yIm93HMyvNg+XEWfG4XBNYEcTVwop24hTaNvB6i8ffiTKPrSuK6CVmlIhwOc//AwB0chqxATdg3DYRPjjhY3oE1FUechrAA4gJhcc1zXG8qqKcoE7LqoV9RDw833k4GnYUPqylTkOLiWckUYEl5ZVhTZgVOD8ItX6XRuWtJ2ZCsGM7ARsBrDiAr1pG9NxvBCQ1olYiUciDGoCm7u2tSg9vHjz9wbQbp8CkcCBbCiZ29MjDpsaS1n6xSdbmvbnu/xyer3jEzpQNWVDL7nZNKMyAruoc6V8v3JAw50N8LfNQUmglZuUhFOBzm/oGBdwsHxDMmWTEzLHS6fbroXUSLip+74sdCOblzDhdYdy9RBn0SY+41cJXEHOSRfRUxONFjVGmCYWV3zBikhOOgX1GHI62IhI0z44FsQFSSnZF8eU788qxIviIhXD7O/qf++NBQ8ySOLpkdjzJlo+47wmLZ8zNmhF0uiMppx23cunHrhadJKBGIKgOLqVjgrKdQGtVN2dmANdXelXKR1hw/ocXGbhbws/cSphwQF35ndZCbMDrSl/ekPgeVB++3GIesFF0itltTNnaSaYZztArrICuSGIgVBEaX1t7Xm+vlQM8lM+wZLtrCk0RWI5GU/xNDVlyNg4XOrxh3ohUdPCdZmflSxkzuFlxf2qGwetxUpsWErA5GWhEZn1q0cJ/yxYL4hVk0psuSzU2Ll+N7fAKyysKaMh/N4CtOOi6EZHJOkwvXshqXrHChbph+S1b8HFom5OzzqlS3H0ht94EU/Y6U8x4MqRbigIvF6REgTaadMA2KcfTiyyaTVhGq+evGm9RnujwMenV9eLLqERDjyCYfUOVkVMlWQVYhyhXanYP7CmvLvLqDW4aRFTpn81oZMCErIBXhMOj4hAM3Yf1voLOy7G+6CtgkFci//K2vw3AaAskpmlFLigPofCpiB2z3NSz9m85DohgAlxex6E9bsjMAQ0pkP4aV3THjsGRly2gQWdmGZh6xGxdIickcVtgvSucK01KqzEqBFpW/IiEaWUj3BmWqa0DxJoRjJ1MqTahl1St/C63fPrIylo51dXSMUssTgkTRjctIW6cd0GpqNXel3tiQoLELcqojRpJXW3KcqtCtBrOj5eXUjY2D8XV1wJIH0Nuz96TT3wuL6Cer/ff0dDQ5pnFRzLX8eAXBsmLeaFFl4QrmcnBSuRIEfGq+MC0eF/1DObn1qIPyXLaQiUB4SlZJGXb1pJeWCVk5mU4HOjJhyaCrggPnyVwo3sMXWUlQ+gl2WFQ6LkWCQvpYUKwIt8BsIWp8Ng+OAlrsP9LD0LynMSBcxbj3P2L0yslNn8lDf0Mz1/JVW1q0UUwLOC+5/KzkczNSKp0xs8+z6EBwHUPQbR/p6J7+5fFhZJWGqT83fdhneaJjYmPmEzOugBC0t6S+cx9ktSWh10b4sNwyICmk1QNxUi+6VgbCsHl369btmNKdK+u2l1p7js5rCkPrunfPPrh6M+R+QzAsd866R77xj9ZftrAmXvEu9s1rYsYCRXg6E55klZRf17KCVUmLNBkSsTgNZOUiHX4fkjJ6fGSlFWYrzRSuqgKOm54dpMW1taMlkBQHz82YlCE2Xm8U0Jr2FvvIylUMB4OPGnwhycopEe7pihS4nvOlsv60FAsL+qmrYp71QJLKoeT5igxqYFg5JPEcnaxwfRI2GwHTyKkHnIawvvq5REFdisWMxF6krhPHxjhGxkH9YXhSyErhXGcHmb0cB9931TXkqzt8msilahR0A237RLi2LC3xuZiQlZNpG6ibiF7GUHApBTePtYtQbK6AwFcxoCycI8XXZPjSMV1A9PX96PWYafTFm2zHxReFrLSOkjzwcb51F+hoRfzUlZ+D6yeysPQCrKkV3MDOwryuZJutElWq17YWVjceO39K40qVmS1DLTPTwOxgvC7Pg7Dp+uX8SElqa2Nd2tUtKegyLBkJWjUJOU8J9ymhQVwSSsOtmVFkxfGwHuy5YyKro6CbHpSHx6Vn6pAWXHK4xEpYprzcCaX6ZBDp03rtyw9+wgbrYVgeevhCkRUz1UuQKTj7mgXNd6oBlweRkJbUEvZBXHaGejdcbPvS5e73Y0JW+5EmK1pONg8kFP6M+RZA1pNcyXw0tDQ9j6PTcAU5qRP3gbA4R6kLJar+cjCWFDQgXQ6Iq2sFWNgy1GuzUigUpNmsS74AfZCmRGFd2rCgWrUNCepw+ZoNySOhXGialhbz1Ca5JWOQTzdZGTGExPBDWFeB+H5d/DwH4Dl9wxA3Yacx2E7IxRNJVse1npVGNqDibCJspvjb7uvTHFYC50ZxGgJdPZ0zNYML2XujJ0dj6LoZiUL3YDOhm25cFkdVkyOR1bj3nCB6itNLl5uXtGLpKpzJab4B4HMqgl+C4pelNLUgeS4r7OUljHoPMoj+eT6Mi9KLh42DMog0LFnZdwld8L3MDAeZaU3Beojiqs6V2t1b12VcSmicPkjJx60UW/4BR9ecvKXjHVYz7nX7ySrZARxj5dHA1as+GHK2s9ppA+vn7bN8MRqkVdiDBOBt5CYRhtUdS3R04bSR1SB040zSfWSySifeRbritcCSXfv+GH9TYSMqbQAXA+4ex6aUoChIoFkAz3Ux+HtIuhIMq+bDYGAMg8jo1JGVkx7up9JklZXlz7G+HlkVxMtVpFSck2JpFj01J3mWEAZdQR/1YpWS4bNnTyqfdZTqtW3DNsdt/LSozD3c6jlHJ+xVtO4KuTIsqapsbd+XRn0d19RwbVPKuCcfGctGFyzo5o3PGs3bDMNgrxyJVFm54T2SzmtE+gn3rLY9XK8vWyvoPsPizd+FRVoDcaGcPJA62lYWrmGcuNXd8V6g9/CBODitXyCyMksLExGnIYCMdHC2M6MEZawoTk0wn2A34JbSq5BxMLrKx8PQmNIK+DDKeQLoNrBkayxSKHIyOGsbnT7h4z9OhPTgevsVKVbmzRpTWdRBFvWBizhVIeOZzsWQjwnXKiqPUXieTwDZkR9EVkRPwQ3x5bK+BG1YTVy3vHFb6tVtqdV2EQZ+J+MwJCg2NcLGYcE5VF8EsjJlasuPRJQUpJIQ66XZfb+QbiEX/fMLJCp0+Axf02Skt0YXMTpu4qkiq/Tvbva1EijsheFSyBS2/IouGwQsKb4moxdauPE6+7byR1SqPeOmpX9OVw99Cn+AonRxWAV8xHDJivmzv7tfGY74vAydRBZ14fn6sdB8aUkK5Vndz/qcu2be5TM2jMlvWiENzIA8127ieau8jJf7POeWsR34ZYpMchg2YoHZ1mrUJQ8LrlVdldbWB5LDeZ9LyCCM3rt0tAYGlD/yGDnXECNradw6dHXiKPekcVAYfffuD4dlrOWNfdYny9CWOXWc9MMw1NqiW8jvB3g1yeVB9LlAcnAPu24vyK27lrzGuz++NNw2RTwVZEVTXr9YogVgek5zvCwhLKkOyCni070YVhXckP2Ru/E6+7ayRygEz+wr1CFK4jakkUrmYkhYpwZJPoxSJnnCMf6kUnGNqUyWn1+fR8+7aGag56ckm+MieOYalrlRuF5e7XHbsxtFPQxZJenCAVp15pchxU6zDtmR6vZNJHUPll0gnYhTEYw11ptZPpisqGu65pSDkbU0bh26OnGUe9I4KIy+e/eHwzK2ZIWS0WO2zJWskn29F2FxCRwdzwK8fF1ypU1du8ve053ioBiR7gT72lVyv9GNHozumP0+8Lq+OA9GN86k7E6ErLgMBsdE/AwLJ4djMyCqxKJKPnsVwe0jbO/fU2w3XmffVnZyfbeXAGzcPNOfLrhAw3LnHh+lZC7GVdrHjQ4XmkO2PE+ViZaHsaYKMjV7Tnx/Ab3tEsgjr66gzmnTDsYgvUaTIan+Y1ZJ4yghq6RANV7oSJqs1EpC42GayD9cuqVd35HW3qZkWrtSyEBj+HoMP2GK++0g8kGW1Wkiq5Gu6JAweo3duXdfmzDXDScrXJsiAj2W7HM2vJevSj4Xq6Wly9HQ5faCJG9u2tJ5MOfS7f0JJate5niMT3Q62RyUKKdKz6WE4/A8MlXRhqGNA66IvhigYUR9BYsWlewQThqSBFPhiWFktT/d/J2uABx1c30sZGXPjRnWYXBA+uzZbupgJrFxcABdp4cUclDWsmRL01IuryAb/IBrBffhHC1fO/0A8aglastaSWr/loqqjQf73TlVSRrdgdtuGeOcWtwhyIppiquys31X4vaa5DpNKYCQcsljycCu9zKgrPvqLMGjICs75tfT+cE4abIiIi3vXliDSMqch7Vl0417OPan41k+JL8Lt7Cp+3yy64l5J9GkIZ2HwXl/Ssgqp+/t0YLKSAkRgKTo/unMGDNewu/Fcf1tgwlZHYhu+uy2Px1ujGZGvxnDiLNlJLko0wtLICtYtP4UwoKlqytTmHJRZe+Y8SHClEt/+MdBVkG9KcV8QfY2N2Vj6z2plNrgUHRYQSDZiDOvTZxd5R9Q1n11lmBCVv2JcttFX4yIv7sOPVztrB9JDhxFF5HztMxwDeNN52Fw3p94suI9HESv1XLyYD0rM9MrMg3pZIooZJwDgwe4Pvaw76TbLeB+7E8DFXNIypKUpM/yd7oCcNSNc4SS9WFcRT9udNPHrd03aWFp6Bd8UJ4kDm75cQY/NyMFPuHjVITCNBp1AarKNwP0NoQJKwcWjT5R4tOkyKyCoKdSSmVnlO8jK4iSVVIuHJbXLQ7x/TxOSuRjcy5416ruwJraVFcv63G7Jz6sbC/rJ/WPe5nPbhmPW9a2PIajL6Rx63BMnRjvqv40jHXPkPjHJivc3/t+AHTEKIiSks5143lsc+Vt6Mgu6oRh8nqIjdspKzONqIcnkqx6cz1MhkhW9dqU3LqVlUYjlsXlc3A9pmV6dk5CXEqy4qCFVXaiW8D7MCQNQB/ZJNCC26eM/I3e10kn8WSSlekZu785mRbWKmgHSozMUxELnvjeWZDVOSlW+Bl2kAGnIqBuzCfYbR5IVs7ALArvILJKo1uHSbl4sED4M4OKLpAMuaRwY0OabU5FWMNl/HZeG8nvzfchXGuMdWUwblkfXHd9IY1bh2PqxHhX9adhrHuGxO+W9yDsJytzLcnK1rXnZaTdbsve3p60OzflmSsFEBbHkHk9xI07ieuJJqseehnTDKllNSOr9zm5D+QEPWfBzM0tysqZcyJ5jlsZsnoY9JGNU3n7C4/n9pPVE4Wu8iRkBWg+UdacAsIPtXLw3C9WoHQVyRWX0B/MSW+iOW2ewWVuX53pcCXPFFlR8ang3UmFRJIW22i4ECLLF1fBmgolF5unUJ1GTRqwpAJYUGFQxX11WHdcGQHphyWXTeYGMYzuJFNHl44Tgzq2sTCEMFyMm2K3NQ2/x141OtRuI04wsLNXskr2Ea69hscaDX51el0ePHggs0s1efWNZSmVCzjLeCGnlKyyjGyQjA8GZMWAT4hIUAynWCzKVGVKtjY35b333pOt9Q1cMLoyJhgGko55QKFExff4+DtTkJm58zI1c0nyxXP6SXazXhfrxFgxWkNQorTQNVA5JGgNUWE5nkOLikSVBxl1og3Z3bwqmxvXpRVsIeimTlLUxoP7SFJGUx6dDqR128pxg43Lyrg4yj0HgZ0O59TRcqbwKSqPNat12Vh7IJ998qncv3NPqju7EodmzHggwZwyHPviexwvoWV1705RmlFHPM6IBjg20QxCuXXnthSnZ+TZF1+QqakpVXjOqcnlh39eaBC0oVk4aU0r4VNjWSV5pDvn8309Zofv8RWmpTy9iN055LGoVqudBJoGb7HWk4W7QNtBlhXHt+y7fb2pBQg35JdZAtl5cFOC5rZI1MC9kRJaDMfffMDBcV81L0mdYf+kLath6NOhQXAtjCFwr3CLPW3tJLlVDL/HXjU63nT1unExBPtSejd/+L2zs6OWFC2qoNlKToicu+LJ6185C4sclpVOX3HqiUjSdCosK/17HEglkJnofkYIieQCbjk/Jy+//IqUC0X58Y9/LDdu3pQoCPQLKCzADsiMmbUyCrZ3HFRY44bxOOCm25U0+GTJiq2sDFwuj59ajwq6rPPc3GWZmb8M949vAnBZYWN18Ukr1Y2i1s8IJeF4lF1ryr1WtyARTRu2JKoYSq+EptYY0xXCgob1FG7J1oNr0mrsQN9BTlB4nccD1y8rcP3U/XMagAs9buX0QOuF2wNkXBzlnkEY0g8pqCW2g+EcR1pNu9s7snrvvty5eUvWV9ekWaury99rI5zikIwh4vfjsrCYr7SkcXyWFUNhJIlldfdeSdog6SwamBnYM+MmeqnPKQwiq/dXtVddWFiU8+fP6/IgLgY14kEY/aFJnjs9ltWwPKWJ1X0MbuoCAheKHw2dmlmRbHkR5mpZYlisJCm+j9nhxM/kUb6NJuO4eOZJkkGawHoWlynL/vOm5pSsJJIsLGYqUyxNqe1e0480cHAyh06H1hRrmi8fZ7JV8xQqCbO7tflJkE7Lo8KozszU0+F0xm1gactqGPrvsWUyPF73ene6CcuQdzNe1mWr1pDtzU0lK7p7zWZTrzdtsYdzV3Ly+lsXJV+Bha3joWy0TvxJmk7ashpETl0kaTgxsrq3WpZWm49KjXunFQHRtbpRrFnfk2K5JHt7VVlbW9WnVitnVuT8ufPCl2e18HO+hCGsLf2s7nD0Kd2QdD9OshpGUBbauBNwL4Oy4ZYVyJn+nHaQkZyuijBVmUd58FNX/EQ+J9+ibCCMw1S4CYsOGEGXoEdEPQwiCPc6c96UZRbh8/UM/cJKWNcvGjcbe7CKa1LdvQW3FOSIeEhVtJIV6vZxuWEbpqn/QdiflsHXHTdcvRlcR716GQdug3sUZEVvhXnQ8UN0+hybajQbUqvWYOmuyx6IqlmvSwCPResHnZmZosAYaE2Hcv5yRV77CsiqTD16tGTl5mUkkjScCFnV67Ny9z4sK87mh1vCjFmyMjADfpzAaImpFbTl7t17ILNIXnvjDbg4c+Ll0Rj5qSUnTvOdtX70kdUQKFkNy9MJw63QdAXphO2uK8SpHbgA5MB39fhqSpADORUWYXVWJO9PwZWumHzAytKguA9FVTjr+dopJRwPtITRG2/qJWJUiVhLmI2BYXBuVNDcQiO4C8WpS9GLJAx29UobEq1cNhwTO2AtRC17SvLbdQtH1suocw+HUWQ1bkM6iJQGhXMwkTllk4IbHsMhCdGto2tO62lzc0M2QFT1vSo6E5KPyWc3TtQN66ejnUlCVm9eMZYV3XXGnXwDQZHUzUmT1ajy7q4aon9PAGlzc1BiIlhNfGrIAl+YnZcvfelLcm7lrHznT/+rfPThh2YcCxXh64zrpwusZIq+2MuGC8Xhb5J7KyygvPhl4/MyNX1epqcWpVKaB1GVkruTaiNJkaD0/uEKPg6M4vfUgb/58QXzAYYa6uKObK5+IuurV6F3NVxRRy++g87FUWygN1ieQImV4fbCnuDo0HpKREsUbadaq8rq6n35/NNP5fbNW7KzuSUhLAV2MGxbvNYFre0uRnYUpwsnZlndhxvYhBtoLSsWba8x2C16fZzSwve5fhKu5mJvOPbeu+9Ko92SL3/5y7K8vCyVCiwKc0c3PE6R4P5BbiJxWMsq3WMMwjgWHeGGZUmbeeVxTT97M7hYnFDLdyi5bItfnJZCZU7EL+Mi8+6WGf8hTD5s79ZztXrHLNQiSs4PsqzUfSDPoSxjhg/y4+ec9AsxMaciBLKzfUdazW2UM8fC+C0+2n8cREce+KEGBNvTF7M11DmovBNSnVhWI9Arm0F1SwIiSbEjr1b3ZGNjQ7bWOT61rdezc6c1bNEXn+1MOJ0E8ahl9dblJ8Kyeuxk5cJNcKlckk0UPqc6cOD90qVLcvbcOfGS2e/8PLkdMPSSMZtROG1kBWrSfY4HMW0ZunVZLik8LwvLz+hkz5BfngaBceUKLStt4P1lRliF5jZNVv0w9w4iKzYAjoGQiDgG5QdNaextSLO2hduaSCdSjPhpBZqPREBiPklE3MnYiYaXMZM9Nc+DylvzQNgtMaJeDlFnhwHL/EkhK1u/Ob7Mh3pq1OtS29nVwfMtWFEcl9IvU+MyS1L2Hh7rLtIHdEOekBU3w8mKkwcVNuyu4jqFCDDhnu/pVId20EbPsSmrD1b1m/9vvP66LJ87i0Zmw0XIHl8b6aU3JjFZMC4+JXOPjYHjICsbhlsRPKYrECC9PN5BIJyOUCmdl3wB1qNfgPs3BaIyT/i4nE5GzOxiXZ9In9gYpF+DGUpWKGc7/kT09bpKViTLSOdL8WOa9dqmNLfXhZ+9ykRNuIJIFtJLlzWEcDyN0GkPamn1Pn9lp6to3gfpkFPnY2GYHj4kHhVZjUI6jl5YvTLqkhUtKWw5NLIFS+rB6lp3XIp1butUx6NwLUuNT28Ju3YV4+uGrBWWjFmdArIaiSQNj4esBsB9VE+wYsIgAGn5IC1fnyKura3J1Ws35BwsrDe/+hUpl0ri6ZpNPbLqIyqC+RiTrNIFfxgMVfzEEiSYBioS+kAtFz9fhJIU9Jt8Rf+CxMiLWQQP6cX1el/M1SuSVyFYRhkqFEErCEqZqj2WNUuCA+xUBrMKQz9ZsW71XqSNrpxx+WhJPUCvvSmdsC5hfUcKCLzg8wMNSGsnJwGuZ/oCet0MQ0Nv4AfdQwObHk37IB06RWQ1Co+DrKDFuu2kxgG5IkWjWpPN9XXZhrdR3d1DHaFzIVHhvI5LpYmABDcA3VyDrNjmLlwuPbapC4+PrMjiOBXDbak3ZrtTFzhJ0c6zGkRWvUz3CogFrcIeHw1EH7nC0uJ4VjsM5Mc//plsbm7KN771TXn5pZeQF2OFEQHO91Uc8jFuoaQL/jAYRFaMV+c+Jb/5DT5+RSYLS8rzy/qpq8LUDCxDEFKWLyXjXhBA0G0BOBLDsrJuoALEgmvsb8ZrFZP5prDT5KxxpoMuGynFJY8MfjAKWmo+F72D61fdW9MnfVGrhl66DX3lBF2unIDrOJcLmbD5sJ/eN/UU6H5yqlsObnx9mJBVF24ctEhpHXFog2TFp7gsS+rzHlw+jkmRrPjEj9dReLurd8MIyoI5trppLCu4gZeK8vqbF6GHCVlBHyZk5ZCVrWAmtkcsvQKyhc4tz2uBoIFwn8TF5vpgbUPe//gjqZTL8uUvf0UuXrwIMuMqlOZz2bYQe+H3MKyQ0gV/GJhBclpR2EJoiJOozDK+tGRwOFuSvD8jpSJIqjCjX5ThADpJjCHYMSFrDSlQnukGOy5ZEcwT88s0cJ/pVBJCkJ2gDlfigWzvgKiiGqw7kTwqh5YWx6MIXq9WmTPu0S1T5hNxuw3GzhVyDg0Gy8limK6dIOyEyscJq4dKnLSO2IYAPwdvAeW/ubklO+iU19ceSLvRNFMUgK7LB2HZd9tTKk+unrPOrPtOmJVhDVl96Svn0XFaskIYQ8hqUFtKt5nDkJWLYW1SkaThiSGr7nVoNGzM5WJFWlEoN2/ckNXVBzI9NS3PPf88SOuy5HK0BEwYgwp4WME8DFnRAiEiWCUMn2Hp7HJkmZ9aFynJzNRZWFTTUuDcKX7uSgfPQa40+9nwk+kLhqwM+meAuzDl1UcUSV55NcehuKdEyV4R9cmgaDVF4Z4Ebc5svgdrahMkSnebLiHHr7L6Tb6+lRaICVmdGDL0IFBHJK12s4V205C9XTOAznf6WiAqPvlm/YAy9B62Ke59kcjq0WtJH0yBjScGtnG0Ww2Jw7ZcvnBRXnv1S1p5P/nhD+W73/mOvrCpFZsUGse13A8P2Mo9DFiYaXGPUxF0vIlfZeGTSi44mAEZwZIqllekPHdBitPnJFdeltjHOeFCeCSSJAwNLamUJH12qkLfvJgxEEL5W4l1qWujR5yCUJOc1KUTbsGaWpOdrTsSB3uS9yIpwMzKIQUkOBu3SUtP2HkZMUcG4jGQzpMMLUsIpxrkoQshiGoH7t79m7fl9vWbukJCu9ZQi4uvMtEg4L6Pe4z1nAR0ZLC++tuX6URSx04JjmE9qwRsUDh1OMuKPYoNr79w3F5CG11vcaYkPHPcWh68vtVqybUb1+Xq1avy+utvyptvflmKlYr4ICsO1PMaO1ZhY7OkQyTcMBDudfZuzYeSINw9sZM6acHgGN+JzFfMl43LczDtpxE3V0yFlcVGr3ehbBCGjlE4T2CsVWjSi32Urc0z72KZcc6ULSO3x7P30HKAsQQSimA+hxJGTXX32q09pLuFC9toACGU3sRrwxhkUfeXi6mz/VclsPe7ltNBSO4ZtsjfSeBxWlaWZMBRuh+222YawvqGDqDXdmH56tir6Rzc+rVP9txjLtyO2NVZXr/fshI5f9mXV988JyUOsOvgOiO0dYd6sXWDtAyKM91mNG9OGrrgdUPSPAzd9CdpOD6yYig4Nc7TQFtZ/U8A+5XbNkSCBTKMrExGTLgkJD4NJGn94R/+IQgiJ1//xjfltddek3yeLlfy2giusbEdlqyMMuBum3YdQ+PLxNznO32IJ1uUXB7u3tSsjk1xKZcow3XpcScCYvpZBmZGEvNqwnLH2ghLPLa8DHpkZdE3azypWPOaTRVEVYMZWpetzTv6agynefCNfOPyITQ3bM1Tki8H/eUyIauHQbe8UT9hu6VvcOxubKoVRdcvsutLJXDnSFkMIg2Lo5HVGZAVhyomZJVk8oTIirANRIHeCKTFeVoffPCBfHr1Mzl79py88srLcuniM1KGpcWww9i8cziYrNy09JeDph3pNlnKSIhKjLkIHl82BiH6hTkpgKhIVlmvpPkPhFMSknBgv6PaNRz9SAKUlkgTFTGYrFgW5sJ9yqMWGFxeH5YaSKrZ2JEAsrtxV0oFkFM2eXLH8oL4qI/ey7M4hHzZBwREr57M1sCMnbjoKy0bXl/dHoDknqeVrKivNj6WKYcvuDTS6uoq3PFNqVer0qjW+ehPO1xOfCbcuunDAAKzGJuskv3zz2QnZDUuWXULIKXc7jiNKZBeeg4iKzZwjlPliwXZ3NqSG9evy8effSoXL1yWt956S2fD817OCA7gInEWOdENz01LSmHYwHmeaeeKB/zkGC0nfj3GK/PjDJBsCfnKoRHzySSUBKXOguf4ESeBEtyQrPTLLEle7cC6qxTMy6B5NIQhcDPIzTA4juHB/Qyj+7JX/0xae20cRwOAi8lJnYxTv3CiwO8YddNVRv5lnph3k/9ePZktQTsyDffIw5DVoe55SBx2HPA4wGKM2oFsrq/puCpdvyBoShwks8+dJFHHj0JW9kkh4dYb9YcPeyxsSZ+7nPlik1WjMSf37peUrOx7bQzvqGRlYO5l4Viy6qE/rZy5iyYsEaynQr7UJa33339f19B69oXn5Oe/+QtSKVfUAuOEUi10t9Fgnw23mwqbPhwnSZCIBK4dLarZuTOSLU4raXU/dcV10eHekazcCuUXRSzMk0AQhFoUJFljWbBMTKM3RMTjfa4eoKlBPAyOZMbV2L2oJfXdddnbu4swt1EdOeFn2PXDobiu99CBd9Oq4j6Sin3rFugh1ktyzsLW2SCkFdZAJzz0w5bvMKR04CRxUmSlamR2zT51EXpId4+zzTnzfGdnU9eYigIzwRcaouXrkpMhq+SHwjyMIagffTrlXDeIUAgen5CVBUPRBmUtqwrIio19TDcwpahHJysTjlozaOh8CsiXpMsgJo5l3bt7V37wox9K0A7la1/7mlpapeQl6R6SuJAfNmId8Eb6OIjOSZ0iBfDEDFzKJSmVFsQrwrVEPmHDaBN1XVa1eoaA5cLzzBMrhnlmznjclJEhq3TZdH+hK+a4E3vk+uZ9ae+swpDakUIO+SZfImBaa7accxo6gus2CoSfFKVVOn3vL4HbWNwGkUZaYQ2+eGTFz94T9sV6lhk7GhIV377gfKlddJoKxK+dEzsi1LdazyPIimRhYSflWrh1M4hQCB4fSFaXPHn1LZIV0/wFI6sOLApaVg9LVvvQLTTdpOCmtReOFqTNqFPBJJ+PP/pEvveD78vCwoL85m/9lrz08ktqhdAaazUDXR8+9uA0dUK9ni82sLIzuMbzZiWfPy8VEBVfmWGzhC2iSmSnG6Qr1lhIRtxz3OctNl9WQU0ZJXlJyobH+LIxwRn7YdyUTrAjO+s3JduuSqETKHlRsTQtuM5aTIQt9wlZISknQFaGgHpWKS2p7W3zhG9na1uanC8VGjec5UmLiuVEUC/ST2IPQ1ZpnUpD53HhsFtX/H3mAiyrt8715lllQaB6DdOFOLvtbkJWZocYk6wGwz2XVH43mUlGnXR7ObhHhbyOG/zopz9Ra+uZK1fkW9/8JVlaWgIRmNVN+SnzjMcxKbO+eSdXluLUrOS4tlR2AZHY53mGAM1LpEPKBziQrJhHlAOV1JSRyYsZJyIdckwCJ3BD2K5LM4BLsXFH8l4oOZAq157ivXTr+Al/l3hcjCIrG2cats4GYViWR91zbDgiwR0nWbnZ1+8JBAEsqG1Zu78Kl29LLfowMqt1urPPWdb2TQPqhdVVi5MgKwtbZysXU2SlyueU6dNOVnQDV9emTi1ZkVhYyFx6hkrCZWjefe892d7akRdffEm++tWvyYUL56SVCaB9RckVluDqzUsmPyfZ/JTOn+LAOJ/wpJ+MmUYwOK3jkhV7aFNGIB+cp5vH9/j4qfUoaEnc5MoI61IPP5ViHuUKB4/ropueOkF3rHA/JmRl6+l4wOyznsJWW9/d43ypjc1NnS/F2eg8x7IgD/TrS4+sDPr15qhkNQgTsnLBUHDKPg1cezAtjRZNytED7F08FFnth1sxhFvQ9qmbB5dOl1VG5e9W92T1wYa8/e77slery5ff+LL8wjf/miwuX5HS9IzEuZJk/LIEnJ2elI1Vwv0YnNZBZMWng2oBUWweoQFZfc4c68ROEhUnb/LDDK3aroTNPZ2GEMWcNwUywz/CffSvDwE0mv1p6U+zKfd+pdtfF4Mmi1qkFdZicNkcMx4jWWkNRZHOaeNrMnT3SFS7sKZIXOx00jAPOdw0u/vDy9g9d1SycsesjM6FcuZ8QV5984IZs1Kygg6dUrIaVTpHglUCbciHTNxxgh2ElTT0jXWkjSNRcdSWENYKP8Z68fIl+e2/+dfluZdfkr/44Q9layuS6fIl8XPzyFcO5ADXyqkdEk8PLEpODzBTBPrFHKdFQzuIW5W+8jHKw8bHe3IgoVLOh10Kao1qcvvGh2gIN6TT3sS5Hclmd+GuZsXvJE8EKSAoK8MIZBhsWl2YHBkZhV4++wV/H0LGBMrxKOKW1dgCkqBOU3J8KwJ6xPf2NkFQfGvi1o0bsr6RfJeP0xESC9lK2gonbNhu3t3f3bhxrxXG60q/HjFM3tcv+0FCos5xa8rEYNC1pwPHblnFaNCN5pw8WJ+RJiwrfcSveLSWlQsydLpCO+6kFoCTNlVwca5clmajLc9d+pbk82ekk/ekMMXPXuV10J3uroUJt5c25m3/hEOQFK7bdxwXG1Ix7hjdOKPYCI8DsSFnnt/V5VtmpzwQZR3K2UacEUJEeXWKKLZe3K412SOr/eVmy9+gv9xteoi+O49U/ke5x+IAfXgM6HOzo1iXEeZKnWsgKH5JxlpSrBt1y1Hnrt7ZhzyuZdWvl73ySuuri8HkczD6LSt2jLSsSrCsLhk3UL/vSAXEOYuk3k+FZcXIBsnDoN/ieMRQ89aRIeBXWAwxJAcUIA2knctxVGamdRCecwD4AK7VCsEfgS7TYb8movWKuyzBKMmYIykZBigA3L1MBFc5Qh8J4WJ4EtXh8t2RzY1PJWyvyXQFccZVXcWTT2v4bUAqHsme+6PB8wddM8EwsDpY3yQf1jMndbaqNdne2IQldVNW793TJYaNZQtrXfWj54736+IprQvbEaW3pwynM1XHDFWklKTB3o6FQbOaFhBXKbXjSxT+5lOdZrOhZj5fl+AXbzv8jrsSF5/EJcqYsCCj0ahsj8qehfvWndC0+NBjH50ZXMx2R6pbW7K3eU1a9Zsg1FUpeHtw9SAZpgdxsjNBSinseRgjt65VNQhJklRGwVyTEK8rI9Df0SFtiTwceP84cjD2p8/sD0RCLGrlxiAdvgHAeuV8qVpDNu6vybXPrsqnH36kC+I1anxNJkBHE+r17GyM5WPCsRi3/B8WVl8Hies6WneWx910Pi5YHXYljfFq+4uEbg9o/naVHMQVodcMA/P5MBJXgC3fjg8jkAjMr7RFSbPfmv6DgQbhtcCQuxJHd2Vn+2PZ3fpUGo0HaCMtVA4UCleZAXTuwaXmdAmV/YvyTXA8sJ0Z65NLB3OwfPPButy+eVPu3YHF+2BDPyTKDks7KweGGEBYI+v9FOEUENW4+OJq+5iVpNaQBe+BcKXOCARForKk1Q6aSloRemL7VI5uWk8M6ZGgdKZwhmNPlLpEzTV5cO8D6QRrUvDrUoAVxeWGSVKWqPQ9PlpgOreLwqqzcjC6pHsIGYVxrzsIbjiHlWE4ynW2bi2Mpd1B3TZBULfk5vXPZX31vlpSnNhpg9U17K21ws5H5QmCdnhJ3jX//eVwkhhlRQ3CsX8wggPsXM9qfWN2rAF2NUOJgwpoXCsiHc6w+5wBdiorJ1JyHIgD7DDqpViuyIXz35R87oyeBwXplAd3kJIqqltaUMgHZ8BLDvSSvDlvHzFzcJIqTOKJQGrlAgOsSnVnVSWO6rxNfNzDRmIHcllO3V4et2g6TZBd8Pwg10IbYB96Ce+WuWJ4uY9yWfaHb9GLZxyXZ3g4B8OEvz/9o8Nk+nr3dF19dDAkHIIfCG01arK7u6tuX5WrIjQauI3XJnWeDKa7YelChynYsuap/nI36D/m1pGjaCkMCsdi0JIyFm5J2Tcbls9n5ZUvn0+mLtgBdufKpP2cxAD7uCRl0zC8RB41mKBRYkEySouLYfelkZzXfpBbFlz3+v4wBym/VlwSPy0pvpbTimBlcfkPrsyJYxTGwJUOPGni0qqU8oHUq/dk9d4ncPluopfekly2rZYU51P1ExXTY0SnPUC60x70vF6q6TNp7F3fHXfqHhsG95pR16XRu4eKbMWFTVcvfY8KvbSZ9KFqE0FK+KcPpqwNSbWbDdnagMt3+zbcvhuyubUuzbohKhKbsZrZybLwk7D69JDb/XH0oz99PXmEoG6ofgCa9iTN3f2D8nC8cOsoLRaPuIROJ9wCseCkOT5pcxsZCcrKIFCZoyiUIIBwpUclq7bkOk0pxE1p1+/J5v1P0Ft/DJdvU/J+W1869lRBQFTQfzYc7Z2cqnErrXd+P9Lk4Kb9acXgPLsNrr/RueOKLEdaU5x4y3Xnq7Ck7t26LXdu3pL1tVVdZ0q/MoP6pqWsny7D9bb8XX0wOtEf1xMBS04uYZ1STMjqkLDWzDDoSgdhLO12U4JGVaLajsR7m7J19zNprN0WP9yT6RwnFRpl1yVq8IOL5k1wsoA9iroJdWBciQruOi2m7c0t+fzzz+XzTz+RW7du6fwpLjXcndSJelLCIinR5U/kIBgCM3D3LQYdOwhHuedgPBkk++SRlTVfXRkJnh9DknDUutE9U4HsqdWyoXJCVGmh9IOEikTReyJYZe2GNHc35L0ffU8a63elTCsLrmIGriIfc2s8SR44FpIOzzYSG+5DCUNM9keDqRpHnhzYaSVxHOqs/1I+h84iK81qTa2oTz/+WG5evyZbJKmWQ1KsAwr3IW55ariWuJzjrug1A/b7j7HuB0n/tVYIjksNk3Fh83RawHY3TCweqdYNK/zTABYEC8aSA2GJalzYyuc9qtywsO7c+Fz+5A/+F/mf/vn/Q+589pmEu3VYV3A9Ih+uRw7XmSd87vjUBMcPun+2ZPmyMSdzXoM1dePaNV2+hdZWDhXHToJV7jaSCU4HTqxl2Ab/+AkpBnnsF2M5GelO5sRxDnBzTai8jqN24NYlAmXnXKthgj/m+mQAlqDb4KMBXD53Ts7Mz8q//Bf/H/mj3/9f5PpVjlm1cS7megnd2dE9sFrslIckbc5vc+yQ6N7TC8/IcJCsh0k/BoXnHjNyUDhqwaZkFNL374eNmyWK+GHR1nZ35P7dO7Ckbsi9O7el1UDnAauWS7toB5rcYy0PUy+9PAyWwThNnXEaw8pfmfqU4kSmLvDdwIOmLrAi3YXhThIDM+iAlcaK4pYmuIQdKRWLMn/5W9IpnOtWarpyByEE09FlLIRZEF5DVj97V+5ee1surJTl2vXr8sFHH0q1XpeXvvQl+erXvyHnzp6XAGTFe9SqS5SfaU7HNzj+w/Q3Juz+RjTifqsDB5Kje96GN+ieIXEl8Qx6dehgC2dE2pBufbE+DPQ1mfX1ddna2ND3+Dg/TjsYwOojYcvfkNTDo1fWxr1LYxihHcalOwxsaVldWrwUy5feWNFljfm+oJl+Ya9Cem3dJGSeRlon9fZBZcfrhuSVGNkxJWnYX3pfUKgLCGGFmHGIoxWNDUehhWxF5JWXX5bf/I3flK9+9avy3jvvyr/+l/9KfvCDH+gHWyUK0XbMZNIJHh6sA63PKNZlWzgudfvaDdl+sKErJeg7fLCItb5HNKIJTg8eKVlZxTCE8EijHhtdogHYa9ieY7BVMxzGIugRFVGHRTU3PydvvvGG/MO//w/k4rnz8rv/7t/Iv/6f/ift8fkm/3Gss2RdqGHytKBLSCizvuVYYBlQ+C7frc+vyp3rN+H63ZOg0ZBOaCZ/Uuj66bItsMBoUVmr6mnFk56708kYjxknNbjKlUn5XiEHeBfm5+Xb3/62/ON//E90Ls+/+Bf/Qv70T/5EHqw/0Gvyfg7aBfcwsQBON05GjUbVA0mJ5aID59xHOXG6QRZl1t6rw/W+KR++847cv3VH9ja3JM80ktRwL0Vd7sTVYudpn7xa6etYH0bQKaskblRa0k/zrAy69jjF5tO+ztXzAoiTqc+HRbbbG6Xkiwh14ZJ9wlpWh7WqcEcy/oIt/g5yKau1mpIWv2H413/7t+QbX/+aXL36qfzuv/038vGH78vW9gbuhVvIXn9EfQytKypf4uv3wN9pGQM2rGGi4NbuE/a3K6PBfLpC9PTRlKcr+l6eNjo+6cOxOJLtzQ25feOG3Lx+Xb90rLPP6e7hDsINS9//U+GxHmzcR8VAK/bAcb/HCVM3mu/u+mgH19dxgnGnJY1Hm6JTCtsgKCyktPIeBnzSaMmN+xywzHDuIY5RXCuJTxE5452ftn/11Vfl1779K3L5mYvyp3/6J/If/+N/lE8/+tgsj4twrGvTl1ZYCk8/LDkBbPBJWZjGTyKHuxeYdc+5dMvHH3yoT/katSoLuFtWOm8tKa5u+SXiwv3dJR10PNr5JPH3Ab/1vL0WoofVkkpIILFmThXcvGiHc/qpYEJWKRjFyqqJfFRQYe30At3CrCfc8Sh9dQPCZWf4ZIqu3/T0tLzxxpflN37jN7Vx/d7v/Z788R//sT694tebc1nfuIUQNkQL2wiHYp8V9ORBp4G4E2fBKnEYyO7eNiypm3Id1tS9O3f146EsSwvr6h3OlWY5WbEwK2uqAPxAbTabg3iS9ThQb64363iBqHgNLzzVMHnpwc3v6cNjTR2/hDy2CJTjiELFGlfcBn10wkqIKulx+dKr9rpoMO68LUKJxvZycGP4ntrywoL8xm/+unzzG1+HS/iB/N/+r/+jvPv2O9JqNHRlBq7/7fsQ7LvWgiUkLnXctRC6+Um2yTVjybgY995B10Hw16ZuKDh/LRPHOvM8j7zzAw13bt2WTz/+SG5euyFbGxzra6rrnLaW9sPGuF/My9j84JmHSHOoSQqP4acKrpGChJ2CBHEefQaXm+ZXnWBRo05BXdAbhISLKWpR2byeKiQ6p7rqpu+0pbMH75/90yv/LNlPYUhDHdWAtUF6EoZFqTeKEnL+UDfzMMOTfYaglXiwVjkYEe8BsKb5OGC6SCR+zpf83EXpeFPJmfGgBIVselRcKHB9Z02/SlMpggxx3roDHc2/KY9Oj1n0Lz+0SsVfWlqWL33pVTQGke9897v6fcP5hUX9uEUnWeOb5WLzR2PLhk/o2e5gLd0Sc957BAO4+D/gGNOQPgbhP2ypLSx77hOGiE2Z0N3j59Y5BrULS/PW9Rv6Xb7trU1cAXcQt+jgNK9N6ZkJzey76P52D0N/2WBjnOOa/NrZoEJZXx0QV9QpK1GFMfd9EJYpd1ZSDmnnZ/z5/UZ2dLoSRZKWYUinyWLY8YeBKckESQdZqviyfHYW+k695zyr5FwXtoxMHaWRbltDU80Th81T93Kzc2IfjBg0KZRfYtE9XMsnJGYmuYE7iG2UNIVxeiaE54azD2OEQfeMT+cKpaJMPfMLEuXPJmfGQ+iFEsMt4Az4XBTI2vX3Zf32R7I8w1drWHwmgeouJC8v9ybHmi3dwxhaoE9rfFiHsPhWV1fl3Q/e1zWWnrl8WV5//XU5c+4CXBB+5IIFhvJkQ8dvfmIsoKsIDFIwNuoTgy1jrdte/RoMLn/L1VxmRzsKJI8kq3qgTBBL0AJJIe986ZjbHWxZT7Zh2XzqOJ5+xsygGw73U2Vhf/fpIQkJ5c2OJhu3UU9FaXt5qYGgtjpTshWVJWj7cEG5Nj/jbyL8mlwo1mS50JIZaSphceDe/WzbMAyri0H19rBwa6OjH4WIZfFcTj8YUawgP1FDsiz8U/rBiFNJVhZWyRSPnazcqrbYHx7JirPRc7g8FxqyWrv9gZyZHU5WtsH1x9ELO+vncF9Wx2Lu378nH330sTbYN9/8srzx5lekXC7rID0XDuQCgSQst5HsaxB9hHJEjFMfFn1k0A8bSgyS4ZI6BF1hHQNCPZCkGrCm6OZtbWzK3t6ePnTgZ/Q5duUuosiyVcJOpy35zfOqU0l6bF24ehiynDM5yeO6PNLT7JRkrV2Q29Gc3AgX5Xa8LO0WG7aJK5YG6G1XXvLvypuLoVwuNqQC8sqh4QcZuInI4ajOYRABEMOOPwz62wbH32KZO+PJl966/ESQVapWJ3BxKC81Ae9hhVlho+OYGyv6qAoYhpF+kjwH1/TixYvy27/92/K1r39N3nnnXfn3//7fy40bN3SQnuGr+wGrKv2k0Lhgp6+6LU2oC+fntbMgCZCYScjr6xv6FRmOT+1sbelYVZeogIPqiO95Eml3ZRjYUQVRJA/iKXmvc1m+03hG/qz6jPxoZ1mu16dkt5mRRpiTVlyWdqeCJj8lzeyMfNKYlbd3pmQ1mpW6lPo6i9OJXvp0bJZ6w/GGU4zHUqJkY6tj3DfszIKiZWSELR1qid7JlzaSGeBYlIFZjl8m2a6grJP7u2F0f/VkGGwaKLq0MSSEUMG1pzgGMCwdP7JyIHE5qWZ5QFqwMvj0kPc+9+xz8vf+3u/I0tKC/O7v/jv57nf/XGo1fqkZDRQGG6dMGPvKPN63jVpJC9eoJAR2JLFhJEKjeaiQgBLpTZJ0Hmok4BM+H2XDBxD8TP6dmzcgN2Xjwap+Ho0PIPKeWSyP+eP1BDeu2LKz86hYdm7daqngtyEwU8a0SJuZglRz87KWOScf1hfkr9Yr8pPtafmstShrnUXZAznxQ7f0FkzJUnwdx9rNLMu1WkU+3UYYUQkhMo8gYOTnNIJ5746nUb+QEy0P3T+dOLEB9karhIql9qAPxD2oNiiOuZeWBhH3MYHZ10KExNDIJvrPZqcoe02Y/TDJvQxMboTlh1NQSn6WHsoOE1GJShs0lDwpf01MCkzFINg4VZFhBgcIp1PwZWr6Ihr/lCEsHjOXO9gfHsNhEfFFcA+Nq7mzJbW9B1Ip8TkRFUEDw1+SllFoXt+/dYWXm0zpdAcwEXt/Ch+bnz1/Tp65/Iy899478v577+vAfGVqSgrFkvg+GhKsBBMOwmBYJwTm+3AwN9CLyyIvXE6Hy7Ts7e7og4Trn1/Vr8iEzWRSJ/LQrdoEGkJC/BQ9luxTfJQyuBL1Cg1BWQVgch7hC/U8xgcbHmiKdRvj2N2oIp+1z8r3dy7LZyCrjXAaHWYZ1xUYMu5lChAPP7GuQlcq0Qq4fJxUkfVLcmkqkgXZZIVpPY+CTXcaw44fBJv3NOxxiqZY092RwnRGzpybFS8H7YxbOgbazZMiCWtIuOl6H5pqnhhw/0h0Lzc76fo/JYCZ364jcTn54IEv/+tHgfx4+5ys556XWnYhKSD2BHzyFpotxM5tOg6QoOhCeHQ52EPrzF4j+pRHRS/dDxKo1rclIzaZo0PTggqzro9FDDKku7c4vyB/52/9bXnjjTfk7bfflj/8gz+UD0FcdKV0DCchu8eOZOyBIHFnOiHywHXPW7K3tyNr9+/K1U8+BVndk0aVX5/u5dft17hvf9t9u+a8kd75OBl/YafGhx75uCkF2UWd0kIHgWVKsiFn5QN5SX7auCw/2ZqRB0EZnWQZLl4RqaTlZ+veBXXN6hs7THQi6KhrTVjAQWhcq1OGPg7qg5uX04sT+SLzUeDGy0ItsU+KPFkLFuX97TPyex/n5Q/eDeXTrYrsgiVaaP8hFFHFC9Frmq8Uk0BUdApBfwVYF3MYqTF6+0KsEhVIimtOcctzZtkcRpJW3B7chmKVwxKW7dkoR1dmq1g9YYP30CNeuXJZfuPbvybLi0vy9js/kz/4vf8kG3xBWmHdQUovbY8UfeVu0hLActrZ3JC7t2/rGlMb62tSr+6qlcUpHGYircmnm25bjqPAeo6gH6y3HJSjAN4q8KOlmaqSZQQyamTm5Hp8Vv6ielneDa7I3exFCWG120m7rKdx4qJrT7RD89XudDrHCeOksb9zpR67dQJ06yh1/BTA+x+GuIEo2mQvhVEFjlNdN7A5YJ5VUlq20nrzi7DPm5PfOgfJK0otMyM3toty7UEk29G0rFYz8tl6IKsyI4XZBSnmPMlnmtiyaKF+fFwPS8KKKsj+GlK4+eMl/KVEgz326GhHUt1D7w4S8PJwI/jFXShvTwv7Nj0wTlgyzCucDbiAW7AS1qXEL9EbA5wXqWg+Ffa43abhxNK9px98bYdrv3N+2MqZFVlaXpYHDx7In/7XP5VWqy0LC/NSKOQln89JC5YMyycEGdCtPA4MKeYuuMIBX0Q1dkpHx9+qW9uydu+urN6/LZsb69Ks1RAQrEUtB2oOXVhkGT95hHUzHO65pBy7h3ytD36PNECAgZeXeu6C3IjOyff3Lsj7e7Nw+YqIjVMWeBvqjnXdhQnIhJpOQ++3D2ttOhfJ8+WanM3t4BT1xQ2nH6PI66jENuw+PZ6c0nwkelye6sjKuWm4gRxeCOAG8iJLVNxPbsL9g8JO1/v+KxJoUEPPDkb3crNz4mRFEjGnzD/+Zxgmk/pDxRBX8hv7sedLIzsl17d9uQaCqmfnpQ2Tfa9TkDvbTbl1/4HkikVYEcvSaDTRWElOvLvXI7BwxyGrJFbtRUlYug8h1T5Yvyf1Vk1mpyvi+RklhTBCj6/loBRrrmT6kzzQilKygptT312HpbAu5XyPtnkvJx3yvhj3MIkUk6ZB0gOvGXSFCsdIkATYlLp44PmLF+SZK8/Kz97+qXx+9bpMTU1JLpfDtqIuJImNaXCF6bLpOYwMgi1LUyfGYiVR7WxvywOQ1J1bt4SfvapX9yQM2ig+XKBWLOvSdja4H1sNS8vMbPeLdbkpyTVKbxzEx01ZkHKpLO1cRXb8Rflsb04+qc7Jp4152QxLcBeLydVGD2w8BsmW42O8imF3hb+ROKTZ7wRS8kN5rlyVc/42Whdzy3z0CMu9N/3b5JnHXEnHN1qGQc8lp5lao6soEiWrGe2QO3G7v0PWG5KbhoSfrvv9VyTQoIaeNeGkpQvz49FZVrgvbVm5cK0sFlbH74Cg8rCssnJjvSnNzBSuQTOE3qMDkFpUlOsbkdzcaEgmV5YKtMz30ACTd7cIrcAhLYn5YwNwT9t0ZdQUjlBxkeQLWTSkpuzBQgrCpj5p8/KsUF5I9bb5MxvuqILpXiiNGi2GTSkX4E4mysg/zK0hrB76fw3GoLLrIglXGxuEqahUSvL8cy9IvVaHa/iO1GpVJS0uV6MPOlLB9ay9o6ETo+ysVZscwwFkNpbq7o4+2eNTvvUHa/o7hrvHque1uopC4nqp+2Vu7oY1Mu99GWEpEDC50blxIDzyY6l7ZVmN5uRa64x8UF+W28GijuuR3DucCMp64636J4HmxRCGOZpOA3+bM1kJpOIFsKyqciYHssIp3I0/OfylXuhlfejPE8Kh7lk90bAH3HQALDlquSViDpiNpjbJo5LV+Sm1rDpqWVEnzDlzg73XCcfBcZHV8BsJc/KRuoEUZs40ZTZWk1mTYVtABGLP+tKUitzc8kBWLWlmKyaEDF9FaUoHhFFHoW5U2/Jgpy27jZzEpUXplKZAWnwSxw+L8ukgnbqMFGENsZ+L1eoB4+hHRZsIj99a5pNFA1MhVEzcm4xf8TE5Pw3fhOvSatdRl7FOxDSTF5lyXsT8MEbEwidNGgosq711aYGwynljYzKvJClaVAbmSt3DxuwNxyCF6YJKjvBooTDU2M7P8j05d3ZFVpYW5MHqffn44w9ld3dbX5wuFmBR4Dw/CaYzspHIEGVnxmB6cdk9m2oXZhKmuZ5jQfruo06xIOnH0m42dcb52v37snrvtr6YHbU5FcFYUfQ8GJ1tWKbGbIg9fRmZ9+QaA3Mn60In34IAg2xJ7nfOyCe1WbnaWJTtoChBjPrSx5FwATMVpAEdXTZgCfZCo7WX/DJ5T6eBv7W04UKGUkKH+XylJmf8Hc2/6r8Spi05TnzlPrc4zPTZ8mNQSZkZG49Ix3cwTDnZ+BwkQfXykZHSdNx1Ax81Wem9VkbCXMBSOnHYgXObMSqQeTvdBX/3xIv59RdbYUBSiQJTO+u3JcwE0kLB7uXm5WZrSX5wb0r+04eB/Mm1jtzaK0E551ApfHht5sTojHIGwfChHMYlgevBmbz7wOaBBszCRbxUwnyWofBbgNuy+QCWwb2r0tx9IJmgrudIYITNI7fMt/0eoJtbWohq/WhD0YtU1Jo4QEaBOmaF84vUUoFwzlIIcpidnpI333hN3vrym1Lb3ZP/3x//FyUuDnIHOG/d3O44Fss8EQQ5SP0NmB8tZUpWCn5OChwDAVly1vmNa5/Lp598JHfv3JK9nV0c56A3LGGQCImJ+3ZLcXFQng8CX2VqwbLhmOfH2xX5uDYjN+IFqccFrYcIPU7EV5rQYRk9NfVo/o4PU78oJ4TBe63OU4eMZQZ3FHWs9YhMWunFRL109F3has1omDiMPIlguQ0Ti0eWszRhHRU+lK+Sb0sJhFNsT0k+YvMQacdZuV8ryI/vFOVfvyvyB9cy8iCq6OsT2UxbWn4g7aQNKjp5JGoaUtrXQLpgj5cICQDqBjcTFlkEt3TrHgjrc9lZv6UfM80jYzl0lvyyLzOr1gY/saVPAekGcEF+Bpo0BpJAF+7+8YIkYMFxKi74R6vwrbfekueff07+/Dvfkf/8n/9z93NUShqJMM+Hgb2e4TSqNbl/5658/tmn+m0+Lt0S4vijBHNeRF+0Fi3L29UV+WgnI5sdPrgJZTeXlWour+8BmmtRB9CJiPOqzMiVHh8ftl6N9O7HcVps6FztKy72WnMuEV5Psoqhl9TNh8ShSIu6+gTgmFN5PMENbyQgKC+QL58vyouzscwFm1JsVvk+ik5baElBNtpluQrL6i9vxvL9uwW5256XamZean5FmlDMrluqZDJKMXgdScqIOWKmMpTAbgUoYKa1K1urt2QHEta39AOmObhQBT455AA28sHlQ3QODsNCr0oX8WGthXHAMrTlSAKicM4Vx6ps/BfPX5Df+W//jhTyvvyH3/138ulHn+gaUWAb3Ms5XGhEdNUYVtKwuDXCY+a4teJYPu1GTV3N659/Jp9f/RRkDusTx7m0i5mkmbh5SfrU0jih8mCKWqjz2+G0fFCblp3cski+LNlWEx0OepakQ1GgQ+uRCOHuO7DkogRDpK5DmJyD1+2cBWUpnDPIBwgcemjDcq1JrrApuXxVfM+cI5EZywj6yOEE7FvL4rAdvC3PsSytRLdNWRxw7WPGMY9ZsUFke2NWIX7zmN7CEJNCRPUYJK1pADJZT19/uL4jcmM9kGaWS7VkZV525NuXW/LmszPoA/cQBOJBM2h4EQiLM9rRGNAKqoEvH2/5Um0KGmNFpmYqOv2Ar3NwFnwWDRdVycTAVWDS3UZjt+a4biG0wDj/it8C5BIwOpvey+jLthwsDtsNdRmzUGT9Dh0UtVHdQgPekiJMrk7WjlcgNLW4WCKGxKhUvEP/6e+Hky6cXXU14XrhCh0Ij3UcLyOXQFrLKyvy4Qfv63t4HHM6s7SMc1RgMwZmwyXR0MKkkerjdwHWSQbE3G61ZGdzU9bu3ZN7d+/I9sa6cfeYL5SZ8XhR5kk41AAbpv7DlugeS8RF+nc/9p9regW5087KD/fmZLVwGTpR0Imh52Adl/0y8gH65JpUrBOvgfDbSB9Ig+NJSCvTtX/MygHZludI4tCJLMiogB7q+VJNzvpbKCOUMfSB46JcqI9u4PRsRpbPRHLucl3mF0pSLkF/Ud5RwLFTzpRnkIjZ0UkV/nN/p8TC3e8hSXlyys2HeRpoZrCbMSvmhxfafCc3peKxSBPp/isSaFAjLh56I04lkZwAWfkgqZI0GiUzwK69hLnHhmlUlYDyokx41BWmjRXbzJRAVhlDVpkZPTuTrcqbZ+uyPBXKuXlPLq/kZTqPnrJdlRbIqKEvxrFg0YiQlr3NpmxttWSq6MtcuSglKFa2E+icGA6y6/pTGquL3m9bQcaaYHqZCw+Nz0xPMIPDEfLdlKC9I63mHvIPxef1Wc7O3pZ2fRONmi4AycqEZv6RKvALBG9j7MXMMnLV6ojoBWjiUuE/sx/BKuIrOuViSS5euAjm7sit6zfl3u3bUkJ5TVfKKAOmI2vGX5gvkhdLDWXJ12F2trfkwf27uOembPODF826nmdF2ui55QMOG6+bN3vNKAxuhC6oa7jG/Fc8yCzLz4Jn5PPGjOx1SlJAT3OmsyZvFe/LSrEuHdRNNfKljftCWH455J3CF3rNNIokoH0pdsEIkS+c5FQVdkp8GnjW4+qukXjQgYzXlAr09fzFnFy4nJPpeZBliR8Q8WR6uiC5XEGq1TraC8NDQCS/VH77fw3HuGTFXUrRTl2wZMUpHpaEFckW4Z4kWenpIWL/ngBZJU8D7eJ76CJshmyY5q8pwG5oqCAtJAj/GcvKJatp3OLJVGZLXjvTkHMzWalAIWb8bVmudOTC7Ky0oYw7TZBGzH4fjUvHzmH+1zvSrO7I4kxRZnIgKpjdPl+K5qsYGp87mEUwbUZMdk1aCebBo23BpOK30kwWpj2UkmNjfP06bLekDtLKwC3koHy7sSF5feBow+GdVgi7dfd6cT4UegE6MHmjMD/69BCWlocyn5melqXFBZ1C8PbbP5PdnW1ZXFzSCaVKUHo/880GHcvN69dAVPdlY3VNGnUQQATyg0XF8JTcUVBKXLp10cufPc7GMEz0PK3CgefYyrHVfbPbgZV9o3NB/qL+suzGRU3HYr4uX5mtys9VbstSKYCutuRuuywNdGxRNi9FBOPTyrGBdGHKiv/6jwNUhGTTR1a5TZRhE65eS86fm5bls7Cq5mriF3ZACDD30UH50L8MdDYHqyuOsrJXo1WHf+xwHYtOwd0hwo2FKY80TBrthfzFhwtMdAkOy8q5OTMpFB34I303cOjFaZgLrYlzPEh8XmbKmPtUrv4o+sphCNSmgEnNFyI4zuJKDCKKQy4lUkQvWJBiJydLvsiV2bb8wy9V5J9+tSJfnd2VYnNVGugpGiALf3ZGrsqKfOdmTXZwbR0V0mAPcgBo9TEtbJiGTNEQQUxRpiYResvIa0vggZxQ/Ryj0MaDBpztwB0MtqW+e1vqew/UVdKlb0miOkZiQj1NYNmGYaDCWftciuZb3/qWriX1H/7D78rdW7d1iRquUsr1pPh1448+/kg/anEfrh+/iRjTleGL0wjPipbhGHX+MLD1pEs8AGEmJ/X8gqy2crIdeqivrMxmW/JL8zV5Hu4ZagMWelOWynDX0aMVkNJpGNp8JQfFcHRQ/yFs8Oy0Fs605IUv+XLhmZbMzrWkkEeHRqsNhJiBdQ/vWb9jmPH3ZGHZl9mpIggZXedDvFXQayvwGLqStJ1EzLLabFvpBx6nSyfTOMbU2aBMhZnf5pglLStWgSnawB3RwVdshwNhSE6yMa0bX3JQUD7DKYEgFuJNeaW4I3/jjTn5zTeX5Nx0XaYKgVSbLdkMSvL+Wke+91lDXQIYfSYsDlilAVJSywFilhkxh7kAJQfyA+hSBPeRAgpLYPJLV4ljZnxq6KOnpeg0heS8xonyIWnrWukU7idyMGw442HcsN1ruH7W5uaGBCCu1994XX7h6z8v3/2zP5VbN67rpM5r16/KZ598rE/52Ah4n9Yl7uXWDqJrXSZh2jK04HC7ld5SMb0yGigJGfSJnkEZUrf04YWPBgkrBXW8E6LTBHHk0Z3MZRpyvrOOLmtHStlICrCE85xEDGvNxz1ep4COCF4Bwuk1eCOHhe/xLYEyLJayzMxyKkgNVlZL9QKp7ArLi+XDc4U8dLjCVWFNnN1pDil5GKTrgHquT6W1HE1Z9rYnD+bdyjh4dCk7EnpUYHBActtNKYU1uejflV84vyu/fCWSeY+uCd+Dy0pNluWH1xfkzqZRyEyUQ4PiKpyDlUEbYFKQVDM+5m7DouMKkOMsWfukgh+jyMEaDGApcVG/mZkZ+fVf/3WpV6v6qatbt27JDtzDqG1mn+9rBEdEulPbL/0N1wpdEfv0jQ8QAnRg282M1BuhlGEJT8c1OVMAYUlVV/HMhw3c0FC3Jw5gbcBSb8O+orXdBGfasI4Ku+ZYuVRS13o0jMWepYVXaqtlFQbGET0pkAi7VlbajzvFOObWNii48aOwSs9t9y4yv4ukNx0EfUMfpm0Fvedidl3ePBfJN1+YlhW/KsW4Cb88L+voyX9yoyl7mcvSynKsIk2IAOKAg6CEFHkFCSGRX8S1vbjNCgyjQTVQYb54/Rj3PHow/z0xk1vReFAJnDPGp59xwEbdlt2NDdlcX0M7b+j6U9B2Q+i447GpfFJXpmyRJpBDnM3JVpiTGl9zQfqKsKTmQFa0vv2opTP1a52ybNZRpy24ichLAEuYizvSPRoNUz6DAUJlehA+SZ4dIq1TlpMVptIKlx9SC57We6YphSJ0lAPymicICtXKOBjk+lHMuQ68CfxmOgBa+zxm2lyil1Y/7faU4fi+yDygQFnghA3T9sLDpIdBCuEUYB+B9fZjDz0GTHv0j1KKd+VMble+ctGXrz1blkq2hvtCaeRy8tl6Vj7ZyKEn5SJsqBv02lao7BSqVbY4C2usKM0s1zbCcVSiKlY3fUxTIqxgCLORlj4k16k8YrD8h4pjqSCXeiyH8tS88jEVhOtOcekC1hWnIpgVCpB7bPfXYQ/74hpy3VGghgHqS18eTwLO5IpwA1FvGbMAJJw7KUHyAlcMbjlrcDsoySrJKob7JxEIARY4347o1i3+KlFwnNLIKNCdt/mn+0ti0pUmeAx1zfXQ9gnKWp8YQrJwBYvFOsiK42iHmxTKMkiLS3CWsNIgccXQZ5tfveUY6+YwSOtHUpV9ONYWowWVbBVKKqMreRB6vUnq3n0N3J7HFnFxLKmR42oNM+glZ8Tv+LKY2ZavPRPIs4t1GPrbahE8AEN978Y9qcLd4esWg8DJmxtBXjajKZHygrQiKBYUvdCp6wJugwrzaYISF8pgEAYffYyAXnR1DrrA6TKcIMxOpunRbe8tQ0wrue1V5F5zTm43ZkFTfFjTkoy3KTmp66RekrCB1Y0xdNjqOre6f0igI80XQ33xPAuLfhjxHz+StGpH9eg70MPgGFNnKkt7IVQWRR+PDoAlo2FycLJMXCp9cWAfiht3oIBQPb7+kg9hYaHH+voLUzKb2ZUs3JkICnx9M5DP74dQ6ooSkxWbBir/jbWa/Js/flv++P0dudWcAdVNQ/GL6JFgcdACgeCPkSFIn1FCT+RJApPrWk92/9E1qvHAcRikStpxHkZgSQK4gqzj9XhWVr2Lcjf3rHwul+RGe0l2s/PorNBIvUCtG94Xdfj0MNEB/LGuFPcNqJvjNJt+3eTtrljYfbqfHLcqVRAX7Hne65a1i2FhpdG9hvuQru7pWZMPjlnF6vpynI1n+tN9mnCMZEX0V85RMVZD3legMXpFkVJg3gcjUXGFT1pDxbgury2JPDsdwbXBlREnjC7Lh9ehFsFccr+BdYU6cC3a/pystlbk99/Pyn94py5/cS+SzfYslHsWV/LpVQ/2Pn2KkwjJrHs8kWHofkjhIEHvpzLo3HFLNy4nD+7+kPykz3XD6ZP+cMYR/QJOSvRcsmWnwdn0HGfLhgUoUhHiS82bkw93yvKX9SvyneZL8vsb5+X92rTs+nATfS7wB6sZOhHEFX3BOVMs6pPB/uaBfU47oXW/z8I3sE+P7VCBGf8b3BYskbiIYdXlCg218viCPbnjRDsD5MeSMWFerD69ODaysqytFpX69xSOBRgri+iVBaPtj5pjRFZ6GJA8DcuE1yWsbvimN7JiH5/D+JdCc0NeOjst05mGfn58L/Tl041Y7lTZkyXxJoqov5GXNqyoWq4kdbiWt3dFvvfunnx6rwY3oiAh84rrrNLZ/PN+OyXBhjcM9h6V5NgEhwNLl/VO2MbPKQJxhFrEcXZWrAPW5ed7WfngQSjbmQVp58rQTl/q/pSuHOpDYc5m1+W53H15qbQnc9GODoDbutXXqKzeEbZuu/XLcxDqotVLBfepJ4PEnOWDG9UdIrlfdZg/sbUyDFYHXTlQnzTdSdoZp0aGGzXtVk4XbEkfD5xKYuGz0I4CDaWrBA6c8HuFmd7uB5WuEO3JGb5aMMXxABBqoQKlnZNb25zJPLhqmz6UGYocgnzr/Bpve0W2mp508sW+Hl179ccIdUcnUJ1xrRFaOj46KuoNn+zuZKZgZc3IbuQJZwfoUzMUXTaqyUxmU15drMqvPZeRZ4t7MgVrnKSnTxfRTKzFND4QNujQWnzdYYM+kKSg50g34+AwBO+z3wEwVxghRhHW8eAw+RsBZiMtx4BjJSv7RMT2BLrIHcBIjlzQfT3XEQFl5SoJy+WcnJ3Ji4RtnYtTz83Kg71QF6jTWcd2fALCLwRH+Bdm2zoOEmdL0s4uSOSV+EAMiseJjMal8QYUow3npGCV3zYA9/dxiSVi5lE/1JqQc/+5/WJhy+dxwegiSUZ/mTWsYBVPeR0pZXPCFc9eiG7JL8/dlb95aVVen70pS7m7kudrWAnMbO+eDII+2cMpq+fcL8OV5JaThLm1GF7G+I3z05UK9Mm5YQzY6Qq6z/TaNLv7kN7cKrvFfTjfg62rx1dno3BsqeqREYJ0TEydj5QQjlaoIwfD3NePo5EW33rnWwzThayOW/FRdxtqsdNoS6sF6wpmYFoZ+WoNl+/gaxhUSM5uJiFzTMQqpc0Hf1t52sCGZB5xI7/Yf7KQWEV8twXww5oU6ndkqfWZPO99Jt84sytvLIcy57ck9Kbk2p4vn6xH+iSRr+lYnaDbZlw1q9tGBs23U1cMW53XpNZSv34M0hOGorrVNUMO1nOXpIh+4hkfffd187M/X4Mwflt+eIyXolOD/RVonv4cjMjLScbPS7lSkrwPJdOwstJo1HVBOquU3V5OTfc63IgqXEiuMgpDPdPUsQuS1XFhkOIeFkzvo4BVamsxPU6raRzYYQgOVrNr8uOmLICUXp5qyLeWr8mvn/1IXp+6LoVwQ27vZOW7d+bkj26dlY+bS7Lrz+lKVHQlWT9m+kP/Q5VhYH2Q2EhUppx61tMo8J1MPtjQsf1HDYf0TiuOWdt6wY1mWxZMqnA4HmVFMThpdEfyPl89LUgUoVY7ebhsIBY2JIobTiIcMOcjaX4AYroM8imYOKjE201PPm8sSSszpb0aSYwKyvTlIl+yUVFnurc5JwtJwiGd9d7BvR0QV7p3uxNPyR/c7MgPNyqyW7wsrXxJarguQGPJIJ186mQW/aPiI0BNI9+2p+th4t1XNglYpNoIINp7n6BofNjuEzSm9LnHixj1xk6kjbQY64ffkoyzXH2jLvV2C7rYkkr4QF7L3ZJfnL0lvzJ/V56dLko9WpH3qlfkBxvPyV+uX5G7e2VkyJBS2O280sxh6ofWGsX8Rk2iIyQZeVFHcjDd9aMicDcj1Kvqk9XH5P7ufdYLsRYNGg5XXdB6wE+KWmgQap3Vt7RFZTsSXqfXJlvbCbv7BCfCRmJm2WsebTpOMY4xdSYo47+bjNsVNlmJ3cfMKRkJW4EWqGy6Iy1YOm2cIwGxjhifKo4qw2Dw5We+5l7IcuA0gDIYVajHOXkQzsPFK+q4lQV70zzO+Z2ixFAePrHh42yd8a5PO801actoreXLdz5vyB++uyt/9O6W3AmnJaosSTOTQ2x8+dqUjS0vVUekRT/KOiL9B2FQ2T6MGKugJy4smRGulUXh+B2F+48KTI+SJsrWumtcEYMvCFc6ezox+CtnOvKNlaq8WHwgy/621OoZubo1Jz98sCzv7l2SO50XJPCWYd0UQRbsTKBTSY8L6tGxJ5bDQLcn0Uue59hozo8kXybh4DgscgXvgbglafWG+qt6ZOMYYFmN2ylYfXTT6JIU99Uboa5ZoS52Ixhcb5rWQZJgYLkcMx6dRh0TuFDag3YsNRBPx+NyJFxEr60kMrKpa6UAnFuSKLTJfm9cgoWtypIoTRckGCWZgzGN++bhcq5W5+W/fJqT//f36/Lnd6ZkM3NeGoiLjSiGQofY0gKwqzecdrDnppLbBmXlcYPjiPy+ZCtbNhYMoISFjmFO6vKN6U35W2c25Wv+57Lcvift3Lx8p/6c/PHWZfmrxrNyTRZkM5tDfeBeEhTXQCegL8wfqTfdTKgvLgEQTVhwmaitU2P8zo6Uy5wnNfxJ835YPTTxjgPXoiLGj6uH3mTX049j/nx8r1J7LDteI9+P9H1GEZuwdD7aK8inu0VZ78xJKzfL0QjTm+gVAwDF4wxhmrtcU4pvxfM9MFPZGfOZchyL0AtynWxaYAdXPNJjeyZXSIZSkSgzKzvBjHy6WZD/9MNV+d0fbcg79UW53lmWPV25AYUM0orhKmTQWE4zjpuUToLkbG0x7ELclEuZB/Lq1IZ8eWlHil5D2vlpuRYsyV/eK8q7W4uy2p6TBq1mag3dcC7GCJJT6xfeQQ/YTzor6oSrF/a3FT6MmfXrUszuSqkE1zRDveI8L+jFEKilDYFGdsM2a025YeN+6KZ1/VyScq8b5fq5+4SGYc+xwXOfadEDbv4Pj4fnkcF4uFSloCZoslU8ZKZN8vrD4DpF/BDEf3xnV/7ss1BuN6ckkGnx+ZGGXl3sA5WYgg4QZEVrLPV42qk8g+EKRgyLK/Km0AjmEYcPN6SMnn9O7stZ+fP1Rfl/vh3Kv/uwLe/cb0ujTdeC4xsF8fntPp0KYay6YZKe1+XuPy7YNHSFaRzi8lsh3Fno48qgsDjOmIcGcE0z+G/6u9ypyS/Pb8ivLK/LsnddVlGV3907K3+w84L8LHhJtqMLqPQ8XMSGTMV7Uokbkos55iUS6Mx91AVJC+SFX5peFyQFdaUc5IoFXR9rpdiUlblAKiCrbIaL7SUXOBhWY3ZsyurhoHvdePv1tR/uufS++W3alX3K+yTg+MhqQLmxv3DhMu7RWBf9HhSpjB5xszYlf37dl3//00i+e29ObgbPSrUznVy3H3zvKYoiqVdDCSIom8bfI0P0Zbq1oKt4UDVSmdKi4yUIUl07KG+WS37wrXpIo+nJB7cD+c/vh/L7V335uHFJav45qXOiKW5MPwa3s//pNtq3ACx0EiHicuUkwfJ6FPEMB/NvpQe1hTqhvlzO16pQ0Drxc8NblBvRs/KX26/LTzbOySfbeWn4XPKnKWFuUwK/CdcR5a2v5ORR9smTvsRCZjZtVt361fM2HbyOx4AAulXIdWRlOisLFcF+U3xYzTr+NIBUNPzUYVpU+i82K3iO20YYDkXTdxhA38xXufvL9FBgnIeN94jobx0Phf5KNPuE2fJvWtnt78M0AC6uxpUYm9kZWQvn5d3Nkvzh+w35jz/blqu7FdnNzuocGV2LCrmzFc4B0hYObLd9aXB5YSi1ClLmEpXOdEEPbZ4CHb54GF+XZLIh9IHuAUx4KHMriKUh83KzfU7+5KrIv/r+qvzxOzuyES9qA+NTR7oivXi5ZThJeN1jyfkRlqtbtocp38Nef/IwupRu2Ia8jehqrDjPsmvl5mU9XpKPdqfkRw8q8rOdZ+RGc1m242lpo071SS4Jy4slhC7xlRv7RNlYLb1wLUydJoLfxtKD+87LkQ5OPOX8rUq2IUtTLSl7NYTK5WbYUbFAcSHLlLvYdEXrmodNGPygCF09uoSMizhKHR4W+gKzSpJv3fZD4x8ljwDDtf0o2JfJ/Zl+WDTCtqxLS1p+W/wiyKCQk21vWt5pzMu/ez+S3/+8IteiM7LRqUi2VJJMMS/i5yRqZGWnWpQfP8hJA64aoeupk1CQbo4dodaSHlT7a73msLC9G8PlpEJ+NJONoegVJOeV9GOssVeWun9WPqyuyL99z5P/8S/25Ltrs7KVPQNWRbdMMA1sRIlC70f/8XRjfhph2pST70xbsn4ouXJR2vk5WfcuyPu7i/LDtTn52cYZuVpdkI0oo3OkuGKnx3knsKSimHPXSyhikBdIK4K7ptNQnHEhF32uJ4jKEiWfKvMLRlwn62y8Lm8ut2VhalUWZ2ix5BEWlQnXI56h1WPzgzDtE9QIzED3LMQx/RIBwrGupx2uoHSPHSgmXz3BfchCJ87hfo0ywfG31+PEsJbwEDAVqcTFZTdIBGoZ4GjCwOZpXCpqVpoVJstVSgdlhHUx15KVDHqyTkOyMJm5MmQDBHA3XoDFEsq/+u49uIgl+f6tkny4tyTXo4twuc7JH72/I3fqIIFMQXRFBoHr4AUyDU+Ay1pxVkw3/iOCeaRFF7Dn5hSJqK4fJ1jwquK3V8WLdySMOVsaBFqYRSNbkM/XPflPsLL+/Q835Z2tGdmRue4qptqrIlzbu7rlSNhO8SRg43LjO0kkmjOwyZj8g/wToeXMMqp3yuiczst7wQX5y605+elWRa625mUNurCXqUgb1/E+khxHtLh2v3kIws7I1POBxae6nEgCdiLmBWSOa8XyTDmS52ZDuICBlIoIF8fbuFzX7eeikPhNG9vqPqUHXKhWfkJUfMYzosxtnZuONTk4EIwDwtfe+oTHjefQcwOTvHX3k99HgE3X6LQdHm6JHQMOzuDDKv5MpyW/vODJN1em5HIpp19HZgHz6d4ueop1/4J82n5Jfu/DGfndd+bl377jy799N5b/17uR/GBrCkbONHowTwdUi7hnGmS1VBAp8vPJgLqAqtZHSyiVk5+pp3CaQibakoX8hvzqa9PySy/PyDNz6NNhFUrY0CdFuU4bPXQF7ull+f7tefmXP27J2+si22hk7VxTCYvVpE8y0SOyjO2AO2FJzCL9+6g4jjCOA9Ylp7AhBygCroHPxfW4TtV2bkn+fBdu9c4l+VHjknwuF+WBtyK13KK0/Yp2HFbnrCViZSC6nVWvafQaH+uCL0abpZOZDlrgoBd5bikvS9mqnFsoiQ9dUpJi3DpHb5jeIzw+6EkIIqPz/KxV34v/uGGtLQt1VUmWx80ux4xjLpGDg3vY8vBBLhfPxvKrX/Ll77+RkV9a2pXnslu6hlW+2ZZco4baaEgEhdkMRG5teHL1rifbjYLkc0WdtMfK4gcC+PEHfk79HDyvPMiLCmPdLlpeR0orFI/Ka0EHYNqL5NXFvPz2Kzn5ndcz8muXanLRuyvT0aZEQUvnjtXzMazDjtyrRjoA/18/LSHNz0k7WkSey9AlM0O6p+BWyQ2Oi6ROL0y+WbYtWEYPOkvyTvCC/MnmFflkb1Z2wilYW9O4xkN5hbCY61KAm59DfQ7reAz5j4ar0bRmqBcEiauAjnMOndELU1V5ZnpHLiw0ZGoKaeSXt5FGX4pq0XGi9GBQV1CP2DKNJGT9inlsOib3KXXffiKE+7tf0IEn9xB0K9OuoIXu8zol6tOLE0gdg4Qw44nJ2X0rPSmfh3Jdsi3JZXdkMbcqL1buy996Y1r+m5en5VKhLlPRthTjqhS4Cl8hJ81cCa7CPJy9BbhkFVWGLFwwzisJoB6NZlOm81lZzkPBgrp+lsnioBnxw8DlaHIRic6UA5eozUMZ+Dj9rP9A3lqpyt94NS9/+415eb60Jyu5APlpg1wDaXciacBFvducl7+62pHvf9iRRrQgQSsjUQjHha90oNM1A/j7nxA+DVALhIQPBTHkbKB5zaERl6alml+Szxtz8m79rHzYuiK7ckZamWlYMGVUAD9nZdY01/XNE6KiJdrfmPsV0F10kOjXV+NGEjxGwvSgR6VgF3pXlTfnW3JxZlvOLAaoowbCYL0krmcEyytpAzxm2oUR7dSUgElYOITMN+p8EmjiOgg2Dwe1pfT0BN6ns+YHkSjTpvGPl4YDwbQdkL5xcUwperQwCs2vKu/KSumBvHnmvvyffjUrv/JyILPFLQmCqtSbEQgJvS1aty72rw2bg6JQEVRWKZeRZb8pr56flrlciF4QLhtqXcuVjYWKNAL29ZK08KXncmheds50SrhyBunloHkJ6chIMVOVy3JbfulMVf7Pv3pRfuOFojxXRo/sNUGWnKDqS9SOZadVkT/7PCs/+fieNGExwqZktECvIR9FnhSwAVIs2fBdhcAryl3vjPystiA/2puXG80KPw2CfOVHWC+sKxPGuGVhB9qtdeKCukdHrQSr6kx2T96Ybcqb09tydqEq5Zk6DKoGIuJ6HvwcPQU1hyAGp87opO5BJzkpeW+3hpzmlLgsqfKc3R8lhwWfaj5JOF6yUlYeB71K6oJkYoXndLsf7NlIBB4UgT1W3NyTsjRkOlyV33h5Sv7BVxbkl8+LvFDek0prVfxgB9e1EGRT16FqR3nJwfVaAWl846zI62dzaAh2XgvCA7GxFz/qe3rW2uELrdk40sFgrirKsSf2ZlRgWlpzXlvmMxvy7Vem5B99bUl+a6UhL/g7Mh83JBsEstcO5Q4I98+u1uSv7ueklSur5XXwp6IGw7qJ47qK6d56VOM+LPY3EpYZJHFvadW6lg0tJK70uRnOycc78/L+Zlk2MrMoW7hanOCLe9V9t1YBtyldJMn08m7OJbGac9hSaIXoAxLUVzPLhzdmAjGcS+3oOMZYiddlOXtH3jhflecXN+XM7IbMz6GzQ52SNLqhH6LIOM+Ok92DFtNexJH+9I+CzZfr5hHMi7WqXFJTYoTO80Vm7fhtubEMD5Fmgve7cpIYv0QOhA0KW5v5VPC2t7Swv9MNYxRsg/di9qaoVIgPd3MK5v/ZcE1+aXZT/v6LIn8L8vXllpyDe8gJg3T/UEsSwtpZynfkays5+esv5mXF25RQk8xBXJa2VeGjgU+IOAbFJWXycAdJupEX6mB7HunMxSWkYUrn9ZQyDVkMr8tbpdvyv30hkN95aUZemcpIxYNSoaW2CyKfZS7KH90uyI09Q3w9Eu8v2+OCWx+WMCxpuFaJK3aGOWXQsbQMDouvHSEivu+JbXcWPOsCpF+PKvLpzox8srEgm3IR5D0F+oCFHKFu3TrrJKta9IFWr30KZssNrhmHBSB2AF/HjFDGnMXehiHb9tHwSVYkRFi7fhShzppyqbwjb12sypeW7sulxVW5cL4p02V0eCRbTi5lPMwmxHR6ts6GAdfjngDRxFFBOgHc/aQzVheym+4DpPu0z1P9srBWV387Q5qYXk2bDYOw24cA47FyjDiGlJ0ecK5U7LdkqliT184F8nff8uV//3Mi/7vX9uTvPL8lv/P8hvyjK3fkn7zekt94KZKl6boU84kiJY3IKpYdaD86GA5dNtsYh4dHvcoXCvLmMyL/5FdAWBfqUs7v6GKBfAK22fTkj372QB60Z9Si5JSwIz8AOAKY/pMHyocvEcdl9CmcVY7faOhttLBtvySfhgvyfn1JNjtozEiOT1cNdBXyidzA5B2t/nhXFlaxF3b0oQ2tHD7vW4AV/Gz2uvzi4l359csdeQOW1IWppjx7TqQyB9fNN9Z5PxLdGgnEyLyCYJt1EhasIc5dAFxraJDoNckgetpdHQcmnHHSeDpwtBo9peiwp+BnlfgiaWddVrL35I2FHfmly2359Rez8lsvduRvvhjIty6Y3jGT2ZNaaw/bpNfVHuxgKPnYnj8lRwE/zkn3sxDdk7OF2/IrX67IS3Blixx8z2Vloy46O/+dG00Y7zNQTDgl0LFB8Q8Ti0HnDpKTB8s9EZAVGy6HncnGjWxO1rx5+bw5I7dlRRp+EdWU0fyDrnW+Fdspmrj+64cN14B1Zqd92Kkfg8BOgGNNxRDWcaMqyx46v4W6/MqzsMjP7Mk575Ys5jbk+UtFmZ0TabU30Oi5bpa512AcEkDaEquJ67O1m3lpwfXnV27GwWEJqucGYx8/9AXmJwi9mjwWpIMzFWH3RsE1UQ9MVJdU6J+zdzCDkZzvq7OaM3AlwD+S4wIyqHgcK2dhcWWqkG14GlVpB3VpeuiVCxwfGA7XemEa+03pweA19r5+BTZIu0IkKz/Tkhw8iDxcwy9P78hvvlyWc+UGLKmGZHIVWQ/m5YP7nnz8ICctuL6HJREb12Hve7TgUzM6d8YVC/2sVKUot6Mzcj9alGZ+SeIcp3Bk4frT1YMDiOzwdSnWPweoY11Rg5bG6Kd/LkhctmyoNn4mgMse6QTk14v35Vfnb8m3VtbkYv4e3MANOXe2Ja++OSX5+UBqPvRu6gw8rxILuV8A++BlOHAOrmMcFqVR5YKSvL6X3lHpTsOOUVHcfFvhWBVFiRptKI7NQL5xBwHbrsbstB81ju/z8QMBN4jhJb8GxWOF4LWUI4OFzDEDxEg3ieNG/MIuJc8v7eK3KgYMe/bKZjwAl3NcoTsW1INNi5tGF+yp0uIifQ9jsJK+j5MImX6u9z4Fpn1xLifffobuR43PhqQTFeTWZlY+3p6SenZOGsH+9D75oNvchpVp1vkKYTnUQczXqvPSjEo6F46fVeObETpxUhsV3WE20OTBw4B61Kkeyf5ByHWaMhvflefyd+Tr0/fl28+JvDS3I0uVdTm3XJUXX8zI88+VxMvsIgVNfS+RD3xMrR4OZijezGZvtUXqe3Q4c2bs7sSBeBFNr70h/dx/FFEfEcdIoaysRFRhKITdHjdsPDYL2NfBTQ5O+jq2kwc5FaNQhcTFx/9Rhx8C4JhIXgrQe/9oD9c0V+yU0nIQ9t+TvEKi83t8/Thn2PSl0tiTb65U5YW5yDRSNMy9oCw/XSvKWrtgZk+P7LGHw7pBB8mjt8RYp019Ake3mJ/sr0XTcqe6BKspL+VwF/XaNJdqp4S8sHFBDzjFgRNwaZWYcFhDBKwMZIFP+LqrGuA6Y2XYyjfXkwiL2aq8Ml+TX1hcld9cvCnPZK7KJbiAFy55cun5jCyv7IiXXZepfEc7RHaCfELIaN3OR5lAN7RybFr2Q5/M4YYo9KXdhotLHU0Yg9aQRddCSsanrAvoWlNE9zpH3OMELVC73wfbbrtld7pwjGQ1CEfL9JGtK6eQqTB8ytd99YUKxF4ZDSGD3tBH5ZLQzJOW8TDMwkojHSLv0eiHIVESWhOBF0rQqaHRNWWumJVXn12QmVwdbm1LXaN763W5tb0rMls+zZ3gSAwlQLojWT7dC7XR3vWuyEfNJanhSJNjOuxkOAjPJ17pBjWggXXj6dZxUs74F8ctnVqShYVaaFXlbLwqb5U/k7/9zJp8a24d1tSuzENefn1Knnu5ICsrLSkXOYG3AFI0M8x7ekrrKNkFBhLBICTDAVEUSBWdU7vNl6kLsKJLCMOcc0kmjUEENQjucb0OREeS7MGUy2nH8ZJV0uhUrPJ0j/VgH8m60FnuiRh37jBJM9cqKTh1oJYLzlF64Jd1Q73OkFVyeAgs0Ti6qKAu7beSkpMO3PTwHiuqqFzsCFtjweBC7Mce9rORzi1iH3tlISdnSi0p+uh90YSbULJPVrdkrYVrYVmNQ56PC9YyS8uoczbvfElmNV6SO5zBj9LnO4Fhh6sEwE1SdeIEXzMexPsUVuf4uBRlqeWcySm50FWzDTrCab7Vx0X3ZqINuZxZlW8s1+WXL1TlmfhDea5yXy7O7MDdK8vsfFuKparkfbh9sKA4pqYvRGsUTLOZ8mLFYphFpQ9mElFgG0Sx7FVbOg8winMqaX2y1pRrSdn8WNjfXUEAA0ULJoEtMwX2u7/3p/1x4zCMMAZSGYTSnSxOX4EeFcMqYqHQlNfOF0QadTQQrsFUlw/v1eVudQbkZeYTWeV88oFuhFYTGiW/87fR8mQn4GRMEliSv5SVpGDnBwJxCUMn44LuObXBA8EU6AcifI515eKyDg3MhWvyy4sP5HdeqMu3pj+T5woP5MJ8JJeeEXn5tRmZWUQ353FGOgegzf0uaJ0oiWjZ958bNrBuSYdCchKvIM1mXra2W0gbyAhkYSf+8hq7tQSlv536tvv292HQI3qES5I6xURF7C/NUwJ+FSSOuG660wt0MTzZPHOYTKmVBwtr4HtSx4Lxw3WtMIt8uCOvXJqRYi4Uj+9toOHstMry+RoaNBRdG0zyBMyAinY6lW08kGQ8CeDybbez+rL5voaIOuuVqlPjjjXOxez4i/OxWB4wKEBTeZkO6nIlc1u+Uronv3WxIa/Nr8mid1WWZtbl7EpNXnmlIsvnQJheFcE21dI7ufLMShDCxW0UpdVAnACnLXRgSyqhsW4TorJwyyJdLnp9Iu5vd9+IsfqMpMr2FKNXu48FVtH2CwuShNVut3VAcBT6ipsK68oJgKSiXtsAscdJsRT32Diw1gGFbsaUH8tSGS7LlIfstPWaIDsr12FdcZDZhjuI6J5MxPrwYC+CxJ60dEb2sHocXr88ox+khR7xDYLYgx2a9eV8vinfmFuVX19akzf9j+Vi4ZY8ezmSCy/6cgHb6TmOD9KaaoIo6tDDQZM9AZBIJiEU7qsAtu6spWItLGtlmYH9RHCs3ohlda0FHS+pe2q8Eeo+FwQ01lQ/0fSESP+2cH+nzxHdIZexYUj/ceIwqR0bLBzt8VVY4PidVOygghsGVrrvc5XHE0nmySAhSeYynVObf1eIUUTDVRs8LyeVhQJcG64VwQ8ZeLKxsa1ETvgeXCDnm4dPLuCksfiKM7IG968VoOFycUVdvC65ZBwk5MZXXfiaE8MtdPgC+UfyS+d35PWZqsxO3ZWV51vyzOs5WbgkUpgFsaAMO1xNlBNTVTgHzzx1HAlb5x2OB6Uqs+ta7QfnhNWqTdneaKEh8qX3BMnwSVpX0sLOfNBxFae9WRfStaasPEk4Pg1nxsfMPIpLxS0sKqMVfcQMc7iSi+XFFV8uT7dlJlqTfLQnnCTpo8fjOAZ7q64Sj1CKh4GmB1s3Z+745GCYdGnaoDTG+kH6tAfmQRZ7UvSxeTlZ1+BOI8kTl4WZnea7kBxqziEBvrSjrNQiswAc+m2QWvIV3wPTdrywlsQgOQpYpxxn2g6K5Cl9CEILRN8yGAhDFLY8zQqcPEaS4T6nr+zIfHhfvnmpKRdzV2W5fEdefDEv567kZGZJJFcw7/WFsMTUiMe9Oo8rCbMHnuyJXf3CXMc4ky3B424vhPrNoD7NwwO4qDjVauTk7p22FHILEgbmXiWZhGhOFNQtiCEt/CY/Go5MwDzCJU2W/Ta/DayeDdU1HrdyjEhK9vhA5n5YsBAyfij5zgP5cvGW/Hc/l5e//0okV0rbUunsSLG9oat8UoH1iQxq/mEayDB05xrZpzcQ+6VizkK3cbrC47yGT/rs0rVB1JQgbIkfesLPx2diMxfMjJMlipAQE+GGB6cIhdqSM4UiyJpXcl5WXr959/lGVlrebE/hTgiaFli3Nk3jzsGy14wrVEc+GeOHPZoBrMWoiEbN9anGrVeUp1o5tI6K5n6QwJn2Pfn2uV151r8lF5fX5bk3A1k8n5FC0Zcc3MxcJwddK+pTPp3ekoE1ZsVppC66T/MAk3ZsEXffk25NC0+wfhluCz9hRYGwOM64dgf53DkrreYAi+wRgV96arcjkCWkjTRYBtJpJCyDJrYQRz8fF5JSPX7YHkL3E/PTmqPjIObAquTF67RlOVeXbz6Tl3/0jRXdzpU5BRB9X0IGBHsqO37jgvOoBsvwe8aFG4YbFi0vHd5FPDiKDVyK3Ky+0d+bmIh//FBBFmUD6YL36H0GnK5ARdan8RAuk8to2PNvV1tQojyNM21SZkb0kw6Qsa7iWgZt0Ip0y4PbRHCMeVZBeTPvnJtlzuMoiIYLMa50tuXNS7FcnFqVczPb8tKFosyWUf+xmcjZIxjeCdK0JDSgcSZn+tB3jISjicGWaeZJvYDpYXgeSKEgjdqU3Pjck/VVEDPc3UjnjSHt3Nr8UdTCApEhTCsMd9B+Wni/296UDNkeE+GwDD9EEaEvbLSzkJw0OTEVbnDEuV4g7155Uhwwbym4+n9SOOYvMhu4vYQlrEFIx8dGblws9LCZImwKfjE3L1N+JEvejryQX5NfeLYk01NljUMtnrF73UcDfbUDvZISVpK0rYbItQdNfSm3ifoP+SoJl42Bic19qhPH9QahZ3WAuHCNKR+D3d1dKB3dSENojwO2DqzQCrKW11HA+0KvILVMCWTuo10Y98/NtwvVGZQhZyboEjp6kCuENqUiW/LiVFWend2RMzPr8upzvkxXcA4VQ2I6NigR9YT1runa18jz0m5V5PrVUO7emJJ6rSgh6i8a0IkbfSAZmbq1kh6nsoSUFv3KuHOdKwS3+gAL1n67XYAlmwNh+UpaLRBq0KkgHNP+9CtLrlv8mKys/RT5mNCvjLGUQygbhO/1BWGIQjXmec5H8eWhxKzEEUR40hg+KA5lAQnR8qP9h9Ynuy1P/vhnq/LPf1ST7++tyKa3KA24gDp/CO6VGZMZ/Al5SwKtFqyoAdAHF2oN2KqEIj0mZToOcLXU3WYkmyEaDDor9u78vt8gUGdIDEr+uIQWCp8cZ/gEL96ROX9DXp/bkfOVDfnSS1NSnEK5+NAj3uhY5UdBT/dIHjBtWeZWeDQC6bYz0g460ghCqdZn5PrnBXn37basbaDTgm7o1K8EmpeEYOzT74P0m6Q0DixBudBjCD+KcvJgK5bN7Y5sbnVkazsrOztZ2duFtdXISRjy1TTzeppabAOsqkeFxxdzAmO+IxkoBLpOLA8uiMbVNOn6kNE5UZAL2vGXGViHqauFjYaMjRWTnbQ8WuhKofT3SRr6m1MNZmQ9WJAf3/flX3/vtvyX97ZkM3NWtqNZtbrYIJknXQwOjdWKJSrmtVqtStYjqeGYcw5NpXvNkw6+Vc/Jn22URy1bkYjzyOg6ox7NrCmWaSIoZ9thcKOWTGKF8UGEn63JylRTVgr35dJyR6ZIVLrELC7gk1Nt6K4ACdGMC5a5KXcTBhdM1EmdSCvf9xMPDTw7JbVqRT56f0euXQuk0ZyVIIbVgjRo24fTyxeA0vVnf9s4rLjWU/rcUGGH5gihLhtIMYzysKYgLbNtYttSgXVbz0BAtk0Qb8A3KMxbFAZOuY0Cmy3lGPDoW/MQsOIUZG4IB5FDuILtzJS0suXkxV2cV4U6nFKdBKiLA0FlddLI6/heGz9c0fEXZDdzRn7/U0/++fe25Pv3p2Qve1ZN8GGgqc7P3u/scP2twZH2vkGHOB2ifNJA8tHRSNR7A24g1883rtRwNSWN8Z1K8+4n7kcg/ABDJRfKhTO+LE5ty+JiXrxcDtfBQoAekbD21d8hicqObWldq5gnZ2QBfjU8QILWHmzKJx9vyjs/bsvG+pR43jKsJg8pJomYp2y26Vu4wwEkmsPAJSj97ZBT+rjZwmJHkluw/JstWHstH/u+bnU/wHEQVaMZYj+EHpIgSax9jw0fGR4pWWnvByHpUOir070JQvOZbQqZm2KuoUtFJTK9KHsDHRw3wY0FG9coGRe81I17UFh9jStRZLNEDewF6gjM6VBm5ep6Vv7onar8h5+25Ifrs3IrnJXtTFmasK7aEdfHjiTkmEI8K6vbJdkOSkreNN1VCaEwftSCDYKy0vhQRrp3uEb3ODCUdJF6fmarHqCzigs4kpSjdT2S8lRx8srQ9Asx2SrCjqSAsn7ea8gFb1NWlhoyXcS12j5JbEYHlaz6wrPo/d5ftwmSp2TZfAukFSjphLiAC+jFcF1rtYKs3/Pl9vWcrN72pNUs4rqS1BpNnKfrxdrtkYfOQ0zEkopLMq41ZY/Ze7vXJ78t7P2Ee869j/nsxFlpw4ducZC9QeECgCVNc6tdVEtLrS24hEETuhvAWuTSyyhAimmTGmQX6XKzomX+EEi04FHCmL+UWrMh77z/jgpJS01MKmYOXR9LwOMnlcx7YTmogoe/WbiEZn3q/ZnnseOGrYx02FQbxp8W89jcvrNn5k/xq8+Vzp54QU0fWXtwb9reotxqLshf3J2W//n9uvwheuCPt2KpeVPSyBYk9KEoXlHWqiX5i7e35F6jIPWY+YfSMh6koOQjLPTQGS9xIzVVthFb2Q/bMYwrR8WgsCjmHF3afomzaBiZgjRDT90Tq558WmcahJsvIyxffSHdkhXKmh3Dy8WWnIsfyMIiSB3kknUaryEjCtEf3ijQJTWAlZFpQF/rSDM/FIG6RrcRRRV5sBrLJx/tys1rkVQ3lyUOz6C+y2rFMPyYc7lIVLCwuiScQEkn6Yzs7zQGEY+GA7FPAlWgjFZYjma/F651I+muknwCWFethg+y8mW36snOngfSxTEQVbsF4gJR1etwFXGOUy3acAuZB32SSZ1P0mDzxGg16hTs8UHnDkJ/aT0S9BSi0UCFx5HOxP5f//gP5drnn8OfhyKExroihhGQzexRMn2y4PwpLt9i3FY2ooWpUF65VJSF3A5Iawt5auiVWT8PIsvKDnqt790oyL/6YU3++Q+a8ie3l+RnzdfkBxuX5X/+aUPeu8uB4xIUHw0S7oa6PZD5+Wn02CygXjVyXpIqTJ+18OTBkJpDICPyYzsTlkIurMpCKZTFGZTPQkGmp6cYmBKA7XgeDoiFA87xlMTBlIStkjRqsDxqU/LRB7vy2fux7KyXpN1AfUEXTKp6cMnmUcGNMx1/ujxC6Fiz2UTbrEttry3VWij1ZiwNWLv1Vkeq7Yzs1TPSrMEK07Es6CbMVUOKKBZuEsI6bpxMqIPg9Ga2gPiicrk0Ja+++qr8/M9/Q67fuCE/+uGPZG8PFgjZ3+kN1T3kUxIdRGWyH13SLbqNIlXBLmj1mWVuzGsxPkhlrhjJr/3cZflvf/EZ+dqVnCz7IC2uE++ZPHGZ4mrnjNxvr8jbqwX5z2/vyv/9P70r/+Y71+Xte5Hs+TP6RKlUKiMGWCB0mzuBzHBWOyxPtmudIJvE+zBlQ2VThQOof1YeCRJCMmMjfHCAsoR4Y8Vvyp0flb80L1L092R5sSieT/Lm0LBxk1l/apkndx0GTJM2SpSxB5c9l1uR5t6MrN3x5Z2f3pXVu3X9ojLJLO7QmuLEYPzsu9+4e6x3ZBPX43eEPIcRtrC88KMrsH7YmXPc0orez+tYRmgf5p7eOT2f7PNevZ/h0PVM9tMwpoEOPOhf/mqFICiQEwfYt/cCEFQHZOXp1AZOcahhvw63sdaE0RGItCJP2iCp/kH448Wjb/EOjPmf0c+6n10+K9/61rdkefmMvP32u/LB+x/J1tamuk28JohQkChsDl5Cg/UYhQOydm6Pnd9j5WFgiemwoeiifhA2eFVUWIp+uyrl1qp8/WxD/saXsvLfvJSVl+YDmfMbOI/K7cC9i1jJ/ALirOxl5qWZW5J6Zk6CYgX7seQLbMSwrEBsxcCXGVTdysIsLCuoBlwLgtMfdFncxGl2y8KVcWAJ69EDDY0qb1hFfxOuu0jpQ4az3E3nMNWpyyIs2IXZFqyq5Dwa7j4cofcniWoHijLc223L2q26XP0olOsfwUXaXpCp0rScu9yWQgl1wnEdWlZJPC5JkEh0i7Asweikaei3/U0y6xIQr3Ole0+/pMlp0D0M06J7HFsXrIEYysv1w7hCaxgVE6LiaqY5aYfoEoIiSKqgxzixtQmS5qucuuzNCeExkJVRQP08O/e0UWAfilnM5eXy5cvyxptfET5evnbtunx+9VOp1+rqMvl+QV3EXrJJChBWAgrXDlAeFgwtLS6MNWXSTdiGrO0pJfqKBpcX0adyvIPfOeRXmqECcUPmiy35hSu+/O3XZuRXLnbkcn5b8s0NtISavpvWQr7bWbgV/GoL40EvzgXfmCpVKoS74G/Jz12pSCnPOEzj7uXbpn5QTp52ZKWcDWXOa0opV4flgy7/QNhyOri8fE6lCPOyuZqXuzey8vknNalW61KqNOXKc75cfj4v589PoWPhk746aobCQXWjC5YwXAIxx41euXpkrXdLJPZe14LS3yS5RLrhJmF3r+mSHt1hkApYhe0oTKwyfryV97AT0A6Wv0H87ETbJKu4oGOItVamS1pGPH0tikTVatNVjEBkgT4Y4gRmk6s0bDsafHYUTl6bnd7RmvmEbfAu2Otvb2+rFfXSSy/Ks89elnbQlJ+9+7bcuXNPTUxjhveSrRXBQ8iKeRJ33DDha3qR/vRLnftAkuL7VAlZGbKBK4NbqDD5bFsuoOd/Y7Yq376Slb/3tfPyyy/Py4y3C+tqF1EE+hheZ2RDLGHpAC7yyvcEF3Pr8rXn8rCdbDxJerrlMn45MHxXDkLXQqN1mzy+T+MwFtwodOPSXmAMIP/lbCDT2T0p5xqS80EaSWMfH7TcONTggOWKOqhVY7l5bVs++2hX1u/lpFnLy/RMTp5/JS/Pf8mTxTNtyeZa0JE6Es936uq4tY26Yw2h8aJI2IiPC661ZuGSlJX0cbYZtjFOtKalaK1YlrW++wrhdBh9g6CTV9IK0GG24erpqzmczpBMc2iBsLjMTRN9NAmr1Q4RNp+OJnEizzpFo9t2jo7xtXpMWBPdLRwjPRNXTV78g8Ha/c3qJK5evSY/+cnP9PjU1JS88MJzIK0X5ONPbshffO+vZGNrFz0DfOpWoAOBIQqd17pZsfE8DFh/fNIGOwc/jPA1Gs5ON9MpBoOvJ3Q6Ze0ZGQYrvJ4TqeWNe8iXkfW7fwh3qVSXt1Z25B+8KfLff6Mov7i4KZeyq1KOthBQIFXcWwM5NT00gGJRykVflvya/PyL03Jhtil+hAbRbYwo0YQfxiGd04ueC2jn9Ji6HF7mLFd2BpmOJ/PTHSllH8hsxdOnyIeFkiO6AS7No0MOICmJ5uDyTcl7P67KrWst2dvbgw6syrOvZJSoFs9w1c9tOAOm42Ab4JNDLsGs41ZssYCrk3afum/1tU9QiZZo+XsYeK47hjXkuv4wM3AR4eKFHgjIgzVv7lGdSYZXuNW3IkDafBcjAlm36eIF2EIaLbiA9RlpNCpSq5fg+ZSx5bEK2uQ0zlfgLpYk4MdPOCancdh8akRmy0h5LknDQTg+smImKSOgOqjp6pGTpp2sjopZvXdPbt64ITdu35K9OnonuER+LieLC0vytZ//piwtn5G/+Ivvy+fXb4K90SPgPAuXn8q2BZGusGGD4TxuJQ2r4+apGyop2TKtar31WTD9YiYO+AjDXMP31WApq/DDnDkNiOdj/exTJd6Uxc6avLEYy3/3q8/J3329Iq9Pr8uF7H2ZjzZk2luXKe++lFu3ZDG+J7/8/Jx88+VzMgMLgqrEBolSMEqGclSlU/Sny5WMju8cRnjfaGgjT8SC9w2TUeDY42EsIqNXJm+5TIA6rSGMZDBdr+jl3ULTwXqy4qSJOhSjnvgtv52NnHzywaZc/WRTWk3Yt+h4zl2YltffPC/nLhZkeg56SHczsXBZ+xoGKoJ6GYMQzNYQBdOQwZbzBXlp70VqN402LfYpm9nafRYNRcPT+0yae23AxOUKjXLjLpr7rB7rPu/DCVt3zAWJihYmhUMsJhxoHLIZwLoKYFHRsuJUh2YT1lUdHWstB8LKq8XJ3/WGgLQ8feWoDYJkWXCqBMuWbQBBmrjGxPhXHhf6TEGzb4+EgXkPkNvV1bvieSzIWHa2a7L+YAdW1gvy7V/7NfRsO/Lhhx/CHKWJbbOQhJJU3nGgDTKs+1n9GGrED6JCqTmpU2VE0bESLAlyX3VsBHIIq4TrF4Pb8isXHsDK8uX/+FVP/vErBfnNK7H8+gsi//BLWfk//Ny8/N2XZmSx3ZAMLEvVvMcAugn2gcYgjENI48CO5RyEdKfDRsdxGOwkR8aDTTO/NrOz1ZJbnwfy6XuRbNwvI88dWTrj6dduXnhlRsrTIEUf1jYbekCSNg80zPhQz8rpkUhPumNMye/udajPriTnrNh79L4B11jYc7rv3Ov+dsHftnN2OxqCv3uSuMYkGQ7kRy14OGivQSTNIJZ2K6Pzr+p1tJkG2gxsDX4On4TVbPoStnIgLRBfyHcMYW2yYRySfo6vZY8EC8vKfmgiQGKzc+ixXvuyzM8vgqzuScTxm5bItWu35b33PxbP96QyXZQvvfaS5PN5WVvdRoMpye5uFe5gW2c1uB+INBW1v4JGwVYckY9zRtizBAhfXcImCLKB/eENySbBbg9a350WXDvHsLmiZVbm/I68vFKQX3y1Ir/91or8tdcWQVgluIyxLHW2ZIZrfdFMx7Vuep8WaB1qpwax2yFwqlv3WR66TTW8UfrXB5Rpq5GROzdrsnY3hPXQkHxpTy5eycnzL8/K/FIeRgeOFdB1+SYODkXAcUysOKN3qnsgLlBLV8y5/Wlw9dPea/fTBGXdPfeeQbDn9V6Gw7TAlVNRQuXTQ1NWnrYbpJ7u34BOxpYp/upvgvlQ0grhJoKE1Mpq8zUdzoCHtMvShCtYbxZAYDmQFs5BWi2UbwQLTduEExfTa2UITviLzIOB/gd/UWAoH1t1LJCpUllmZmbkwsXLsry8qOloVFty4/ptuXv/gWxtbuDCUHK5jJQqUyhsT62u78E1/P5f/oU8eLCqL/w2SSx9b+qb+ChK6AQbgZXu+R4Yt99qyVQUSRFEmBf0pHC9Yg9kxdctkmsGCUE3r1vJiEOfJmpcDpL4dRzMM8v3Sjan63QVQIiVzn1Z6KzLcrQuC+GGVIItyQebYLcqbjYDomxcqWpXpNPkyqlGqox6VqnNZb+YWeUUA2sJWAzObn8YClrkFPyOIjS8Gu7sFOWZ55bkhVdn5MzFjnh5DpxDt9BZ8AOpbPAcvsjAxbEPG+y67D2yIOEYsURlz7vXGUuJnkRP+q2o/nNWSD7q5iVExPC60xe4BTHx6RzFDnyr4A+3yIXG7wLB9vKD07YtpXWI7jPLi0vI8PUortDA5WYa7aKOa7VbJfwmaZVBWjl9ZaehFlhHLTISL9Ftk8OQtJOkph4lTAJ7YIZ5DI2PpYBEVaZm5MWXXtSCvnd3Vba3dlEQkXx+7TNcB6c5UWj2ArVmUwrlKVk5syQ/AGFdvXoVIcFHpnN9AAyhpNOTAHG8uBTLr71ckHMeiCLalRyUgWtzh1JG5OMU3ZCw+4AeGmkoUXOwz4+ctn3kAATGdwoLiDPHBdE6ZV2Qrqqv4cAUh4tqK/FpBAlHiWiMcqay71P4xFI4EkBI5dmqvPBaLJeeg6W7CCu7COspC12NpyCc8JmTWq2JRheo3poZf4mrpBhcL5acXJCMDgNLYCGHTGDV8d1abu0+51hxKIUTTSkhz+s1kaY3wn06SZT3axhmX582p2CJKu3W29/GPWQbZtkUEZ55NcdMbYBFxXWyQhAVl/xpovXWke460tSCriNN/JrPuDhYE04UiL6rjGBOr6PuHWe2t1tQDi+n41RmsuiybG+uo5DbqHAULHsQdAEZWCLElSvPyjd/4RelgYL47p//UB5sVaXeRiUkwVNJqNAcZ9FZzUS3sfcqib0KhemqZBvyiy8vy9/9+kX55rmOPANLZy5oSSFM7h+KJFw3fN0OhrXAuq5lcq1yd6LHzAe/LM1xNE6S5pPUHrg/PPwnBeY9v1hyIOp8ptHX9EdB6wtgWXGs6mHGy2iUVaZ8eeVLF2V+JZKMv6duH59KKqAXcQBLYbcgOxue1Pfwmx+ZyOSw5VgdtmoJ0arhF2r4tJpiXC+eo+7auUgBiQXn9DUzWEJKIokYi8qIRs193s/raEbZY4moi4jz1lUMkQaKnuNx1Rq0Ldyr1hbiMO6hfeI6TIvM0Q6Iy4oLHX/qcJqDsfb4+g2aiU5x4LuFzeTFaL7z2Q6Mu1jnnK2mmbMVgNBomenHXUF6cccM6mvYSd4oR6/V4wCJqm+wmn5wCNLyxPfzqHhfCrm8zMxOybPPXJC5+Vn4x+apSxdovPliQb+KMjO9JM8885q88uovyvufrcpPProuqxvbaupStGcEzIxv40a5LoNC08QnFQgXp2aCbXmrsi7/8MVQ/jfPNeSVQkPmeK+bBhcgGpKONZXp/tn9wWDecQfi4nwsWm9FuBV5HNBeC9ZBDBIP/LaEnpk+0SUzpJHCxnk4MfkeW5CG/rcDemH1jjvh4/reteMLn8uVUAazKISKX8UvTuo0bq4l7XGhllaqascBmjg6M3ZojJBlzc6R0ylQF1r2bdlaD+VnP3wgH73blKsf16TFuSnCaQqoR3RkNFBABbjWkIYKyQKiceA3YcaOEkGC3fEoJRE932uslqjca7h1YX/rWFdy3pAntolwP4qSLa0vXGfrIA2+eD0ODJlTL02cUcgnhrCo6lPSrs+AsKakFuZlF4RUjXKyG1Rkq1aWrb2K7FY5rpWHVTalT2BptdJSM4PwPViWeExIogdBmKcpti9F4aHi2Xi5ZC1XjywX8/Lqq6+In0MmUC6sCPYaAXuJxKyl6/fjd96Rjz7/XJZWzsvs4jn59Pp9+cuffiDruw193ymMAoTLr8SgUBE/pxbonBjsq6B8dAE9gD09F/dnTz+dz8qXnr8ol88vwepraNpGgySVEJqGl/TMLpQYbTgoA/zd/xib6dGNQZI2C7cRq3WWSBrDGrt7z6D7Hge4iE6p04C68jP/rqvulotTPvoXv5I8ZKAbhwbLVcvWFQesE7g59T1Prn22rY/n4zYa4B4ojeuRwZqgVdCAtdDky3L2nhTYkJluWiCaflxjG6XqoaOPeh3O6fiSumnGEmIYFJIbhee651FWdAeNdYZkQfjShxmvMpZWCPJiu+HEUIaN3X7iY7oHpP0wsONpDL/djqXJeZGtjk4ebeiAfBZWVRYk1pG9eiw7kN16oC9KN4Ms2ion5phP6XNCNNvqw6XoIaANs6sQpmKMGNro/UaBqzmNHgWFXClX1I+meNnk6zYUjhlg22g35Ec/+6n8+Q/+Uu7cXZPLz70qpcoijr0vb7//AQqJM4wRN66lUnDciwXBY72Ztu4+X51AgUdN3Q8FPS22KdJPwVF03HsgrHIcSUFsOY2+l3k67dB6gOTilpSkLvxYCMHXY7vEPwZoPehy0bbxjQFr4QyCtTo4t+jW9T3Z3SaBTqsVUEMjC+EGsnw9rrFf9yGGRGixkGxUEoLpk4QguhYPLSArPDbA0krDEhjXhqOoW4nf+i4tCcyKkhckGccyx5NjSm4m/MNqIFOkr7xpm9kvdDsjWGecHMplZbjQn86Ap4sIYuJqDg1Uc73d0eWsq41IaiAwHm+FOZCrISx2BEdpHccDNEwu3Rt3alKr1eVf/X//jbzz9vs6ADgzw9UFUHBQOCoJC5UVxvGseoNjGXzrvWe2qjuEbQjzgWtxd3xf1jZ35Qc/ek9+7w/+i87H+tVf+jUthD/+q/fl89U6moL5LHkWlaVrQvXptVaBIRoVcDynV3HBXXiSWT61G0FCJlU9aG8/frs5FXhcVhabywxn6ufME1idQz2KqByC5x7LWZ/QQSfGxTCSSqPZCKVWRRoDPunikay+ZaGP/uE6qgVRg4J06MpwLpGZvW4Jx0jyG8TArXXLrFhSMuewD+G+C/d6wrYD6+6pJATJ4Q8NE/vWgtIpB9hGej1dwMRqUaIkw5gwelumYXAZ6fkElnQHgUaBeVqYUyEZcTVSvrbTDPIgprxu+buWfLyC0yHa2A9juoScjXjc0EY8XuVXKkUJwqbsVffkr/21vyE723vy/rvvydrqbQlgAdWgGVxdkaZrFynrwxQQK6AjhUJBzl+6KBkPTIxejrNf1rdq8p3v/Vj+5Dt/KfPLF+TZF1+Rj65elx/95B25v7aOgqCDhopNM4zC5IW6YEWPdfPoioFt5Ewl5ThIyro3aTlq2Pb+QXDP2f1h154UCugclktcESxE3JE+LdWit9anK0NgG7A+gncrMC0JtIEnMgxNdHokLJRI0oFGUq7kxc+j/mPY3K1QNjYCaTVg1fEQ1JarhlB9KXFEwuCwBYnCuGhKIJCI7hh2rNCVs+e61hlEX0DGtSYMQy68hmEZIqTQ4sI1KDd90keBJRV2xfxmHth+WFbqrXSHYVA0STH06wKuSYRl0C+DodwH4cMwvmPI19H0XUMlJL66Q2/IEFYUFaQF4eRRs5IDB+RJahBYX8NjOTJQC4nVwYKgSTsIdPUKxZxcunwB5LQm77//vpw7f15efvkFJLoln336mWxv17Qy+LVhhmndtlG4cPmSFEr8xBF6lQ7ffypIHQXwV+99Ln/6vb+S7fUH8trLz8vc9JR88uk12dqrJ+NWSQBjweRvghMA6jkH928q09apGzokoPqE1ujAum3pHp9W9kmBi0SGId+aCEBQbHw1qUxnpFiGjoNgt3ZqsrHewPHe02ImT60otU6M5eG6ei45kmBM52uO2fO0hrpTFKz7ZoXkl7h8IbwSeiacWU7XzlzLfeMqxsn1fKLONdFiDm24hsCJwpAa2yTnZek7tLCWSFpKTrCiWm0ch+vHY3S5SVQtuI4hSI37x1izJjFULFMR7LnQC3ECZUJeaXBmypmFeXnzjdfk0qULIKdNWFk7cvbMMly+oty8dUc+/PhTtbg4k5gPJjyyM3uoJAwLRhd19mRmqi3PPzcnea+hC98xTSwMDtZt7Tbl02t3oGy+vPTCCzpT/uadu7K7V5MbiKuByuxkYXJC2CupCc1wERvFwioRz1uxOOe35K9dmZI3V9pSbt2VWbgLfgM5DUsIiL3efiVl2tNyFNhebFw5KdiGeFiw4XBsqhTVZSnbkHIRuuPDUmH5oy5j1CmXEVa9wjFaDWEjkEwjlumgIWfC+1Lq4OpsCZZMBZfwSTPqjfrH/HYFOopao7lj1wIbB56PBuPB4hH4gt6WzCyEMreIsP2GBM0zcvdWXupNuK3s/HCYFpIlA5aHElVSLlYHeqSLfZSbHTS3ZUiSsU8A9RyJC9dzqgPHpezqCS1sWyAgLtFC4diVcfl4P4Rh4r6QpIZzLeS7xXaEcxac6Io/sKpMurWjSGAG/rntF6KXF5M3M63IiOYjEVrCtMr4bmQmopucwzEYFm1YVI0MLFeOZZn3DgNYW23sU5okKxw7sW6I/jqyA9mvDDZTHGDnG/OlQk4uXjovr7zyoiwvLsidWze0F7ty5XkpVmABXf1Edre3TEZhqnISqHl6yMafVDRbeNyUYr4hv/SNV+Xy+WkdoKVryLWwKC0UEgf5spmCFlwhX4ICCEz3bVh2H8qf/dfvgiBvI+1MG19ANWHvwwgzeDHblG+ezchvvTErf+PnLsg5/C60G7q43mFhXTDmsycsAyv6WKEr/dcNl+OETctxgCmjTuRhWc9lWnJ+lssIVjmFCUf5YYaeLvHaHAgnh2Pz2UDOZHbljbldWSpSp8zn+bO4AonrlyEYp3xKRePyhfGmFKfq8tyLMzK/iLx7kaze83Q5Yz4gAIUiwN5TTOoQiUrH0hyBgkGgu/QJse02ZLIAuRT3kKg0DF6X/KYrSeJSsobwSR8tKEtOlqA4qK3uIgXXkNToRrbRKbeDGJ0zLMUk3B5Mmm2N8sm0aXcH1DHbBISekAv+sqL6zKf8GiaXTkI9RTmVOEL7BGE1akhXPZImpK0EButK3cCseP/sn175Zwx0P/oj7WJoZWqrQsa5uFdF6rUZmK0scC69a+7J4hwLhhln8dAvRrLNvZBCoSTLK2dk+cxZuXb9OlzBT+V5WEDPPv+s3L13R9bW7srczAzCE9mGNRShYIrFouxsbcnli2ckh56vVMjrxyXPrlyS7c1tqTZAFIg/l8NN7bqcW5qWV56/JKU8LC3c12o2kJCsnDmzIi+8+IK8/fY7sre7B6trFukE4ZIEIRn69MyEhUkyrjF504Fd3W+h922AUOuyMpeRc7O+lLOrcha98EzePIS16DaMZDMUTpm7jYn7/GfBpI6DMS/rXgf1hxLGutaY1h+OuWEM2mda3LSOB5aNdmGwpHzJQR929/akLiUJ6D6gk8nGRSg3iAp/ivkdmS+uywvebfnayq48W7ohs/GGTAms8/ORlKYNaeyHqQOmzqSRlWfrxTZe+9teI9C1ikxVpqU8FcuV5+ZlcaWsE5mre7F8/B69go54HtfLR4nBaiFoXXSREIMOhCfxmLgQm+7rLi5DeSf/9LdaReZaO+BuXUUCwQG930SoxETCAqHRCiNxodw4IbStxAVBAy1Pz8j5CxdBwjkz3MKHWmxgKB3m20s6o4N1y7nAqXe7Z8iWaUd94KAWN0WvpZjWRT1TolVCZj55DLyB27z/y39/5Z8xIWlxG0EfnITsA851wJhBUJDqblYHr3mMedeeBAGzoNUqx3ENSSPkdRwTCFC5XLrYk/PnzsvS4iLcwA+kWq+CSF5CrYRyFVYW3zSJ0OyDMCvlcgVktS6XLy3TFtJ4WLh5WE2zswty795dBE73IpDZsidffuU5efbSOSi7yNbOLsiqhUaRQzggyuVlnTG/sbkpn352FemPlUD9PPxr/MsgXVxFEcWpv1GNJu2Q3uRIms+hFOC+lOG6LE0V5fLZisxU0M+jxFECSfmaMlAkm6Gw1wHdewBThr3fDHccjHlZ9zrmlfW2iXLR+sMxN4xB+5pHJ63jwIYco5NgsfqwlPO+J1tNTtXkzH1Pimhw5agq87IpZ/gB09I9fcF7Lr4LknogeZQx5+UtnkcnMaWKp2H3g6G76cbvhKy0MZm9ZNsD816ZnpKlM2XoFy0eWClwT+7ersuNz3eRX7j6ABuaDUbVG/eplc6GmLheegykYY4nFhO2fcSEc91rEaASFa9BvDyu4fOY5sTcowPuKHeuAkp3EBu4jSg/ZEctMOxzsLsF5mKTnF9YkpXzaA/5giEpTpzWejP6bI0J/htdn84557ruXlKcDE3bTQLVX/ynQaZVoD+xgwM0RnR5HRQ1S9v7H4ZYVm4j6MOoBOMcySqOC7Kz21BriAOeXJNK1w9HIdFd0eQkwbA4kh2zJAzDQKq5AFupVITFs6QDi3fu31KyunTxvEzNTEutzuU5oJDFkuxsrsozF84iJJrSDMzT2eo59BbV3W158bln5MqFFXnz5RfkpSsXYFUhTlT2xta2NNot9JgFWF55qVTKWiELCwsyNVVB49yStQdrSmhMSx7X8Dzzwm0GFd+tQJq27IWSfx4UNodSzlPQYOjuJjnXy3Xf3ptshsJeB3TvATQNzs22TA/CmJd1r+PYC7GxsaENgsfdMAbtMy1uWscC80OiSspxKq5KAYSfyZWkya7IL4CkmnCtd+TV8qa8OnNPXqzcl1K8JcVsDU5fC4pdkNAryNTFEiwrX3x+St4F04Tq15RxH9Wh5ZikF9lTAtATaaAj4peJON2G5/1sEVZ4Xte7qlf5lRc0KloEyLwlHDveZAbZeQx3kiU0HkNCSgXcB5HZ+1yS6p23x/ib1lukVghJjp08h15o0OG0DrIHGgatInM8wHWcGM0vRZO8ls+ckedffkVmZufUIuRYrRKWlgctKtaCqcOD69M5l1znXm3KmK29d7QbHjYMX9s+fpAgM3xIAWtah5My9EdgtR4/WeFO9IbFMge2t0FY11GhDSnnK+glwd64xjUrXbIyW0NU9BxRLVqIcwuzsgC3DCmX27dAWqikNkvfA1mV+Y7WmpJVRsc0oDEIn+HR/N3AuRdfeF6ef+aiLM9Nw+KJ4UrQ1OwYsmo1YTkVxIe5NlWpwJXkVH+RAo4tLS2pK76+sS5379zWV38qUxwvY2KRV241LywtKgGPQkFwmNZBnIFFxkuRE53YqOeQbq0SloOe1LSOgmm65rK+/SQdFrZMD8Koy9jDMRxew60K0s1Y19fX9Rqeo1gM2tcwbP4OgpraKBctG/7mfzqDsJKwX/YiWSg05HK5Ji8Wt+SF8rZcqVRlMbMj5bCKgmijM8hIIShJNkLniPBWzoGwKui0uKxPGowniaq71ZSzsSAtmnimKUmXzRX0S5cpRkPqxBWpVUvy0Qcbcu82P63Gx/K0CA1RqeKYwsMRbpPwSVSoRV5iSEcDpmp3oXXALf5oUDhPfeUlZroChfpNkqIlx0Fzo9O03Dg+1eJAOoVkxrBYEkhDyE7V9+XK8y/Jiy+9IrPomOk5ZKH3ZpoHNUxHQFXXaKVp0gEe59/B0oO28WRfx1yxtWFwa0X1wzluYGI2k7XZhtiilQlw9LiQRGbWk6qKX9iSl1+bl6/+/GWZhjl+/ebHsLYe4AKOI3D+DEgDl7IB8+mDeTJjhHYfn0wwrKxHsz6WSiknF86vyFff+rK02g358IN3YGg1cG+ArLCHMb2/gake3u+hN/R09Ui4eyCqoFVDxfIL0FABTYBJOMMgvDx6l2SeVhsFNr98Vl565RW59Mwz8vGHH8kPvvc9idokxUGAYiA4SpDNQ/zkRWpOdUyEUbKITglseq1YuPuHgRuOq5ijxEL5SssIqpm03nyn+f9v782e5Eiyc79Tuda+A1VYG92YHg6nh6TIMYnUlRllopnuox70v+pF0otMdk0ykRySd5Zepxc00Ni3AlBVWau+33E/EZ5RmYlCN9DopT4gKj18X45/cdzD3cM2TbLUumu/aX1uf9H93C63/mwr+zds6WjbFlTHPclKW2Hbh9MK25JYH/geS446/jaIvY2+Mlv3sUL7kEl+NLVjte3+tP35syd2/85Asjcj0hBRiVli6ObDOpUh7ErNCLda40r23iGVRrPeU7pyIxxx5Hu/FC9DO07N9W9tamjnbwl1of3zRhDy2t0/tGcaiaBRzS+v2V//9r+zv/zgNzYrjYoXT8ctHguQa00HtEszL98GZZlOK/a8eWR/rm+OlmbFRnH2Gk4d/u5/HBkHjT4SL3laeiFzpXKxtG/Klu3urSf2ycdf22CnbRc2rtl0f1G+paarAvmcFFoQ/tPTGFbVJaGJXCRWrwHzUsGcxf5f/+0/7B//h79XKx6IJNvSmJ7Z9ALf2juy38ntgw/+ylYW5iXQB76rvy0tinH7x1/eFIE+t5nZaZvuduxdEdLeUcs+/OKW/Zd//aPyZLa+tmRz3YH953/8T7bQadkn//aRff7F5/bObzSkfP99P8EBlZx5kgBlIP+gpR44equIKj/XZdlhRyH8AbTSgD8Ji3YKoXgZ0lA8YVLarlQIfoyH6u3jjz/2DoZ9Sbjhr8TLylQCggp43RFW5Qp76tJlSZenpYcNaofnQUTCsdP45+2Ssmlttdev/27Bzm0yYbxLBDWUfwWuyhFzVFGvaQ6IBxdalGTSH6B4JO495QkZ2rRPP3lmn/zxib3g1IUjPnUvoIkJPr+kKIKMaCfXhnTvJJUbivuYe/Ly5byEX2TESUmElJZBJHvcZSX5FBmJpHBDnnnQx2kFvPHzpQO6Xois+svrdu299+zatXdsRiMI6rmUqxYTwRoC+pEwIq/avZA39dfTwOVSKKs9UKeomIv0S9n1tPPbc2icv+D1DgOFJGBqICRB1/GxGliNPjPTsc2NNVXunt2+LdLa3bH+tEhielZ+eBIxhQo50ZVQA1Nh6OjkhfJDAekiDy7CGmru+dEx289fWLc/LfKb0TC0Z1tbA/vwk8/t4ZNnduXqe9YTGfEJcadBj6xlj54+t8H+QMLN9h2ztZV1u3P3qf1v/8d/scc7HWlgHbv5zW3b3nqi+tq3zfU1u37tPVtdW7Pb9+5qiHvbpudmbEblIGbiJHc+5qYuJLxe8Tm/w5Bt1GX+GYfKn3DSXNwXV5bZkUi5y5jgr46MDnxs9x8+9A7uVvoTQeN3CCMtR2PKM0uEyE2qrcpOF39DI3WC8qqE1JAG/FIiwstJ4XhDd/4CE+w84EZpwR6Bx1uZq3rVvRdOv9LKj3UpUtnTkfsKs2SffPTQ/vDvt213Z05Vw1ouOrEIxclBpkw2kArgF6O7q3skIsIfXTFpYkkbEw+jJcmZIZ4fIyPtyNf8KRu+DME1KdnJ7L/yHIfqufYl4vKwcsOeZT4Xr1y1X/7mN6qTDX/xhJzGaR1eXqAO4HVPPbhbMtP78MGFXJ8GdV2+BJC4vHLRroTiSvKJBVInk1OK1JXXS1bEmgpG8JQRKo/X+UfSptp27vyqrazO2e7eU3vyZEtPJulHYvO2xswtzqaSOp2ynAgqxYYQlxWVCAvnrjQb3gg+fPDQ7tx+YLuDI2lKK3bv4Zb9+398ZA8ebNmcGmzz/DkF03BBT2FIEOF58OSphpR7fpIDmtHq8nn74x+/ss9vPNL4fkGxS7VHCqSRbb/Y0rBz1xZX5m1moS/i3fQ4bty8YWsir06bp1HKY0UGRedL5SiRhCEbJ6Js/JPm0YGp+3Go8gcm+KuQpMUeZLIiDMEi6MgoThNvRuU111e+qTr1SZT2pZkwqldp6uc2OzY3p/aQ+SRSmJRShOe3iAstaSpNMYQ9pyx8/fmuffT7+4moDiQjx30RDQ/X+syqIaKSOQ0HZZZdaFLY+1BRdgznUhilAQG5FpUIzAnLlx2kdVSY/aQRSC2HhZx8yKdf3vxBWp1uT+S0add/9Wt7971f2MLqkvqg+lYWjNh3e0SDSvZ5A8+9139BVvS0wOsmq9JfM4QTezaH4TWTVW4gXSUnowHxloG3fejHM9Md29hY8n1VW1sP/ZuAdty12el5NZI0nb60LJJRcH7SlbpYfelv+m8z/RknjOnpGXsibemrGzel6i7YlXfe9VCcHrq2umxLC3qqiHhoHxrhweMtDSMHvsbEyWpl2cPeefjItkVi+/u71pV63BWZEeLho8c2PT9na+fPuzbGJta7d+/ZisL1e7wpnERW/C0v/Y26zD/jMNSoJ8yjA78JsnqkBwJwwuI3/SRD83oF1N6pK+qwJqo0NIIAaiIYRnnPRDSydiCykjzN0+kKzaqquxQm3Q3Hh9Sqz/tDlqSmWtMSWT4z1bVbX+/ZJ394YtvPpHX7uUvphZH7ZdgIwaAeKVwiokQ4QUSRfx++QTwyJ20s2+V74EsQIC9dPrmuYZG8uGYFOeGPIV8iK9kzXyXCYgi3sLKmId91u3rtuq2dW7dWX9qf8smbVkYVTINUD//4yeTl5ck1A0qzj5ZcIaGWxhNXyGgdUnDyp0LrK3kjTlJJvodISoDgk0S8IbLysErBC69/VJDXDTWvhmUtEk+/2dmunduARFbs5o1bdvfOXVta4Y0cr4g5/iUfAaOgMbSqO6HizfFT8d22nqTzC7a8sqJh2rr9/k9/sMePntgHv/7Arl29ai+2tzTMW5BvCZVCI5APHz+17cF+1qyOpVkt2SaLS+em7eHzxxLIXQmHnq4SlFarZ3t6qj16tmVX37lq00zEK08PRFZrEg7eHrIOizqoyMAbJOV/FKJRx3rIqPwJJ82jA4fLyKuIwy1eBvU0lmmwdAE5Az4ce00os1DmLQgqmYcTrP2V9iwrUZ27ZpXJqtSsCMOFbOb71Do1CYpedCc51S1vo+xwVhr1gn364X1dj2xnq28cKnd8NC3f0qj08GPSPS1NIJ+5wxFe92lIiD3kwjAuzS8hf7gz5Kv9Q9JkB3fZ6Z5jXyApLoZ27p84dflQb4/V6GmhZ0syeP2Xv7K//OAD27h40fpMsVBG5qFEUOVG5dCk0ttp7muy8nqJS3mhhvzCLaNJVtyFP+SfX/pq2FWCU2A4vmT24qtsPizkctuEN0JWCfjThUrJcCqKU00IU+EqWLtnS6tt27w0a63Otp5eX/ui0pbIh9JGJab43CpDOazyklh6Z/BCWpIaoX1sv3j/PdvZ27UPP/y9ra2v+nYeliek1Pku/5Hdl6Y02NvXkwayOrSl5b51Z/dsfq1rG9dWpPZv27EEwY9pPWhJxe7bC/kn/PtXNrwD37t7x9dl9fX0Sit/fxhkNQllHKcKTkOprJBVNPGrpzoe4+Mq5WkchmWO5yFvmzcusMxEstAkK/9VmAjmv3UcTlQ+9KNjd23n+Yz94d++sa8+27XBds8O9yGoNDeJv2O+is0ZZx5Fij9NsNeaoN/rimEgYZOZ8BrKMRkuex8SsvIcUtLFvRPSPssQsGOJAssRGAbqkkpFW84vLNr5c+fs13/3N3bp2jXrzU67O1qWH+HN5DlZg3jkP125J6iYEFfdz7Cs/UWZQOUuNMmqdqn91X1VeAWy4k8ZNPDayMozFlToXiiMDLnAqXHdoUKn0xa5oKHw+ndbFb5o80uz9vjpA3v69KmvaG9N8cYwq9tMR9JxXDsjBjoRSSA8eg6qYWjs6emuu0NSGxvnNLT7InU00TVDvh5aUKdrj588Vb5TuOmZjvwvi8QOlK+uLS7O27VL79j6ynm7d+eRT4TuirwOpPEdaoj4wft6cnWmNAy8K01Ow8A+aabyvW6y4q0o9ZvqeNg8PvbxKIXkVMFfM1nF0C6u8l8qU/LT1KZGo/SjuvGKObKlpTlp2Quy2iXKBAzEKT/EH/3HZQsnN0tufWlC13iv8uHv79g3X2/b/oCN0ZytBNmwTCGTWh4CyuBpN4kKualISz7RmFL6yQ1gThPqyDd+Wz70g9DS2inJu6QKf2yXGSgP0CnHeS8urdilK5ft2vX39JBdkfafRg4siJ7igU+ZfU4FqG5zZZTDQJfRbO/I927nfTpdVRihSVakGRfpeTN4+bJtEX2gTFMh9BcJSL9JCjCSDubXOcHu1inSfJOQjaVLXHSCI9au6K/PZ03t2cz8kZ0739GwbsZ2d4/s4YNnaqS2Tffn9KBQQfSkTDvlExE4NcRTQhfEg1AgE3ytuDfT931/aE/37z20Bw8eyX/bev1pe/T4sU+MHx7sO8GtLq8qtr51jnQdKg9TPTu/tmFffPG1ffCbX9lxe1cqtwaSg4FtLEn7Ordmt+/c9PmyGRbWKR+eB/3llwaoiGsEorGS3+Er/ckoG7VhHttOE1DGMSm4yygGtVNLFcpLjMC4YBFm0uWN44aTSGUC8nMqDMWsqOkgLTvan7HNzXM21X0mF+SDK4ZB8utvEPGf0kEGIQo2uXPa55efP7HPProronphe7t9DQU5bwm/SdbSaQqJsDwKHmJoRxVRSU6kDeEmvkFa5YZHtD80KUhO9hrq+f49ufm8lJMTccgNOxn8Czr6R/zbMh9JZheWluy9939p77z7rq2e37DeHIuu04OYKRE+f+9f0/b8KjSySd0yJcOv7n3CPdxds8oXoeQnPhSb/HMVk/DyMw7JHeThXL6LUHGllGp34DWk8Gx0Tl/K5iJdaYmvl6xGYJx9IMfnlaB/bJxsSWPZ2Fyz2UWzuYUje/Dwpm09e2z9HoQ1qw7B5CbDRApEQTyKBN0ERbgw4EMNtzA/b+t68pDOjRtf5eHmQOTWlgY38HmrJanTvt6E0FMSGPU8Hko3b9603/72A7twccmWZqZtd+uhLS927fLlS76yfW193aYnTLCPwyS3iMJR+CvDRJ29KobSnRC8chIBMOR9cBqyyr+TUUjwCdBLabnxCIJpIs0PJTc+PTU9q069kN4we5F9SKgHnR6KXKIG3fOGjVqcUTFn7O43u/bHf7/v+/12t6VJ+fxU1lCIG00qp5GIEaBRiWQ0LAu3RDhQYMovWlKVN2nvPgzUPZqaD+tkTpPlTLzr4ld14UsRFAsr0kVTKtO8Xb561X71q1/ZCi+V5mf9zV/aLqNyRNsii1keqeuwr36R0vArBIkFMHMlDSkh5DuhcGigjofel00jvJfpBVINlbGrBn0huUZZ2eatAeaNy48qVqVxtvr27n1bWN63q9d79tt/uGKLq3t26/an9uUXfxbJUAkSoqoGKEa6kB8+GBBqvsdNg++lN3sXNzfsV798X0PONQnkDf8QBW8r0cKalceGZL+OBxry7dmFlWn7+7+9bv/r//JPtnl+PfmRkJyodH/zEYJ8hjeNWhuBEFLbc1T2/XtPbbDTlwe+8zitS6TjcgJ42PXkxhKEObt1Y9v+n//7Y/vdv3yjYX/Ldp/P29OnepAddNTRWJyZ/qE5+ZICEQ5EgrbF3NGByCTsMDN0c7KS/3R8C9oTpx/sJ0KCiNx/vM1L51L5eVT7vNlL5oHKNlAcDO6W1s7Z+3/xS3v//fdtaWXFH7BJg5L88VTNaMoj/WpSR28S1ZsB/aFxRT9p9JXUjrq8lvblnh8ur2sF+yjmBOPsA81KYiUrGfKNjAJ7sVABOTT+ycMDu/HFc7v/TVtDr/M2OyPVtzdtHV27u7t6Uh35ZmPSJJ6ImycCu8SSmecpKYiictKff/mFh0elnp2ddQHYP9p3u8XFZfs///f/y/7pn/57Bdn2VdItPWmTatqxf/7Xf7H3f/kLW5Lm5kdsCBBfYJIQTHIr640nZqB8uhF+bDtNQJnuuPYJogcc+M8D4KOPPtZvXbZRKIo+Fk4oI9JF0wCRbmgioDRDTiDsQsMJIQ8zB+UtrXSlEa/ZhUsrIostRc6RQHt6eM3YkwcDe3B/y55v7dvTLc5QQusROR321U0YknFqAW/7IJ5EPuTNh3ASHu9MsvPJcJS2nC7nSMWKc5dn/VYT6io4ZAV4K+hfm9EwkBXnkBZ+aR/qh+Ef4ddWz9n585u2em7dZuZm/Yy2joZ6SZNKb8zjW34uE7Jnd4cqoLIDw31CRCdz9AEm2Et4PIU7IEyFCXIXK9iVYtWW8cWoEr44O5DjK2XAt9uhLKgduz2V9fhfR5OVvOffBnJhmxgn9CNRFrTMsFBXTvhBsFNBaRiE7NaXe/bVl/dUmGlbWtzQ8G1Trh070LDOOzaXwsRwLK3WLciqSJIn2LOdXfv4E3VE+bt08bJtXLjgw8H/7//9nV25/K79/vcf2n/+n/+TdTrbilaNzJ4lToQTqf3rv/xOZPWehhuQXNoE/brJqvQ3RFaU8w2QVWS/Ig3vsGy3+YSe6nb4mRR2Et4EWaXX/rU9cbU07ONtIPPMs3N6uDDfaXzpQZrX80Pbfn5kewPKA0F1RR7sQyMGdG1dTlaKW3ElspJfJ52UHnDtSvek5xPsrnmhcblzDsslbSprZZAU0J1vyB/s77k9X3CJUpLT7nRXJHXeLly+YvOzS35ct8u1SIg2nJKMxkPTkftS1b4TyYqlDNEXZH6tZFW3FaUchyCrpsx42XRR553OrhQQ1YW61lsnq5qFE4aKSceUqu5kxbi19Vz3HTvcn7ftZ1N269Yzu31rR0O0dVtdvpTeyPm8REJVaUqPzckgNRbxpUrcw0unZdvbA7vLp+qfPHEheOfd6/b82YHdvf3Udrb37X/6x79VfFvWzlpV+nx7V2T1b1LN3/ETG34qZAUoQlQfmhXriD755BN16vppOQpR9Eny4J1+BMaRlZNPQ6MLAggz9ZDsElGFvV8QAVUlsw/PIByF5URO7PwNnzqGLy8o8p0myQmvTguLkYbK7/G4lhRhUzq+firb+zsgjwO3lM8mWbHhmO/pQUy+j4+hqUBez29u2PrGeR/uzc7Oq1LSCQS0HdMkzLVi5kEMok3joexokFeEB8Oa1TBZkT38hd/ARLLK/clR9en6jWsNwiW/rdzQ4Yf0WLAKOpAwD5vOC5GVZK4tjfOHT1a6oiKkvvtGTREYc1Y8CZ8+2bGbX9+zWzfv2uLcNbtw7i/VkFO2f7CnRmWyflp+adhEJF5Rvqo5CxAC5vNOUqePRFqDXbtx44Z9c+eunVu/YJubV/yN4erKrHWRA7QqCVZq+HZBVgwD05nfPJcDzQYvMcmtrM/S3/dJVgE0K+ZU2AnARwdOQ1boCeMQZDIKEEmUiHoOlJPnwMlDqOwgEpnRcvxWZkgqzBACvwcqh7up4AxpOdzNP7GeyTDqgzy6tuNzUqSV4qfsQVS+PipLrPuD7JwIFQkkJz/IbuSdK/wBTkvg3PR0csKh9aZnbHFlWUS1acurK77huK2HbKvb8ZdEMR1AiulFEG0Zv4lcYloAM9kYauuKvPAzQbOq/NVhI0yFpty9lKxK//Ir/2zyB/z4CSnqX+lAgCP1NfVaKRFT7YG0Kwbl7Dx5U2R1yk7UJCtQZ+hkHF65RRgqdGdnx0+x/PNHu/Z8a84uX74q8lgUI08rG5zvLI8QXOSdCTtViAsPjZCfRn68iPRNTnJ4/PSZDw0fPXxi//APf++niCK03S5rvhA8VaBrVv8hsrqiYaA0qylWNb8eshrCUHnrOnkdZNVE2Y4V8UBW+/v2xRdfaBjOHKKEe4zUVGGKOmhiHFkFYUSJvLMLdWdPcYZ9DMW8Hd0921fudR4gCNdqfOI7h1P4ZKfwQTqy8/iwF7GBkgDl4CSFmcu3vii6FE8q29FBMic/QY4it6yVUR40sjT8E8n02iIqye3VK3bp0iW1Qds6fc6Y0gO0w5s+EaXaGkIhn+SGtvd2UFt6Z89tWq5SD7v4JZ8hP/jDHju/d7JKbjwuIv5SHmTrv5RhMlmlugRJHsIvv/jTJf8c3xTmrrRF5qWw4+z6ruqEo6GmOH8Oraq1/xrPYD9hPcZfA5M6zqg4vPIaYXhty2bm8+fXrN07tD9/9gW2Eg41tipDDyXFhGaVw+UeRWOQPlsKqMa001+/YvXZmb6fSsphex9/9KU9fvTClpbW1KgMF/ZcgBHyWzdv29LynEhMidCGIjGPg4u4J5RvctkLFP7KMMl8yjgKTEy3cKqMqi86PkNkOuOkVMNeIbLpJMa6ZIdm3PSNhEbIoic14yy1KhAEme4TIUW83n2497tEYGwoBjFnBeJDDe4O+enyxZv6x4OMmvFlCapfJ1jFzD+f00J7gvQlMyzshHQgI9SJjQub9su//JWd07CPRcvzS4tK88g4YZd1g7QXpORywFUSFZf+hbmsvWjn+KW6arsk+1GFyT7VDRf3bpfdAenUKM1CPKXAUBgQ8fKbyMlPU4HgNMphq1uvj1alMrelEIig+kyqq8t2e8xXsQ4TEvuRa1YgKlYate0P0md8vvrijrQi1lHN2YWNq9brLLsWxdN0eAKwAHlW3LEcYXdw6Gu7tra27PPPv7RnL7Z87+FlkdjMbF+V27d//ud/t/d+cTGdZGq8Sp6SfZ1vb/AxmOQ2hKK88WQEb1KzKmUPzeooDwN9NbXcXrdmFVoVYE0XoMMHYi4oQDuOIiK/POlEMly4O2FAMJBPDusT4rLjLRxkkuKQncoYJOXpQjw5HjnkoWSKozoQj+ULKeE0tSBSSmmkRZ0Mn32YyONTv5zWObe4YBc05Nu8eNk1KdqZI5PQcnxTMigmydGuFLWDt39OYAIaT5i5CxCmbGvy6SSX5QY37EA9DFQfIUb5wW+kB0gHUKYTcldoVmnD82ikUYeIihcf0qJaIiamVyCmtuwgLictaVkdhoLYc4qiSO0tkdVwhb4MzbgjTNjXlYN2gxrFxyin7MG9bWk+O7b1tG2L8+dtcWVdjcrEIkPCWl2m8prwuFmfQ15b25LRA3v05LHdvc03DPd939m1d35hv/+vH9q7v9i0jfPnXZMja4y9A5PKd5qyg9Jf2n+o/LlZ9q+ZrEoEITHBTgf+9NNPvbM3yWqUbJaT6M32e1WySp0+kUzcp990T3xBKO4vuzvhZHufl9IvpOS/OT53U1aruFRO9tXhBlGFVgTw66vKcxzAt8koLoZ4TlzcF/FBQJzswUUYtKml1XVbP3/Oj81mKUJvhnPYJLdcAdq2AJML6cGuyLMMlO3I/Czws73CPscRMkMpqjdweSlPIrCS1IbJqkT48bI35K6c+jge8SRLk+kqhYQFv5AVJNXpSHPqiLRabHNj65suEV+vy2knIuEOmpfi/umRVcSbNCiIC8G592Db/vzRC9vdbtnG5hU/pbTXTR+HcPhToa5s4HFDfE5+PE2lusuuI6p/+Oi+ffPNTZHgc3v2bMf+27//Kw1BN5QmjazUFW/EPal8pyk7KP391MiqJKkgAHnwn7gPAmqSVZyKWRKV38scJBN2PmdVElWOj/Kkt3OpHiknBzoyz+kkiP+KrBRO9qSXNK+klaEFObEpHuLzeawIr6hZHkP6rI+68s5VPTTXbGF+QdpU1zUqJyonh6TRl4h7RgXpzZ/KIashmZA5NKu3R1Yg11ODrEiTPtpCkxJJ8cv2um5bw7+uyKm1r/T2fc4KO9wxJ/KizxEvC7TfCkg8Xz5ufcmVK+HlCL/MExzYzmDLX32urpp98MGGXXtv1e7c/cgeP/5aQ8bnKjzPqyLuZpq8NeRSw7BQlH1XHCK4sDhjv/3t3yrOD/R0XFVl0/BFPD9R1AL9w4WTEJcTWCal6j4R1ZA/vxLxcIU2VvmpzMkN4vJfsRHElK5kBnR+Zq8gp31du4esQj+0VWlSv/6bv7aNy5dscW3FphfnrDPT94cOpEK4uHy4ly8Jnl+xRCHIBQyTTMJraaOqz5XXOJCvoJH0ywJsVs2zhMeHerrQjvoipp60pV6/pV/I29JcVY9vhsrcPdCw78C6/UM387mzbnff3wa+2UWhp3ziJ9V2MlIG6/iiQeo0m5VZ+42VswjTYK9tL54d258/uW+D7b4tL23a4sJ5n9diYvzF9jObn+eNXsSteNCscnyRSpVnf4qJqFBR3Qq/8l3U0SThKd1O7e8talafffbZiTkrOvEozaoEdTlOmwpEZ/e8FWSRfjPp0FP9HtJJ9yf86GJIBny+KdvFeigmwNF6SMfdFEdaupA2CvMGMGlNIhDXxFR+/ZI/tsdwcizhSD+WIfgaKfmnnJAT22UOyFa7pQfbol24eNGHfQvLSz5c8zfQ+iUP0qVkzHYeJGlXpAHqtsoyKHmu7WpZC1mgLSr5zLICPM462AnNCvDLW8JczbovZSs0NkYtKW8JIlJui3zxyzCP1ecsOWA4x0eGj9t5nkraE79dhoByY3kC2lUXLUvKgM9ZqStBaugBPnIi/h8DWTlyfKQTlTIKJ/Ih0MC+x0hxHLJ7fr9n9+5s2Te3n9jB3qytLb1vCwsLEmRYXEKaw0E+qMQJdXm8MTwPakAIqpU/96T4k7peZ2JSXku3U/t7S2RFJ/788899cnkSWYV9CHwgOh8YZS4n08OOuHlOA8iy8qtfzEFeACfIJdyStpOWDQDIivVRTkB8i05wf5CNkoGgDvb3Vb5Im3gSaWHnk+S8aMgESH4VxId8kAIkvqO6Gcgfi4rnFpZ8YeeaSGplZdVaTNCovah7FihDUJjRQmIi26OSGXvSGGr3bG7Wa0VW8St5qMKNIasy3kRWqT6wH5Zd5DnfSNYhVlDNxzUQ0zG+/EBkxUN8Wv2p01VP0nWke9w6IiWGhpBVT+6QVUtk1enJnwSoJ7Ji7sqJzPkh9cg3tzfwlJ3o+yCrKCxAmFlgx1zD7s6B3b1zbPducX7Rge+/Yr8hg0MahzTZxNoE6UcefFUvQ0Ug/2dklX6/K1lVmlKOCDOEEmb/zc3qWpnqIWlEKWwarsUap/SmLmlKkIza1e1TPMiCExWEqPTwL5O77e9DYhCf/Ms2SJMrzVHxKzITie3uaegyN+Na1MaFS7a2tq4KESFxZpvqfKrdTvXTzpuPBfpZaDBkx80KU7WRzMhsANkakofCDCCrGDL6MDIDf2XfiHCpehPBlXILhskKEko35UMCuAzIb3rLfuBzTJCVD/16HGfOxDrLD9jnx3IEpSU7iKrLS1DbS9qWCIqwEBZE1urQTrSZiE/42ZFVqKusPQacpb316Nju3t2StvXc5mYu2OrqVVXYvPsNlZf2ia0AhK/zgB2Nox/l8adKVuMm2F1QsxlUYXJnDwQxgNIcJDXsXhMVv5Umlf2whsqHXdkt2eV7NB8IRH7Y2+f+dO/DtewWYak7PwlBZeNDDJGuf7Jc+T8QMadTFdIEeUoHd8Wtdma5wl62Z4Hnuh52HIS3sr5mbfVCliegQflSGMmOm5VmPQHNPe0RbZi1KjVP1UYlcY1A0+2NkRVkU2lWqe4c9BHVAfsV2TnS64iQuDIZ9aVRTYm0GA5yzEtHBOST6LogpD4LX53EILNEYq6Z0adQRiM9kvrRkFUGmX2lTkplZqND9/6jHkaHQsg5tpgjRAa7PfvdP3/uZ2xfOH9dWtaKKnRaFcixzAwVEsGBaOwody1wpVsSgnEo3U7tr0lWJU5b5xPSKlGSFQQx6ruBb4asJKpZg+GNXyKYRCYg5rditTlwvxUZJbLykzf1Sxv7Yk2PQ/48rMLo2oeQdHmamYioH7bAMKQjnH9AVJ49Xvcns+p+j4+KKPmlpSVffb6o4d7C0qKTlA+tRFC86aOdos7p8BUBZKQXNCC1H37DP/I1dK88lAj7kItSBsINYCaugMepfKWaTGGCrCJ/pUzTb+r4RE45G6Jy9+cr0DXU7fR31WcgHvnJa6gwQ1Zpviq98UPz6jPZLvJiW437UaQx10UaHr/KCwGDnx9ZOSRAEpsjMT7C7QRGfK2u7Hv21Ze37fY39+14cMlWFq/7V2wQwDOyGiYryAPNJvyBMDc7ZHQyfoOgArVbFtBMQj6syxGlcKn+3ayrdAOJdJIbfpmnglh8Ow1xhT93Zx5KbhFGceEHEHZ3j0nyNMcFcbkfJceQEYkijl6va+c2L/rcFNux+LKxh1e7tCVL7N+jrsv6Dq0nMOye3IbaJ7fxkF2BiqQyYuIclGGQlbLWQ3YocblFB+RqVfj0wigh1U162O+LeLhJdmyqnpYm2dNwt93bUXzbip/FnbzdYx6Kksks8vJhngLzVhB7X0sV9YQGpqF7SiPFTb2/ebKahCLuyWSVK8iRwpDZVyWrIXg4XUW65boQhBH3ne2BffXZwJ4/VQO0p21xac1mppdU/K7tDzh2hIlRnlb1E+fE003CO07IwJAwndbfJLKahLLOJ6RVIqrl4DC9QAiyUm+uSUn3RfVV5kmaFURR3lckle1GkZVrTbJLJJX9SegIG+HSPJXuFeRAJOREpXD+yapMOIDffd7Y8TEQ/Ouedk/Dy0RiHHyXyqBultOG/Jh/53xztsRcuihtam3VOxtrqNpdXWqflOX6QVXWd5DVUJs226Nq15Nk18QksiplvBnHy8hKLSz7gqyCQHjz7WQlHwrmb+86XWlJ0iLRrNq7qoPQoqRhMffEwXm6Z5kCu9J8k7LCchimx6EY08Oe+kcLS/KQ7lMbgB8vWZUYl9dJiHLwk82qGhfwZNa1P287L6bs1s2H9vDhrs3NnveV8L0u3zfM1abeGQL1vZJVQZI1JtTDdyQrygtZUT/EhFsQR5lqDAmb8hD1FUQ1RFDKW1WfAuYgEbwl/0n7CXNJUjH0Y8gGIB42G8eqdYgqlidQR9j5F2PyMI/7o0ORjOJBBnjzx2F43mmlzLlmpXrnTTHLD/jALacjzMxJDtRRGT6xj4/V6alu09wUqBcsYw4CgwjSvKkvRcjyzPs2UMp3tNWwllMj3Kv6HtPOpRm8OlmloRnDNF+OkNc+sV6Kr0a1WUOlskI+TKwnUpJ2RRStHYXjAD2Rl2taSXYTSUmzwkte9lOB9neCTO0PzsiKn2xGUEuySkfRzEjwp+ze/ed248t7trtzZO9e/bWeHssu/DQsjZ2Ol23kQ/lsCkmJScJUYsjfWyQrzrPiFT0xvU2yQstCiwrgt9K8ZM839FyryuHYQJwIjc3tKV7WTDHnlLQxpaEr1kxxfvseQ0RJAZ0WophfnLeNzfO2vrZuczKzRYZ8H9I7Bd/uok6bkMgq1TPtlMyxepxw3DtZqePGXFG5BazZRt83WTk4AUCAcJOmpCLql+1sbZHUNKvM2WgMWeHuQz3mpNCgIKrj9Dawk1ao+zoraVu+5UbNHVqgy9MosuJXck57ufGMrGoz1RMVQ4N15xbNdvdtoGGfHfVsb2B2//5jaRi3bH3ll7Ywtyb1f0b5Ya+hHhnkw0kk5QcB4RpXN5OEqcSQv7dEVpBULAolppeRVRa1CpBUIIglEMO+Ek5APsme8op7zCsFWZE+5spddnushZJVOmsqwYdvxEX4vJDT/fq2GsWlsKTDaQiU74BhIASnsG2NXc6tb/g2maXlBev1ei6V+Oc4bbSpyDuT7qluvYbcDlHFzi9ucjtwL8ocaseSrJp402RFHQBvV+UJTKls+OA8N+aafCU6JyBMaRjYZXU5a6VURyKlqWPZHbPqvOOT5mhguE3PiLh9O43KKrKif0DOyEnJMWPJSoj6PSMrfrKZMlSalczO/nKjO6a3Ugi72Ytts6/+/MwGuzTWvK0ub0pw59VBiI5XuHXFe/icVBOThKnEkL+3QFZMsDNk4tQFhkj+AQK5fRuyQvCGh3ApL042Yed+iLs2l1oVRBREhZ2HUfwQkh9kpzwCNCb8ccid+1UckCB79Vzz4k2g34s2FA155sRYtKSZ2VmblQZ14dIVW1xctNm5OeM7fCw/iPPPwRSzxALpU5RUt2kIhXmo7ZpmteFwO6a4Tmjosi/Dlgj7l5JVo88MhVMY6inaO+an4McOb+zEWezpQ3tCU2L7C8sTuGdS3DUsBU77+liFzlu+tJUGgkrHSxN52Z9BLq+cTpDxGVkVKMtRxMcka+4/jvJp52QlN87rPj6c8TOuGB6+eLZnCwvnpWmdUwNK0zK1klALb426noaFtOmvxLDQ5Xr4nslqX0MmDt9j6PQqZFWSVPpNRBUkBUJ7qsiKjp+JKPwlTYvhmzQfkQyo40xEBfn4minCi6kUgz9cmCz3Tc+qAx/+OUkpHuL0SySnob77l7eV5WU7t3nBP3U1Oz/vE8hdXYmg0BRSidEQUhsz3yUCdbPqxod99Xxl+k1tTF6reSwnq3CvUZPVy9ss7Cu5GmrnkF3JygmyynkgjSJMx4e16ndTB9byvXxpOMfxLW01OuumWIHe7vApswPFeygyY68fYXkDiKYlsuon7YqJdZ/vcgIUhvpqkdemZsWTKpBl6O2QVYFJqq9XWoWUHzL7WsiqjKNo8OgACSPiVVoItc9RHPf9s/J372zpemoHg74tzV+ypYWL2XPKa1mKsp5qAXz9ZFWm2QRbPE6Dkqw44uTGV1/57+skq2SfYoj4sKPzA39A6B6SwQq3PZk9jnxBTEyUu7bk2lXYJ6JCwyKX+OENoJ+gIb+85XOCknn/4MhmF+b93PPNixf9iOG2xjG85eO0ziCoyCt1X5GK2pj0QGhcUcfJX7Jrym1qw7L2mqjdTrb1sN1ksir8ZtJwssLs/pG/lss0BOwak9wZ8vmkOEsOGAIycZ4n1dttPpElQsOeeSpxTVfxubkroiZpn5QviEoYlpYir0P2grKXalS/uW7PyCoj950RaMadnoYOpavm0bAjbd3ha893vj6w6e5lf63Nmex0trYeOwxNfNtAMIDiVbPW5jH1Ckq3HwJZYV9VwQiyQriYqC5RdeYRZFUu/AyUwzbMaejHMJy3fBFHegOI2eeo3B9zUoTlfPOsjUFITlxoUGhfKQzgl3mn1fXz/lUj3vYFUfF+na1Zw/WcSosdHRxZwEw8FCnZQ+a1BgZOyKxwkqxKMy1YhB/KQ0Jp5zLZ6AfDZIU5SQUT4XEAZcoz2lPHyYhFm2l4x5wTRJTf6rFEQeGDvHwYqChZpe4PLyXd8bd/lF9xe/ykV0iiyjuWrOqmz1DdZlO01Q+crE6CzHrDvypBNfNd3OZ+UyG147CwBEq/dALvZHljLI3BuqwvPn3s36PbvPCen+zA2VkHnHWlFqkFjKdYCkdKk8pUCmWQFYi3SIEyb4WInMD3SVY1KZCjXF4RTtiDREIQUMq1r59SvK5RiXAgGPwzRHez+2Lin3mnRFK4H+xLu1IcaFJ8wZhNxsTFcM81LIhMdhAgNcR3IdfWVu3qtWt+MCNDPkjKJ5bVNtR72S5lnt3Nyap+0ARZgXgtX5IUw8M4osbN7lQ8dPyED6HQRCooD5W/wj3ZFS0wUoaSxkRaHhaNiFqEPHSxPgptiHVREFna+lIvP3DeFoGhOXHMcCIqwulx62um2tK8lD9v3pyGo87nsHlUHpuoySpwRlbCeLJqIqUZ/qPMPteS88PThg794N7Abt18rqfVOQ0Nr8hl3qan55UsHYG4JRiZDbj7oZMVc1Zffvmld3Anq+wG4mRPEGRF+tG5Q5uifPy6e+UGCaGZZD/Y5YLw9WIWaEJugCGeDxVlRqPybTAiKp+fcjf8Qky69CiBBAkKUfkku660RzAdhHfp0qZd2LxgMzNzIqm+bzhmp4IP5fKSBFDOp5RtwVIEunfYIQ9hLtumuWo9QDFdCwm8IlnVeSniHylD2c6HZcjdofKkioG0/EROlhfgQQTU5sROzpZiDoolCCIokRJkxVDQjx/WMDARGpoVy3aUN4pBMpmME5rliPtReWzijKxqFLdlJ48OerKiQUqz9B/ldhISGHQAJtm3Xxzb44c79vDRth0fzNjczFURFiueFQeyojzFl0scY8pUC6XMb5GsmGDnS0L+FM1uEMxQrl3TTEMiUA37ICKVj18nHO7dPZFIZa+AmAnnmlDWqnwi3O3RjvJwj+Gc0oLUICmfe9IvCz7Revd0zydN2c9HPMxXzS8s2SJv+ZhAX11R52OLlWqErxbxyj2vlarqUnlGg6INSLtsC8iKL9EEkAXcSz+gbLMSyV/RgaP9m2SV7at45T6cRhH/GBmKByQE5VqRv6WTLLCqXEVgWOhv/CAqXRzpEos7/V7mti7sfa0Uq9QVgRMVZfZERkld5GeU22RE36rK/8bOs5qEokJLNfk0ILOvm6xOwBNJxkkoySFIF4Gu8iZWQqAfP35i9+8+tRufm4aF79jK8qr1Zxf1tOI7g+rAOSIavYwzUArmaclqEoJYX4YgKwgYbZEjYiCrtjpvTeqCCCNA7iAQ6TV+n4gnuVPOIJwos89HibixE61lu6RFEU9MnGOWJ5HSoWtJSbPKwz+GitiLtHwCXf7RnrYP9mxHwxRyxfaaSxcv+TFAa2trIqmeNIi2r5tKHS7NH0ZJyF49n5Qmn8l7BbVrtEv8BlmBsp3K9mtiyO0lMt3sK832d4yIA/3PtSpdzEW1mVtScXljx5s+3uKFG/bVES56IsUBeT2GgxIbtKkqLqUf+Xd5OJGfyeV5Gc7IKjApWU8kGSehJIeKrNwy583Lpk6FZjI4sJ0X0/bJJ7dk7qjTXLfZ6fMSlHk86kpPyzLOQCnQb4OseCpDVqyzapIVZFGOZMjdKLLios1KskJ7co1JZn7RmFKYpMWgLYXW5PYiJPzxNpCFmzFXhZbFUI+3fKxQ35M/SGugPOyoDWbnF+z69eu2unZOnY/PWzFxztAnH+FC2zXkie01INV9zPkkRDuV7QKCrJqaVNNfiSG3l8j0tyUrJr4hIggIknGCgoB8r16aRI9lCJ3uoS/sdLJyTUsk1Wv7fBXHFDNsTaOH1CaR/9FkBSaXaRLOyCrwaskOYTShnCSrdGiYGlUqtwuxNCmWOtz55oXd+OqZnlbrtrJ02RbmV1PnZfBS1kc0UpH3t0VWrK9iBTtkJT2kdhMgKycjzCITJxrlJewgEFCtp0Jryua01ilrUoTjRuXGXA3vGBJCVDL7HJVqitM7WVfFvBRD1D3mpHx4KJKCtOTemunb+Xeu2ualC9bvzXiY6elpm2arjACpVvKX22/o7Vx2K6cqoi28PeVeVIMj2qdss0kY8vcSmX4pWSl88hP1nRZjMt80PaMyoA0ZZ0oxJwVZsV5K4sn5U3kOy1elo125PVrXlPxLYiAq5qNiONnAeLJqYnIZS5yRVeDVkh3CJLIaBd64eAO3dvVXUnA0a08emN2+vWNPH+/bTF9Dk+WrrpZzAgQC7J05GqnI+w+ZrNCU/JPsmMn+CLKKkw2CrHwvHoTEld040iXe8oUdyw3Sgk+VU+7MS/lcl6J5/uJFZSfK82/vLS6t2DpLEdZXbZrPXWm4F20U9UY+K3OW95ifclSymeZmmgiyampSYKjNGu1UYtjtZDyjMJKkQv7UVqwq5xgXyIezoqY5jbOzq9jTKZ4+nBMRTfu+PZEuF5oX7iIqzpny0xI0hGZFOnkkxXSqm9AgLHcv5GEyTldGkEXEywd+PGewZyThUJjvSlYlRjiN7vjj05wkkMAJS8Lj+T6eVgftaVjTtxfPD+zmrYe2u202P3dOQ5YVPc2Kz4QpzZJcJpFViUnE9X2QFdoPqDcupwwlsoKMkzuT38wnQU5xSkIazqWJ9QNV2wEalML5XJXMPuzb39O94lL824NdxcSaN7OVlWUNsc/b2rkL1hNJsRTBJ89DzlT/8RYWQE5eV9EhVKe+4Vj3ZR02yYriRBuNJKuyzSa0U6x3SjgZT4VC3sv8B6o00J7UIH5MC0M4liS45rTtyxDQqDiZk1Xn/WkNh0VUvPDx6lFYFnzyhg9tSnpsijOD5RgJUHtNVkowG7Kdk1lGke+TmOSW6jgZkr8zsgIjnF47Wflfwus65gsiam51Po6DPVBiD+4/sds3X9j2ds8ubv7CX6f7a20/+SFN/oLXQlaT8lp2ipCMCWQFoSSyShqQmMp/Qx6GyEpxByHFBDvmeIPnk+muYTFJTtg0j8XyBU5OkNE1MciNJRSce87IBG1qeXnN1tbX9LtisyKpmbkFjew4a583V8qxZCZlGXMylVqUWsJ/uR8lXyfqTH6aJFV0UTkPk9U4zeO7kVVNDp4GJEU2RTrMOcX555yS0OnvWV8ExPDO3/JBXH0RuTQvX4ZA9AqX3v5RL3lIXiDVQcoHn3+v4H2Y+zo/FSb200luChpVnuM4IyswwumNkpXgX9xRxwPHvBXU0HB/78AePnhqn358y5YWLtj6ufckfDN62s17/KyC54jlwNsmq0RC6iiVWQaREyhXsCc3hoDSkiA1+aEfMBeVzj9PdZG2wchNhMUJCJA5a6YYAu5Kk0LG0MSeP98RWe2oHB3rz0zbhUt8nGHVV59P92elFXTyEoTh9vI6oXzeuZMbdeGyK/uol5eRVRDfOLIKzSxA2FFklWS/6NgT5Cviq9rcCUEXmpRPhOMOCaV9eZARw0E0IL4ew3f4WNDJMgSfj4KgFIZgaFFJI2MyPmlmXi9eMUU5Cm1xmGOjHLksPy2yCjdVpBf09EhCojAT4x+BMfl2TMxCSmdS5welME9CWdmcZeSQ9mRHHDWDxnFsuzuHduPrx/Ziy2xh9orNz17wt1ds1uW4jiCsZppoGIFRRBZlmJjXol7HkRUdL5EVk98S7ExQJ8mqjgs3yKfaPCxnhn7pLR5vA9OQg/KHJsWEOJPlaFAD+cPvQBoYRw4zL8WG40tXr/gZ6HzZmDVT8XYv3uZFGSatZUN2Y86nrJshc1NOFX+zHlM82a5IB7tG6ArMCdU4mbcKRXx+fLLIJV3SmiCfmAyXTKEx+RYZ5Et++CZfp7efzjyXks6kOm6JpPRL/kR4mDl3qmr3WKTq+WqUt6xHr5uCrE6NCeUVmmQ12fcZXhNoxCRYTLL7dwYRNBqhWrXMAXepw07PdO3a9SW78A6d86E9evjQtrbEXMI4onpbcIIqfkcBN7Sq8BNExbAPQoKoXNtiOHhwkNZLDfYSkYmg4+ROiIpz8lfXz9n1939hf/FXH9jquXWbnpU2xeJOFtiqWsR9/ss16iHjmk8GZieTEdc4pFMVJocZZfdKKMjA5wDzNQwIR8ST10b5soM+66cY4ul3WkPBaQ39+iIwzDPYS/vqsbiTN4VomGhe6bwpiKomQa4gn29DRK8fP1/NakSyIwU7p/MyzarESQGtG7uuJxT0KEPzl6N0mduR8LU27f7dgd25/diODrq2tLjpRyujokc6sWYptAmErGpUhLGRn0lvLku0jur4QrN68eKF55KnL50HAgrNiiEc9YVd1JebVRbKFvNQkA/zVAz7WA9FWYjLj3jRRVr45W3grvwNCCOtrNufsY0Lm77heH5+QUST9u9xBnolFyDqQWDIWqEhN5gIT16HX2KkMFUdCs0hH+G4mnJf1XVDPhveKozUrDxsMieCykQhAmG+qu1LztObPY5r8avFPUsRjn3i3DUn+fWlC62BwkizkibF8cPMN0G4nnaWD58flbnSqkBVhpSfqmxjkfM5DifCR/yjUdVtzscZWRWYRFavhEZaaelCRj4qdhTwVU1UZ7TbPXXilj3fOrbHD/bs7jc71u2s2sbGuzY3O5+GTOrwDPvi0D+fD5PwBppC9spkJfD2LZHVtgs0l+/FE5GEgNOxKrJKVsks0vHTEyQkTlTSmPalUcWxL3wKjXggqbiY22JV0Paenvq9jp3buGhr5zZsdWXVh3yUiaOkKTdEEulhH7IY5aYUuJey5uFz2w6tbRNiL18pD1UdFvIQaVVuY0C6QyTwMri2LXJQGB5EaD3entK+mQxn7on5Jj//3IdzzDXRl/Z9iFeRldsdJtJi3srJTCSleJ2bvNyp5oanDaLGSkD7WW5KeR6J0r2uL1VUNpwOZ2QVGJHsD42s+E1vzeiUHDfTte0Xh/bFn2/aU40Kzy3/jc3NLOvJ2vZtEOnNkkiBIIUm0OxM35WsWPjpHcmJKJkDQVb1qQup7PHFGIiKpQd+TIsyilblbkFScmcyHc0SsppfXrGNK5dseeWcz1OxAZmyebwhxJmsopwM7aLGgyiok2Y9kFfscCs3G4c/r8cG6LDRPu6vIb+kx5C2ROTh1PByQQ6qW6XBscDHmXggpHQAXnqzlwhImhULjyEmliswBJS2yXf7WBDKFAQT52kSPi9BUB5T30PLahYUf1GDgR8AWb2xjczjwjvC7edCVtkAGsOJEjRxU7NiqMMtHRyS4Z76u3fnmd3+ui9Bm7PFxWVfoZ3OXmJZBFlQhx5RnmaHHb4fzts4spIqdIKsqg6cpt08D9i5H11sN9rdzws7M1HhxyfRB2lPn2tdRwwRNdzp9Gzj8hW7eOmytWf6andew0ujouNHnkOIc51WZSlkCrto13CnXpxgFZ74MJbDvGYdlag6rFCHTf5pPydKhsNuU+M0ZOVDsRyST9+zapyXmnyUgbd3PsfU3vc3eum7ewwDzSfTWUvFqZxp/op9fJARWhWxQUjkDRmSpqZkyA/mpox4WxbEXeKMrHJDnxZk1sNMjH8EmvkekWwIdYnvk6wCLJwcQiUcIjKXF90f92xvZ94e3tu2Rw8GdnQwa0uLl21meiWVYwrhfTlhDXfM4byNIqvtZ899SIewBxnxlE55lv+sVSinTlLMQ+1pKJc2GEvD8rd8mEVgcsOeYS57D5lA783NaMi3buc2N60/t+ALOumx5VKE1NHS/UhiKWQK9yZZVe5F275NsqrTy+2s9j4+3k9LDNCa8mR4ueyg2lgskvJf+WE4yDAx+delaNM2mRStXKu06gWeozBGbn6eZFXjh0RWo/GK6YBGWuPIqhaijFwmH+K4QAwLBcPJ+mD9ljo6wjhnzzU0fHh/1x483JG6P2frq1flb15JoTlk70Lko+yMwx1zuKwlWR1oiPYpmtXzYbLiDR7h4lC5qcwMaAYVUTH0k8blk+oKy7oqTvFkTx/zbQMNA9EY5xYWfIvM6saadadZdc4+kXoZQgwppV/6bwxnKQN58V8l3yxfk6yanQBMJKvSXxn3dySrlC/aNIVnMJsmulnUKTISUfFWL2lILEloWU9ufMAhfeqK6jmSmXkrpSkz4fwDDQyii0TRZBPJ13U2HnXuS9mdHOYUeMXwzXZ6O+dZDQnJKxZA1w+JrKIjlJjYqN+JrMh2OlYGt/0DFkZ21bHn7WDQtq2tgd26dddebE3b4vx1m52dkxAznwXB1U/LoQ43Yf5qSLOS5uPDwAZZscG4rCMf3sn9WEM55qD2pZGxNxCiYh0Yk+w7g0M/Bhoti5XrC/OLdvHKZT8DfW5p2QmtJXVhSsPaozH58zKoviCHQJSrnDAvy3py4rzO93Cd5HjCqpTX0l9Ddr81WbljnGogv2hHbIkRUfnn1X3uiT2kbeu2DqzPm0A1KQtAIaf0AQfyk/b3RXzpCpAjXbksZTmaGNeXJ8nKqTAhzVFo1v8ZWb0Uk9N5E2RVoVK306/PJRR+jo72FV035eG44+6kfffWvv35s2c2P7ds62sXbbq/KPu2SIaPfB26cjsAAA97SURBVLKmJhLOw4KIs6HeB1lBSoOdXT8iZltkBRm5vTolGlVa6ZwAWfkJCQd7PrRjHspP55QXhoH3Hj+07YE0kvaMOmLHVlZW0xlT59atz3Z/lVVU5fJEucpPNPmQUyDPad5q9DDwtGRVdr7SX5ibnaWJkN2m/9OTFUQF2SeiYq1U+qS6iKrHCQgioSkRkMjKP88uYuq1dmXe8QdQOu8cwoqMpnj4BaVmRV2V5SjL28S4vvzzJKsCr1oBZPa1kFWJiXmfnM6rklVs83CcpgwFgXgdjwhT5yHcZmxvt+efvX/0eNeme6u2unxRBIKA9yToqc4TGZzMa6lRgWPWOrlm9antvNh2spqSH+al/EypHAWdFB471NAvLewcpIWdIqvnu7s2kN8daVJ71rfV9Yt2UUM+Vp/3etPe+VhXRsqUmIFMM28xxDyWfWhUTT/NMpXmiWTVmIsCIztGgSZZBYJUSwyTVdKmICsOwuN4Fp+Hkjbp81JMqLcGTlr+EQZxOG/38NNpb8u8K02qI+JindlwW5UENUxWgstO8h95HnpT/RIMl3M43VOhUU8vwxlZjcLEvE9OpyaKGk3hLfHKZAWyQJ2WrI41TGB1+NTxjD15cmgP7x3Y7nZHw4g1/7ZhtzPn/tKTPTX/kNbSICsmzQd7A/vk448TWYm8ppQPP1mKoaAufiExTu3kg6iHkBLLEYKsZLen3+n5edvYuG4LS8rLAgs7pUXl8HTiBBFhLtPQa/XacqiOSzNeyvvJSxIKt1OSVbiBMp0SUZcgljHklFXeVE5e6jKESwTElhhpViKlabEVJMVbv7bap9NjMp0hH8sT8MvEu0hd9cY3/k4uk6jvh/KHDLnspDKH24+JrL5Fimf4fvAdmkZkw4JJ0Yg0l5a9827fNi/t6vH8pd19+KG92Lmv7rIjDtJ1tKdOwvKItGLeZR0BHiHEjDD8VAQf+iWiiguNCqLyNVT7R7a7d6R09u354MCebmtIMzOvPFyz937xazt/YdPmRVqEi0P3gJ9E4ZfffiuMI5DvBtri1dtjmEioTx4O7NM7lPZ0qOEcR7LwlWPpwv0pm4GYdN+Tm9v390VesuvRRgORVDr2xV+cNDSq0W1W5Pu0D8YfMM40KzAx75PTGdWxJnWYiZpV8z6ErxTC7Gd0fWc3EYkGGAqXv1Wo8EdMZh+YPb43b7du7KojzNiaz2dxrLKe5kxmi4iIo55Lq/Ozt7NrH330kT179iyTS9KICOPLEFhJLy1qjyUKB0ycH9rWsxd2pOHL5pUrtrpxznqzfOoqXhCkdkfOor6aXQ0MTaDnfFH2CMOvm3MdeQmGtJ+6DFU6/Hg9lm5ZDmUf2txJDUyxF20R8QWqNskklcgqlc8nvtGWfP5JrZMnxNGW+Paev/lTFnw7jDSr1hRDPYaE0qb0BOkzXMxzUzxQUtp1/lPJhzGpb0XezzSrM7wlIHj5mhroSm+GELJ2uyvB79mFyzP2179ds/mlHbvxzR/s6bO7dnjERDjbc0aLA513WFAlPyIqOiO/sZ+PN4acyrC9PZBWNVAay/bBf/N3dv39v7DFpXXjM+xpMj51IuJsxgvRlFf4KS8/WSFf3P/QEN2fPYvMLfkHRKW9Mi/X77Ss22/pYSFtKmtSkFdfJMX2GbQsTkfoy226r4t7XenzV7Qn66cya//M8PPVrE6d38npvKpmpR6WDfJX1vyk8pxas0o4Pj4Yka80vGpPqZew9+y4Zw8f7djNrx9o6DZl66vX1JE29KTvpOEek+gqB+0DWe1u79iHH35sz59vi6T4cCh+WCx66BrVYO/AtkVU2LNcYml5zS6/c826s9N+kifLEMjzsa+yr9dFOYqyu1ak+3F1GHNGyb2olzeqWRU4hWZ1JG02vZWTH5ELk+i+ylwXb/kgpi6fwpKWhcbFmz7eAqaPNyh9TvY0aVZoWS12LfC6oU63nlOs8z8K4+oQRHnPJthfAWdkVWBsnRcClf28rL7rfNVxpuRqImDdE0sLOH7m8f227T276t/Um+nnc6FaLCVQeKU5kLbkZPVsV0O/lgiqZeIn22GrjLL3Yk9EdXBoy2tLdvHiRVuYX1CwekGmGMB/8OvDxyL/capmVW+NeigntUFdvxBq9pv3+TTr5QRZKe4TdSO7Kg2ZvxVZ+dIR/aLN+lonkZH8soG409ewm6OCpSHxxRje+DkpKc/44yx0hoF9DQn9THS3T+m4dqlhfYl6Dn24nkCZpzBT302ckdW3wI+drEaikdZQ3XwbsjolhtsgxVV1OMUd7qXQhSDvbrfs7jcH9ujBjs3OrEnTuiB/qRNPHU5Ja9q1j/70mT3b2hHBcQa6whwe2+PdXf+Y6PLyqq4lm5mftfmZOR8CRZqUEwIgL2hs/KKdAX5GkRXplnM+Djr/UN0WZJVxrM5fonInzhyWSfwhuFsth0FWE5HzUtavaFAGEY6GbGhS+Gk5WQ2kUbVEUpASQz5puCIsDsVjsWenp2GfGIitNJAXcdRIea0J6qQb9TuqbcM8iaxeCRF3ncSr4TT1WqCSZ9UtOCOrl+IV0wGNtIbq5luQVRn+RJgCozaglp1plEAH/PSDvSlpUH27eeOJPXm0Z+fPXfQzzXtSCXa29+3DP31qT5+8sBfPB/J7bNsiq8FMz9Y2Nm1hbtFY5Blxk8+2NDPug6wA2lypWaXipHyjiZ2QB+U7tJ7osCOyX6Eph6M6b0q7qCvSIN2sZZyKrJwokz+26rA3Eo2KONCUIKc0X7htXTQrMZQv+pR7WvypIV5HZNUauBlNq63heyJB6khxuzyMlokS1G9oSFFXIJZjnJFVA00hOS3OyKrAmDKV4U+EGUJNSIGSrALRyYb9yj1OLZX59q0tu3dHHa21aufXLtnxYdf+9KdP7Osbt5248Du7smZr16/ZoUgSeWEyOX25WKTD5Hskrt/qNT5txyfJWhoqKR/qslV+0HgqAvDf4fooN9+WK9tLUKZyzdQoeLacFOr4mh94GI9as4GMgkApFvvz+EgD+/iYi2JSvcOSAzSrrupIpAQxsbaqJb/MW6FJsfBTA2TVXWhVtAVlL9tkPH42ZPXGzrOahLLjFJV7GpDZM7Iahzr8pPYIQXXxzkJedY7cGVvWt8PDnt36+rE9frgj7WrePvpIw8Dnu+p48651zS0v2wv1rwPKpPBtDf3opunkUHXOljqa7KOzQF5oT+lgQIZIbfdf5TtkIddDs53bzTYs3BKK+agTbkIua1WF0cE93tr/eLLKdeUQ2anciaxYuHnse/dYhgBRQTzpqGGZe9SfyEyE1WZiXdWP9sRWGte+lLQvbSiHsJ5/XVEXo8pT4IysRmFMgmdkVaCR1o+CrAKeB7a+sNBz34uys71njx8/t0cPntns3KotLa2JV2Zsj7mrg0P/4sxh1nRiAp0PlWpw43axdxB/R7JD8zo64i2XwuGmND29Ks+pHN7JijoJLQb3dNyvkN1jJIB2VldRHbYkmupDHRlNcjoVWaneGC7GV4oXO22bERlBOFNTfPbKfIkCZNXqpm/2MdTzDzKo+tNQE00y59GXmZTzVbIvyn5GVgp+RlYvw+R06g5WY+Iw4o2R1XDYk295inRfSlb6yQIeZWGYNNg9lJbQ904AAbHNhv2AIGlIKRwaFGTCZDrDPPYPuhualewPj2Zk7npafq/Q2ctQPLu7e26OPJFv6juGl8x/Ua5EXMSl9LKWl/xhnnG/CYXmIkS9RlmjLGiIp4FvOlZ6bHvxCXKGtu39vCVmP52a0FOddWWHFkbjqb5Z2nCCrFTycqtMhTEyUQIiOyOrURiT4AmyOkUlg7dGViUmZmFyOrnfDGESWTXfXoFmo4CXkdKJ+haGwyThrf0Vcef8ed5PWY+xdik6dMRLRxif1xplhzk+nFZEuoREOECkVpFO+hIzZ7dDYke5kuMFgmtj2T9G7n3VfuRJbhAYhHh8kPZBNhH5d3/5irrwI3qGcLKOaMdEVBraqW46GtL5XFWHrTG6nKykR+aD8OIMLlDWF/loyktT8wMn9msWOCOrEQ3kGJNgFXHglJ3gjKyKuivK9GMhK3AashoGaepS2mX+4tx2QN7qN2KYk5YGfKgnD3RC96c/yX8mHfmj9JxAenwozaqKI+JP7iCFScfapHwNI7S4UWAOLdoTQmJRp2tTLO6UdsUnsZhUjz2XUe/8xexpu80wzsgqoZKN3H5nZAUmZmFyOqNk+edAVt8KzSGnUJZjyNXTS3lLHTun73/VOXVfk1uuE+5VHn7whx/XrrygEBz+8RvDxBQ+kVUeto4kp9F1BAFxcgVggzEneXIoHqcooGXxgQafwyrqjLKUKdQuNc7IKqGSjSyjb4mswo1x+isWQNdPjawqnKpMpy13U+AR6GT6LmT13UCecr5y54rODkbV5fCap5TXGC5WQjwkD7V91Unz6/9EeEmrqjswJJaGkXy8ImlYNaLDjwN5Zq6Jg/DaPRGRyKmjNiaVsq3Tg4Q5qhGFFE7OMZ4eZ2RFo4/C2MrOhkAlPKMQbmdkNYRTlem05W4K/w+BrECZr3qeCSTzcL6H0s15TXNWIN2n9VdlOQqzhyndIp0G5I9OzRegS5yYvmoAkvA27Rw5YUHC3FfrFHP6k8lKGl1l/ZIER+CMrBoNXGFMgj86sjp1spPTeVWyUu/LhpPg9M1Xx7gwTaEvBDrn78S2kwk43apu8GplKHNZD39q21GaVUy4B3hTWQ+BG+mXcpLL3yTtACTjc2NF5yateElHsic6vsuvwrSPZYzN2UEEStvTh6xSPppppryUtQCa96fH6cmqzEejzsYhwgwX4fRolP1lOCOrwKmTnZzOj5us+Hu6NL8PsnKMkoec7xMIIVaYofm6l8hGLatoOqfIb8Q9Imu+1KLIX7ODAbSYofwVONFvHGPKewr8lMnqlLk8wzjw1G1eCGZ5vR3QtOV1EqPyPup6k2jmEPlMWkhhy/0IAnK/XKfMI8I/mhy+PTyXypsP+3TxwPELs1/kUeQDoY26nJia13dAzseo+vqxo8XTddR1hjP8lDCKpE6lVb0CiO2nRxE/HJzV7RnOcIYfBd4SWb0GdfcngHKoeNqhzHdDPPvL6wcIDY8YOqVLt3FNqq8f0PAn1SyzWWnz0MR8vxakFH+w7fma8NMu3RnOcIafDN4cWTUnEsvrJ4RR830xkfsmJnTfPGifuM4wGc3uc1Z3bxJvR7P6IRAX6nhc3yPe7HDg+wSiM+r6DnB5aF4lXmNar4RmunFNwqRyfBuMSj+unwd+PiU9wxnO8COG2f8PlITRAsL+0KgAAAAASUVORK5CYII=;" vertex="1" parent="ocHO1-lxkFiU99r_c2Z1-22">
          <mxGeometry x="175.51" y="264.14" width="67.6" height="72.35" as="geometry" />
        </mxCell>
        <mxCell id="ocHO1-lxkFiU99r_c2Z1-29" value="&lt;b&gt;&lt;font style=&quot;font-size: 20px;&quot;&gt;Local Development Infrastructure&lt;/font&gt;&lt;/b&gt;" style="text;html=1;align=center;verticalAlign=middle;whiteSpace=wrap;rounded=0;" vertex="1" parent="1">
          <mxGeometry x="60" width="410" height="30" as="geometry" />
        </mxCell>
        <mxCell id="ocHO1-lxkFiU99r_c2Z1-30" value="&lt;b&gt;&lt;font style=&quot;font-size: 20px;&quot;&gt;Cloud Infrastructure&lt;/font&gt;&lt;/b&gt;" style="text;html=1;align=center;verticalAlign=middle;whiteSpace=wrap;rounded=0;" vertex="1" parent="1">
          <mxGeometry x="800" width="410" height="30" as="geometry" />
        </mxCell>
      </root>
    </mxGraphModel>
  </diagram>
</mxfile>
